<?xml version="1.0" standalone="no"?>
<!DOCTYPE svg PUBLIC "-//W3C//DTD SVG 20010904//EN"
 "http://www.w3.org/TR/2001/REC-SVG-20010904/DTD/svg10.dtd">
<svg version="1.0" xmlns="http://www.w3.org/2000/svg"
 width="300.000000pt" height="265.000000pt" viewBox="0 0 300.000000 265.000000"
 preserveAspectRatio="xMidYMid meet">
<metadata>
Created by potrace 1.10, written by Peter Selinger 2001-2011
</metadata>
<g transform="translate(0.000000,265.000000) scale(0.050000,-0.050000)"
fill="#fcb026" stroke="none">
<path d="M2600 5238 c-82 -10 -213 -34 -290 -53 l-140 -35 0 -110 0 -110 -496
-5 -497 -6 -175 151 -176 150 -155 0 -155 0 14 -80 14 -80 -212 0 -212 0 0
-508 0 -508 212 11 213 11 -14 -83 -15 -83 155 0 154 0 168 141 167 141 505 2
505 1 -7 -159 -7 -160 177 -136 c97 -76 181 -140 185 -143 5 -4 -6 -23 -24
-42 -95 -106 -113 -197 -113 -585 -1 -415 9 -471 109 -611 l70 -99 0 -465 c0
-256 -2 -465 -5 -465 -43 -2 -460 -59 -463 -63 -2 -4 -15 -32 -28 -62 l-23
-55 -432 0 -432 0 -176 150 -175 150 -155 0 -155 0 14 -80 14 -80 -212 0 -212
0 0 -500 0 -500 212 0 212 0 -14 -80 -14 -80 157 0 157 0 174 150 174 150 458
0 459 0 25 -60 25 -60 797 0 797 0 31 60 31 60 455 0 454 0 172 -148 172 -149
158 -6 158 -7 -7 85 -7 85 207 0 207 0 0 500 0 500 -205 0 -205 0 0 80 0 80
-148 0 -148 0 -177 -150 -177 -150 -493 0 -494 0 -13 59 c-13 62 -27 68 -220
92 -187 23 -170 -25 -169 481 l1 450 80 123 c104 162 101 140 94 647 l-6 441
-58 77 c-59 76 -59 76 -18 108 23 18 101 77 173 132 l131 100 6 167 6 168 499
-1 500 -1 164 -141 165 -142 151 0 151 0 0 83 0 83 205 -11 205 -10 0 507 0
508 -205 0 -205 0 0 80 0 80 -147 0 -147 0 -175 -150 -175 -150 -498 0 -498 0
0 117 0 118 -204 43 c-238 51 -684 70 -916 40z m800 -186 l150 -23 0 -548 0
-548 -217 -167 c-119 -91 -225 -161 -235 -155 -10 6 -18 -3 -18 -21 0 -18 7
-28 15 -23 29 18 175 -99 210 -168 30 -58 35 -127 35 -449 l0 -380 -58 -101
c-32 -56 -73 -113 -90 -127 -28 -24 -32 -99 -32 -589 1 -540 9 -634 57 -605
72 45 350 -38 379 -112 l30 -75 517 12 517 11 0 -202 0 -202 -488 0 -487 0
-25 -60 -25 -60 -689 0 -689 0 -23 60 -23 60 -496 0 -496 0 5 195 6 195 453
-8 453 -7 43 83 c39 76 49 83 117 82 41 -1 128 8 194 21 66 12 145 17 175 11
36 -7 55 -2 56 13 1 14 1 279 2 590 l0 566 -59 74 c-102 131 -104 140 -104
555 l0 393 60 86 c32 48 83 104 111 125 l52 38 -216 167 c-120 93 -219 170
-222 172 -11 6 -15 1089 -5 1091 265 57 793 72 1060 30z m-2475 -132 l132
-110 1 -250 1 -250 -151 -126 c-221 -187 -213 -201 -216 371 -2 580 -11 567
233 365z m4270 -367 c5 -465 4 -493 -31 -493 -37 0 -323 230 -325 262 -1 10
-2 123 -3 251 l-2 234 156 127 c85 70 165 124 178 120 15 -5 24 -158 27 -501z
m-4675 -2 l0 -329 -110 1 -110 1 0 328 0 328 110 0 110 0 0 -329z m5068 4 l-2
-325 -108 0 -108 0 -4 325 -5 325 115 0 114 0 -2 -325z m-3423 5 l0 -190 -472
-5 -473 -6 0 187 c0 103 6 193 14 201 7 8 220 11 472 8 l459 -5 0 -190z m2495
0 l0 -200 -470 0 -470 0 0 200 0 200 470 0 470 0 0 -200z m-3754 -3405 l153
-125 0 -250 0 -250 -139 -115 c-80 -66 -158 -115 -184 -115 l-46 0 4 485 c2
267 4 487 5 490 7 27 80 -16 207 -120z m4289 -372 l6 -483 -47 0 c-27 0 -103
48 -185 118 l-139 118 2 246 c3 277 -22 228 216 420 144 117 141 126 147 -419z
m-4675 7 l0 -330 -110 0 -110 0 0 330 0 330 110 0 110 0 0 -330z m5070 0 l0
-330 -111 0 -110 0 2 315 c2 173 5 322 6 330 2 8 50 15 108 15 l105 0 0 -330z"/>
</g>
</svg>
