
<svg version="1.1" id="Backhoe_Loaders_Icon" xmlns="http://www.w3.org/2000/svg"
    xmlns:xlink="http://www.w3.org/1999/xlink" x="0px" y="0px" viewBox="0 0 200 200"
    style="enable-background:new 0 0 200 200;" xml:space="preserve">

    <style type="text/css">
        .st1 {
            fill: none;
            stroke: #FCB026;
            stroke-width: 2.85;
            stroke-miterlimit: 10;
        }

        .st2 {
            fill: none;
            stroke: #FCB026;
            stroke-width: 2.85;
            stroke-miterlimit: 3;
        }

        .st3 {
            fill: none;
            stroke: #FCB026;
            stroke-width: 2.85;
            stroke-miterlimit: 5;
        }

        .st4 {
            fill: none;
            stroke: #FCB026;
            stroke-width: 2.85;
            stroke-miterlimit: 1;
        }

        .product-range-component .container:hover figure:hover .st1 .st2 .st3 .st4 {
            fill: none;
            stroke: #DD970C;
        }
    </style>
    <g>
        <polyline class="st1" points="74.4,131 94.4,131 99.9,125.4 	"></polyline>
        <circle class="st2" cx="117" cy="125.4" r="8.9"></circle>
        <circle class="st2" cx="117" cy="125.4" r="17.1"></circle>
        <path class="st3" d="M84.1,96.2l5-1.2l-0.3,1.2l3.2,16.4l6.2,0.1c4.5-6,12.6-10.4,20.7-10c6.4,0.3,15,4,19.9,10.2l0.7-2.2L157.6,55
            l10.7-2.9l14.2,55.5"></path>
        <polyline class="st1" points="127.4,68.9 134.7,100.9 137.1,110.8 	"></polyline>
        <circle class="st2" cx="62.1" cy="129.7" r="5.8"></circle>
        <circle class="st2" cx="62.1" cy="129.7" r="12.3"></circle>
        <path class="st4" d="M90,70.3c22.6-7,42.6,0,42.6,0"></path>
        <path class="st3" d="M133.8,129.1c0,0,6.6,0,14.9,0s9.8-13.1,9.8-13.1l5-43.2l13.4,36.4"></path>
        <path class="st1" d="M168.4,98.2l-4.8,11.1c0,0-1.5,7.6,4.9,10.2c6.4,2.6,13.9,1.3,13.9,1.3l2.6-7.7l-1.3-5.8l-9.6,2.6
            C170.7,110.2,166.7,109,168.4,98.2z"></path>
        <line class="st3" x1="114.9" y1="67.3" x2="114.9" y2="102.7"></line>
        <polyline class="st1" points="62.1,117.4 70.6,108.3 90,102.2 	"></polyline>
        <path class="st4" d="M50.8,125c0,0-0.9,0.7-2.3,1.8c-2.3,1.9-10.5,8.9-10.5,8.9l-4.2-5.9l4.2,5.9l1.4,2l-4,5.6H15l7.6-15.8
            l-1.2-8.1h5.2l7.3,10.4l0,0l29.9-33.5l2.6,5l17.8-5.2l0-2.5V66.6"></path>
    </g>
    <line class="st3" x1="95" y1="69" x2="89.1" y2="95"></line>
</svg>
