 <svg  version="1.0" xmlns="http://www.w3.org/2000/svg"  width="300.000000pt" height="213.000000pt" viewBox="0 0 300.000000 213.000000"  preserveAspectRatio="xMidYMid meet">  <g transform="translate(0.000000,213.000000) scale(0.100000,-0.100000)" fill="#fcb026" stroke="none"> <path d="M35 1065 l0 -1025 1467 0 1468 0 0 1025 0 1025 -1468 0 -1467 0 0 -1025z m2861 989 l34 -6 0 -978 c0 -812 -2 -979 -14 -989 -10 -8 -386 -11 -1407 -11 -767 0 -1404 3 -1417 6 l-22 6 0 983 0 984 23 3 c42 6 2769 9 2803 2z"/> <path d="M1470 1850 c0 -5 -7 -10 -15 -10 -8 0 -24 -9 -35 -20 -11 -11 -20 -17 -20 -14 0 4 -16 -6 -35 -20 -19 -15 -35 -23 -35 -19 0 4 -5 0 -11 -10 -6 -9 -14 -15 -19 -12 -4 3 -10 -2 -14 -10 -3 -8 -12 -15 -21 -15 -8 0 -15 -4 -15 -10 0 -5 -7 -10 -15 -10 -8 0 -15 -4 -15 -9 0 -5 -10 -11 -23 -15 -13 -3 -44 -21 -70 -41 -25 -19 -51 -35 -56 -35 -6 0 -11 -5 -11 -11 0 -5 -5 -7 -10 -4 -6 3 -13 -1 -16 -10 -4 -9 -13 -14 -20 -11 -8 3 -14 -1 -14 -9 0 -8 -7 -15 -15 -15 -8 0 -15 -4 -15 -8 0 -4 -16 -14 -35 -21 -19 -7 -40 -18 -47 -24 -33 -30 -86 -66 -92 -60 -3 4 -6 1 -6 -6 0 -7 -4 -10 -8 -7 -5 3 -15 -4 -22 -15 -8 -10 -23 -19 -34 -19 -11 0 -16 -3 -13 -7 4 -3 -12 -15 -35 -25 -22 -10 -47 -26 -54 -36 -7 -9 -14 -13 -14 -9 0 4 -10 -2 -22 -13 -13 -12 -40 -29 -61 -37 -21 -9 -36 -18 -33 -21 3 -3 -16 -16 -42 -29 -26 -14 -51 -31 -57 -37 -5 -7 -26 -21 -45 -31 -40 -20 -80 -54 -80 -68 0 -5 11 -20 25 -33 14 -13 25 -21 25 -19 0 3 9 -4 20 -15 11 -11 27 -20 35 -20 8 0 15 -4 15 -10 0 -5 7 -10 15 -10 8 0 15 -4 15 -10 0 -5 5 -10 11 -10 6 0 28 -13 48 -29 20 -15 46 -32 59 -35 12 -4 20 -11 18 -15 -3 -4 15 -16 40 -27 24 -10 44 -22 44 -26 0 -5 7 -8 15 -8 8 0 15 -4 15 -10 0 -5 7 -10 15 -10 8 0 15 -4 15 -10 0 -5 7 -10 15 -10 7 0 18 -8 24 -17 5 -10 13 -15 16 -11 4 4 12 2 19 -3 6 -5 25 -21 41 -34 17 -14 40 -28 52 -31 12 -3 24 -12 27 -21 3 -8 10 -12 14 -9 5 3 18 -4 30 -14 12 -11 25 -20 30 -20 5 0 20 -10 34 -22 14 -13 31 -24 37 -26 7 -1 22 -12 34 -23 12 -11 32 -22 44 -25 13 -4 23 -10 23 -15 0 -5 6 -9 14 -9 8 0 17 -7 20 -16 3 -8 10 -13 15 -10 5 3 14 -1 21 -9 7 -8 19 -15 27 -15 8 0 11 -4 8 -10 -3 -5 1 -10 9 -10 9 0 16 -5 16 -11 0 -5 4 -8 9 -5 4 3 21 -6 37 -19 16 -14 39 -28 52 -31 12 -4 22 -10 22 -14 0 -4 8 -11 18 -14 28 -10 62 -32 57 -37 -9 -10 53 -1 72 10 11 5 23 8 26 4 4 -3 9 2 13 11 3 9 12 16 20 16 8 0 14 4 14 8 0 5 20 17 44 27 25 10 43 21 41 25 -2 3 10 12 26 19 17 7 42 24 56 37 13 12 31 20 39 17 8 -3 14 1 14 11 0 9 6 16 14 16 8 0 16 4 18 8 2 4 21 17 43 27 22 11 41 25 43 30 2 6 10 9 18 7 8 -2 14 2 14 8 0 5 7 10 15 10 8 0 15 4 15 10 0 5 16 17 35 26 19 9 35 20 35 25 0 5 7 9 15 9 8 0 15 3 15 8 0 4 20 16 44 26 25 11 43 24 40 28 -5 7 0 9 21 8 3 0 17 11 32 24 15 14 30 23 35 20 4 -3 11 2 14 10 3 9 10 13 15 10 5 -3 12 2 15 10 3 9 10 14 14 11 5 -3 12 1 17 8 4 7 23 19 40 26 18 7 45 24 60 37 16 13 34 24 41 24 6 0 12 5 12 10 0 6 7 10 15 10 9 0 18 7 21 15 4 8 10 12 15 9 5 -3 12 2 15 10 3 9 15 16 25 16 10 0 19 3 19 8 0 4 18 16 40 26 22 10 37 23 34 27 -2 4 5 13 16 19 11 6 20 17 20 24 0 15 -42 56 -58 56 -7 0 -12 5 -12 10 0 6 -7 10 -15 10 -9 0 -18 7 -22 16 -3 8 -12 13 -20 10 -8 -3 -12 -2 -8 3 3 5 -8 15 -25 23 -16 7 -30 16 -30 20 0 5 -5 8 -11 8 -6 0 -26 12 -45 26 -19 15 -34 23 -34 18 0 -4 -9 2 -20 14 -12 12 -25 22 -30 22 -5 0 -15 6 -22 13 -24 22 -67 47 -83 47 -9 0 -13 5 -10 10 3 6 -1 10 -9 10 -8 0 -19 7 -24 16 -5 9 -11 15 -13 14 -10 -4 -56 20 -76 39 -12 12 -27 21 -32 21 -6 0 -22 11 -37 25 -15 14 -35 25 -45 25 -11 0 -18 6 -17 13 2 6 -5 11 -14 9 -10 -2 -18 2 -18 7 0 5 -22 22 -50 37 -27 15 -50 31 -50 36 0 4 -9 8 -21 8 -11 0 -18 4 -15 9 3 5 -14 17 -38 27 -24 10 -42 22 -40 26 5 7 -10 12 -28 9 -5 0 -8 4 -8 9 0 6 -7 10 -15 10 -8 0 -15 5 -15 10 0 6 -6 10 -13 10 -8 0 -22 9 -32 20 -10 11 -22 20 -27 20 -4 0 -27 14 -50 30 -22 17 -47 30 -55 30 -7 0 -13 5 -13 10 0 6 -13 10 -30 10 -16 0 -30 -4 -30 -10z m636 -392 c329 -211 601 -387 602 -391 4 -11 -1200 -778 -1213 -773 -5 2 -253 158 -550 348 -297 189 -568 361 -603 382 -34 22 -61 40 -60 41 2 1 158 101 348 223 190 121 462 294 605 386 143 91 262 166 265 166 3 0 276 -172 606 -382z"/> <path d="M1410 1570 c-108 -19 -193 -66 -276 -152 -47 -48 -110 -136 -102 -143 2 -1 41 2 88 7 263 29 601 -69 831 -242 l54 -40 3 76 c12 303 -286 549 -598 494z m166 -21 c82 -14 95 -19 88 -31 -3 -5 2 -9 12 -8 30 3 48 1 41 -6 -4 -4 15 -17 41 -30 26 -13 44 -24 40 -24 -4 0 21 -29 57 -66 40 -40 65 -73 65 -87 0 -18 2 -19 10 -7 7 11 10 5 11 -25 0 -30 2 -35 8 -20 7 18 8 17 14 -7 4 -15 4 -35 1 -45 -4 -13 -3 -14 4 -5 11 16 22 -27 22 -84 0 -31 -2 -33 -24 -25 -13 5 -47 25 -77 44 -30 19 -78 47 -108 61 -29 15 -65 39 -80 52 -17 17 -36 24 -56 23 -30 -2 -69 5 -115 21 -59 21 -247 42 -340 38 -44 -2 -80 1 -80 5 0 19 26 54 64 90 23 20 37 37 31 37 -5 0 8 9 30 20 22 11 46 20 55 20 13 0 13 1 0 10 -11 7 -7 10 18 10 19 0 31 4 27 10 -6 10 7 14 85 29 64 12 88 12 156 0z m99 -318 c7 -12 -12 -24 -25 -16 -11 7 -4 25 10 25 5 0 11 -4 15 -9z"/> <path d="M1001 1252 c-7 -13 -11 -28 -8 -35 2 -7 9 -2 16 11 7 13 11 28 8 35 -2 7 -9 2 -16 -11z"/> <path d="M1100 1243 c0 -20 3 -24 9 -14 5 7 14 10 20 7 7 -5 11 1 11 13 0 14 -6 21 -20 21 -15 0 -20 -7 -20 -27z"/> <path d="M1160 1251 c0 -24 13 -33 35 -25 23 9 14 38 -13 42 -16 3 -22 -2 -22 -17z m38 -2 c-2 -6 -8 -10 -13 -10 -5 0 -11 4 -13 10 -2 6 4 11 13 11 9 0 15 -5 13 -11z"/> <path d="M1230 1245 c0 -20 5 -25 23 -24 19 1 19 2 3 6 -15 4 -16 7 -5 14 12 7 12 9 -1 10 -10 0 -8 3 5 9 19 8 19 9 -2 9 -18 1 -23 -5 -23 -24z"/> <path d="M1290 1246 c0 -18 5 -23 18 -21 9 2 20 4 25 4 10 1 9 31 -2 31 -5 0 -12 -6 -14 -12 -3 -8 -6 -6 -6 5 -1 26 -21 20 -21 -7z"/> <path d="M1040 1240 c0 -13 7 -20 20 -20 13 0 20 7 20 20 0 13 -7 20 -20 20 -13 0 -20 -7 -20 -20z"/> <path d="M1393 1235 c-3 -9 -3 -18 -1 -21 9 -9 35 7 35 21 0 20 -26 19 -34 0z"/> <path d="M1493 1223 c-3 -10 -8 -21 -9 -24 -5 -9 46 2 51 12 3 4 -4 13 -15 19 -17 9 -21 8 -27 -7z"/> <path d="M1557 1213 c-11 -10 -8 -35 3 -28 6 4 8 11 5 16 -4 5 -1 9 5 9 7 0 10 -7 7 -15 -4 -8 -2 -17 2 -20 14 -8 21 21 8 34 -13 13 -21 14 -30 4z"/> <path d="M1053 1201 c-24 -4 -46 -10 -50 -14 -12 -13 -15 -172 -4 -228 35 -168 170 -320 337 -380 77 -28 233 -31 314 -6 82 26 158 73 222 139 51 53 118 162 118 193 0 20 -156 129 -253 178 -175 87 -301 117 -502 122 -77 2 -159 0 -182 -4z m47 -47 c0 -8 -6 -14 -14 -14 -18 0 -29 27 -13 33 16 6 27 -1 27 -19z m295 5 c116 -20 204 -51 220 -75 12 -18 21 -22 43 -18 31 6 128 -40 213 -102 63 -46 78 -89 19 -52 -26 17 -55 0 -56 -33 -1 -67 -29 -99 -67 -78 -10 6 -20 4 -30 -5 -8 -8 -17 -13 -20 -10 -10 10 -47 -7 -47 -22 0 -23 -28 -16 -32 9 -2 14 -10 22 -23 22 -28 0 -33 -35 -5 -42 12 -3 19 -11 16 -18 -2 -7 2 -21 9 -32 11 -14 17 -16 32 -7 10 7 17 19 17 28 -2 15 27 18 41 4 11 -10 14 -67 5 -73 -5 -3 -6 -13 -3 -21 5 -13 1 -15 -14 -10 -14 5 -23 1 -27 -10 -4 -11 -14 -15 -31 -12 -14 3 -26 0 -29 -8 -4 -11 -33 -14 -119 -14 -62 0 -117 4 -122 9 -6 5 -23 11 -40 13 -16 2 -29 8 -28 14 1 7 -6 10 -17 7 -14 -4 -20 0 -20 11 0 9 -7 16 -15 16 -14 0 -39 17 -77 53 -10 9 -22 17 -28 17 -5 0 -10 5 -10 11 0 7 -11 22 -25 35 -14 13 -25 26 -25 29 1 21 -1 25 -10 20 -16 -10 -12 48 6 73 8 12 21 21 28 20 7 -2 27 12 46 30 25 26 30 36 21 45 -9 9 -11 8 -6 -5 4 -11 2 -18 -4 -18 -6 0 -11 8 -12 18 0 10 -3 12 -6 5 -3 -8 -14 -11 -29 -7 -21 5 -27 2 -36 -23 -9 -24 -17 -30 -38 -29 -18 1 -26 6 -23 14 3 6 0 12 -6 12 -12 0 -15 26 -3 33 4 2 1 2 -5 1 -10 -3 -13 18 -13 78 0 68 2 79 14 69 11 -9 15 -9 18 1 4 11 8 11 21 0 12 -10 21 -11 36 -2 12 6 21 15 21 21 0 5 9 13 20 17 27 10 180 5 255 -9z m-251 -223 c-6 -16 -34 -17 -34 -1 0 17 10 24 25 18 8 -2 12 -10 9 -17z m-64 -41 c0 -8 -7 -15 -15 -15 -16 0 -20 12 -8 23 11 12 23 8 23 -8z m790 -19 c-7 -7 -14 -6 -22 2 -10 10 -10 15 2 22 17 11 34 -10 20 -24z m26 -40 c1 -7 -5 -13 -12 -13 -15 0 -19 19 -7 30 8 8 16 1 19 -17z m-33 -41 c-7 -19 -19 -19 -26 -1 -3 8 -1 17 6 19 18 6 27 -2 20 -18z m-96 -21 c-9 -9 -28 6 -21 18 4 6 10 6 17 -1 6 -6 8 -13 4 -17z m-137 1 c0 -8 -7 -15 -15 -15 -8 0 -15 7 -15 15 0 8 7 15 15 15 8 0 15 -7 15 -15z m187 -11 c-9 -9 -28 6 -21 18 4 6 10 6 17 -1 6 -6 8 -13 4 -17z m-107 1 c0 -8 -4 -15 -9 -15 -13 0 -22 16 -14 24 11 11 23 6 23 -9z m150 -5 c0 -17 -56 -73 -67 -67 -14 9 -4 47 12 47 7 0 18 7 25 15 14 17 30 20 30 5z m-88 -32 c-12 -12 -35 -1 -27 12 3 5 13 6 21 3 10 -4 12 -9 6 -15z m-102 -12 c0 -7 -7 -13 -15 -13 -15 0 -20 18 -9 30 9 9 24 -2 24 -17z m97 -42 c-9 -9 -28 6 -21 18 4 6 10 6 17 -1 6 -6 8 -13 4 -17z"/> <path d="M1283 1059 c-17 -17 -4 -39 22 -39 13 0 25 6 28 14 6 15 -11 36 -28 36 -6 0 -16 -5 -22 -11z m37 -20 c0 -5 -7 -9 -15 -9 -15 0 -20 12 -9 23 8 8 24 -1 24 -14z"/> <path d="M1477 1004 c-4 -4 -7 -16 -7 -26 0 -10 -7 -18 -17 -19 -11 0 -13 -3 -5 -6 14 -5 17 -33 3 -33 -5 0 -12 7 -15 16 -4 9 -9 14 -12 11 -8 -8 38 -67 52 -67 7 0 16 5 20 12 5 8 2 9 -9 5 -9 -3 -19 -2 -22 3 -4 6 0 10 8 10 10 0 13 7 10 20 -6 22 12 28 20 8 3 -8 6 -6 6 5 1 25 19 21 23 -5 4 -28 45 -38 54 -14 8 22 -15 48 -37 41 -13 -4 -18 0 -21 17 -3 23 -36 37 -51 22z m35 -26 c-6 -6 -16 -7 -22 -3 -9 6 -9 9 1 16 17 10 34 0 21 -13z m60 -50 c-10 -10 -15 -10 -22 2 -6 9 -5 17 3 22 18 11 33 -10 19 -24z"/> <path d="M1214 903 c-3 -10 -10 -29 -15 -42 -11 -27 10 -59 30 -46 22 13 42 77 30 91 -16 19 -39 17 -45 -3z m36 -17 c0 -7 -7 -13 -15 -13 -15 0 -20 18 -9 30 9 9 24 -2 24 -17z"/> <path d="M1481 861 c-17 -17 -19 -25 -11 -41 14 -25 46 -26 60 -1 7 15 5 25 -9 42 l-18 22 -22 -22z m37 -35 c-3 -15 -5 -16 -23 -2 -17 13 -18 17 -5 25 18 12 33 -1 28 -23z"/> <path d="M1277 819 c-21 -12 -22 -32 -2 -49 19 -16 55 -3 55 20 0 25 -30 41 -53 29z m36 -35 c-3 -7 -10 -12 -16 -11 -18 3 -27 21 -15 28 17 11 38 -1 31 -17z"/> <path d="M1621 1190 c-17 -10 -7 -40 13 -40 7 0 16 6 19 14 8 19 -15 37 -32 26z"/> <path d="M1673 1154 c-9 -23 14 -42 30 -25 10 11 9 13 -5 8 -12 -4 -18 -1 -18 9 0 10 6 14 15 10 8 -3 15 -1 15 4 0 16 -30 11 -37 -6z"/> <path d="M1730 1130 c-8 -16 -8 -18 5 -14 8 3 12 11 8 17 -3 5 -1 7 5 4 5 -4 8 -17 5 -30 -4 -18 -3 -19 6 -7 15 21 14 37 -4 44 -9 3 -19 -3 -25 -14z"/> <path d="M1786 1104 c-9 -24 -7 -31 10 -38 15 -6 15 -4 3 11 -12 15 -12 16 4 10 11 -4 16 -3 12 3 -3 6 0 10 7 10 9 0 9 3 -2 10 -21 13 -27 12 -34 -6z"/> <path d="M1845 1070 c4 -6 11 -8 16 -5 5 3 6 -1 3 -10 -5 -13 -9 -13 -23 -3 -13 10 -13 8 1 -7 19 -21 23 -20 32 13 6 18 4 22 -14 22 -12 0 -18 -4 -15 -10z"/> <path d="M1897 1031 c-5 -22 0 -31 19 -31 8 0 11 6 7 17 -5 12 -3 14 8 8 12 -8 12 -6 0 8 -18 22 -28 21 -34 -2z"/> <path d="M1943 994 c-9 -23 13 -40 32 -24 12 10 13 16 4 26 -15 18 -28 18 -36 -2z m27 -9 c0 -8 -4 -15 -10 -15 -5 0 -10 7 -10 15 0 8 5 15 10 15 6 0 10 -7 10 -15z"/> <path d="M2017 978 c-15 -39 -16 -48 -6 -48 13 0 22 24 16 47 -4 17 -4 17 -10 1z"/> </g> </svg> 