<?xml version="1.0" standalone="no"?>
<!DOCTYPE svg PUBLIC "-//W3C//DTD SVG 20010904//EN"
 "http://www.w3.org/TR/2001/REC-SVG-20010904/DTD/svg10.dtd">
<svg version="1.0" xmlns="http://www.w3.org/2000/svg"
 width="300.000000pt" height="225.000000pt" viewBox="0 0 300.000000 225.000000"
 preserveAspectRatio="xMidYMid meet">
<metadata>
Created by potrace 1.10, written by Peter Selinger 2001-2011
</metadata>
<g transform="translate(0.000000,225.000000) scale(0.100000,-0.100000)"
fill="#fcb026" stroke="none">
<path d="M1785 2015 c-74 -40 -114 -107 -115 -191 0 -58 24 -119 93 -236 l45
-77 -155 -213 c-85 -117 -169 -229 -188 -248 -53 -56 -215 -280 -215 -299 0
-30 -22 -41 -80 -41 -49 0 -60 -4 -85 -30 -25 -26 -36 -30 -81 -30 -53 0 -270
-52 -287 -69 -12 -12 -2 -40 15 -46 7 -2 49 -7 93 -11 72 -6 77 -8 50 -17 -16
-6 -86 -22 -155 -37 -111 -23 -125 -29 -128 -48 -4 -26 21 -38 98 -48 59 -8
72 -19 30 -28 -16 -3 -84 -27 -150 -53 -103 -40 -120 -50 -120 -69 0 -27 17
-34 80 -34 31 0 52 -5 61 -16 10 -12 26 -14 83 -9 39 3 102 2 140 -3 52 -7 93
-5 172 9 87 14 124 15 219 7 l114 -9 66 36 c61 35 69 36 107 27 45 -12 58 -9
58 13 0 10 7 11 28 6 20 -6 26 -13 24 -28 -3 -19 4 -22 67 -28 39 -4 74 -8 78
-9 5 0 9 9 11 20 5 32 52 30 52 -2 0 -23 2 -24 81 -24 70 0 80 2 75 16 -3 9
-6 20 -6 26 0 7 -7 5 -17 -3 -29 -24 -123 -12 -123 15 0 7 24 11 70 12 39 0
70 -4 70 -8 0 -4 14 -8 30 -8 23 0 30 -4 30 -20 0 -24 16 -25 95 -5 70 19 72
20 55 40 -10 12 -8 16 16 25 24 9 31 8 41 -6 13 -17 15 -17 46 1 66 39 97 68
85 83 -16 19 26 62 44 44 9 -9 22 4 56 55 38 56 42 67 29 75 -23 12 -1 61 23
53 13 -4 21 5 33 37 27 74 31 108 13 108 -24 0 -22 60 2 67 17 4 18 10 8 76
-9 57 -15 72 -28 71 -22 -2 -47 54 -28 66 9 6 2 23 -30 69 -42 62 -42 62 -30
112 11 43 17 52 49 65 42 18 87 58 107 96 19 36 19 190 0 226 -33 64 -97 99
-199 110 -65 7 -86 15 -157 57 -87 52 -135 102 -179 181 -14 26 -43 61 -64 78
-35 28 -47 31 -115 34 -56 2 -85 -1 -107 -13z m181 -25 c33 -17 53 -36 81 -83
85 -139 233 -243 370 -258 79 -9 130 -32 157 -73 11 -17 16 -52 17 -120 1
-111 -13 -142 -84 -177 -57 -29 -77 -48 -77 -75 0 -13 -5 -26 -10 -29 -18 -11
-7 -47 32 -107 31 -46 36 -61 29 -80 l-9 -23 -10 25 c-6 14 -29 50 -52 80 -28
37 -39 61 -36 75 3 11 11 46 17 78 12 58 13 59 64 81 29 13 65 40 83 61 27 34
31 45 28 92 -4 92 -56 141 -163 153 -137 15 -302 121 -369 238 -39 68 -93 121
-130 128 -35 6 -86 -13 -122 -46 -11 -10 -23 -16 -28 -12 -4 4 -4 2 -1 -4 4
-6 -2 -29 -12 -50 l-19 -38 33 -75 c43 -101 101 -202 126 -219 19 -13 18 -15
-15 -55 -18 -23 -54 -72 -79 -109 -25 -37 -51 -73 -56 -80 -27 -33 -61 -79
-106 -143 -27 -38 -53 -71 -57 -73 -4 -2 -8 -10 -8 -18 0 -17 -10 -17 -32 0
-17 12 -17 14 0 34 9 12 27 36 40 54 13 18 61 84 108 147 46 63 84 118 84 121
0 3 9 16 21 29 11 12 27 33 34 47 13 26 10 64 -6 64 -5 0 -9 7 -9 15 0 8 -7
23 -16 33 -31 36 -88 177 -90 222 -7 140 141 233 272 170z m-21 -60 c18 -11
41 -37 50 -58 65 -139 263 -282 393 -282 29 0 66 -7 82 -15 61 -32 94 -108 70
-165 -16 -39 -75 -90 -103 -90 -41 0 -56 -22 -73 -105 -8 -44 -18 -83 -20 -87
-2 -3 21 -39 51 -79 89 -119 112 -223 80 -364 l-17 -77 -45 6 c-25 3 -56 6
-69 6 -22 0 -22 0 -6 33 11 21 17 55 16 102 0 59 -5 81 -34 140 -39 78 -131
182 -225 253 -33 25 -64 49 -69 53 -5 4 31 62 79 128 86 120 99 154 60 158
-16 2 -93 -97 -368 -475 -191 -262 -352 -484 -357 -492 -5 -8 -11 -12 -14 -10
-6 7 -86 149 -86 154 0 2 8 6 19 9 10 2 67 69 126 147 103 138 107 145 102
184 -5 34 -1 47 27 86 220 305 281 388 344 465 40 50 79 89 85 87 6 -2 53 -28
104 -58 l93 -54 -6 -44 c-10 -70 3 -113 47 -157 37 -37 69 -51 69 -29 0 6 -18
28 -39 48 -48 46 -61 95 -38 153 l15 39 -118 70 c-66 39 -126 73 -133 76 -9 3
-36 -22 -73 -70 -33 -41 -63 -74 -67 -73 -5 2 -38 56 -75 122 -54 96 -67 128
-66 160 2 100 105 157 189 105z m191 -517 c-19 -27 -63 -88 -96 -138 -34 -49
-68 -94 -75 -100 -7 -5 -22 -24 -32 -40 -10 -17 -58 -84 -107 -150 -153 -205
-192 -259 -212 -290 -10 -16 -37 -53 -59 -81 -61 -78 -79 -101 -95 -124 -8
-12 -28 -39 -43 -59 -16 -20 -35 -48 -43 -63 -13 -25 -12 -26 24 -41 61 -24
136 -44 150 -40 19 7 14 -11 -6 -24 -12 -7 -32 -8 -53 -4 -28 6 -47 1 -112
-32 -43 -21 -80 -37 -83 -35 -2 3 13 13 33 24 53 27 65 45 47 65 -16 18 -16
18 -144 48 -120 27 -201 49 -206 54 -5 5 84 11 136 8 100 -3 250 44 250 79 0
6 11 15 23 21 13 6 31 24 41 39 9 16 22 35 29 42 7 7 35 45 62 83 54 77 186
257 275 375 58 78 183 250 235 325 52 74 78 105 87 105 4 0 -7 -21 -26 -47z
m48 -394 c120 -124 159 -240 120 -348 -17 -50 -18 -51 -53 -46 -20 3 -146 12
-281 20 -135 8 -268 18 -297 21 l-52 6 87 117 c47 64 131 178 185 253 l100
137 59 -42 c33 -23 92 -76 132 -118z m-633 -13 c10 -21 3 -35 -67 -131 -107
-145 -133 -175 -154 -175 -26 0 -52 38 -40 60 10 18 163 224 188 253 22 25 60
22 73 -7z m994 -158 c3 -29 1 -49 -5 -53 -16 -10 -22 -1 -31 52 -4 27 -10 59
-13 73 l-6 24 25 -24 c16 -17 26 -41 30 -72z m-10 -158 c2 -11 0 -22 -6 -25
-5 -4 -9 -19 -9 -36 0 -19 -5 -29 -15 -29 -8 0 -15 -4 -15 -10 0 -5 -6 -10
-14 -10 -8 0 -17 -8 -19 -17 -4 -14 -5 -13 -6 4 0 12 7 28 17 35 9 7 19 20 20
28 23 96 27 108 35 94 4 -8 10 -23 12 -34z m-1253 -2 c-5 -5 -16 -6 -26 -2
-13 5 -14 9 -5 20 9 11 15 12 26 3 8 -7 10 -16 5 -21z m38 -19 c0 -5 -4 -7
-10 -4 -5 3 -10 4 -10 1 0 -13 42 -101 65 -133 34 -52 33 -71 -7 -77 -230 -36
-294 -43 -362 -40 -43 1 -83 7 -87 11 -5 5 43 61 108 126 l116 116 86 4 c47 1
89 4 94 5 4 1 7 -3 7 -9z m730 -64 c184 -14 348 -25 363 -25 l28 0 -37 -57
c-95 -151 -205 -216 -412 -243 -102 -13 -293 -1 -417 26 -38 8 -96 20 -128 26
-38 8 -56 16 -53 24 3 7 46 67 96 135 51 68 95 129 97 136 4 10 21 12 67 8 33
-3 212 -17 396 -30z m-1014 3 c-13 -22 -25 -22 -54 -2 -12 8 -27 12 -32 9 -6
-3 -10 -2 -10 4 0 6 22 9 53 8 49 -2 53 -4 43 -19z m-116 -7 c0 -5 -7 -11 -15
-15 -34 -13 -2 -38 57 -45 6 0 -11 -23 -38 -51 -31 -32 -52 -46 -58 -40 -15
15 -50 12 -72 -6 -18 -15 -17 -15 18 -10 34 4 67 -12 52 -27 -8 -8 -76 4 -91
16 -9 6 -13 6 -13 -1 0 -32 87 -54 113 -28 14 14 18 14 44 1 l28 -15 -33 0
c-18 0 -51 -9 -75 -19 -23 -11 -64 -27 -92 -37 -27 -9 -57 -23 -66 -31 -8 -7
-24 -13 -35 -13 -18 1 -18 1 1 16 11 8 38 20 60 26 41 12 55 24 55 45 0 15
-73 40 -122 42 -10 1 -18 5 -18 10 0 8 12 11 110 26 25 4 59 13 77 21 17 8 40
14 50 14 11 0 27 8 36 18 15 17 15 19 -3 34 -12 11 -40 18 -74 19 -90 4 -88
22 4 34 8 1 26 7 40 13 31 13 60 15 60 3z m59 -26 c-11 -11 -25 -13 -49 -8
-29 5 -31 8 -15 14 11 4 33 8 50 8 26 1 28 -1 14 -14z m1481 -66 c0 -27 -48
-89 -69 -89 -34 -1 -83 -62 -60 -76 7 -4 -7 -18 -33 -35 -42 -27 -47 -28 -72
-15 l-28 14 37 18 c50 24 138 106 176 165 32 49 49 55 49 18z m-1289 -189
c213 -52 213 -52 169 -73 -30 -15 -51 -16 -146 -8 -87 7 -130 5 -209 -8 -133
-21 -276 -10 -291 23 -8 19 -2 24 76 55 82 33 140 47 206 50 17 0 104 -17 195
-39z m989 -40 c0 -5 -4 -10 -10 -10 -5 0 -10 -9 -10 -20 0 -14 -7 -20 -21 -20
-11 0 -30 -5 -41 -11 -17 -9 -24 -7 -41 10 -26 25 -21 30 34 37 24 3 50 9 58
14 21 12 31 12 31 0z m-1563 -18 c-10 -10 -17 -26 -17 -35 0 -13 -7 -16 -32
-13 -18 3 -42 5 -52 5 -27 1 -14 11 47 38 64 27 75 28 54 5z m1162 -9 c11 -9
-31 -36 -56 -36 -33 0 -85 23 -90 40 -3 9 14 10 69 6 40 -3 75 -8 77 -10z
m-1099 -12 c14 -28 -13 -55 -41 -41 -22 12 -25 30 -7 48 18 18 36 15 48 -7z
m48 -39 c2 -7 -2 -10 -12 -6 -9 3 -16 11 -16 16 0 13 23 5 28 -10z m395 11
c-13 -2 -33 -2 -45 0 -13 2 -3 4 22 4 25 0 35 -2 23 -4z m85 0 c-10 -2 -28 -2
-40 0 -13 2 -5 4 17 4 22 1 32 -1 23 -4z m-188 -13 c0 -5 -17 -9 -37 -9 -38 1
-38 1 -8 9 43 11 45 11 45 0z m-222 -7 c-10 -2 -28 -2 -40 0 -13 2 -5 4 17 4
22 1 32 -1 23 -4z m135 -10 c-7 -2 -19 -2 -25 0 -7 3 -2 5 12 5 14 0 19 -2 13
-5z"/>
<path d="M1808 1901 c-28 -25 -33 -36 -33 -75 0 -36 6 -51 29 -75 24 -25 38
-31 74 -31 37 0 50 6 78 34 38 38 43 70 19 116 -34 67 -111 81 -167 31z m29
-24 c-18 -18 -36 -31 -40 -29 -5 2 6 19 24 38 18 18 36 31 40 29 4 -3 -7 -20
-24 -38z m98 13 c30 -34 11 -36 -24 -3 -27 25 -30 31 -13 26 11 -3 28 -13 37
-23z m-20 -30 c38 -42 -17 -106 -64 -74 -25 18 -27 56 -5 78 21 22 47 20 69
-4z m40 -67 c-15 -30 -45 -52 -45 -33 0 6 4 10 9 10 6 0 18 13 27 30 23 38 29
33 9 -7z m-117 -20 c9 -7 12 -16 8 -20 -10 -10 -46 34 -46 56 1 13 3 12 12 -4
6 -11 17 -26 26 -32z m52 -23 c0 -5 -4 -10 -10 -10 -5 0 -10 5 -10 10 0 6 5
10 10 10 6 0 10 -4 10 -10z"/>
<path d="M2350 1543 c-40 -27 -49 -45 -50 -91 0 -37 6 -50 34 -78 39 -39 80
-45 126 -18 32 19 60 63 60 94 0 29 -26 76 -52 94 -30 21 -87 20 -118 -1z m27
-28 c-20 -14 -37 -30 -37 -35 0 -6 -5 -10 -11 -10 -17 0 14 43 42 57 41 22 45
14 6 -12z m84 3 c22 -19 36 -60 30 -85 -8 -32 -38 -63 -58 -63 -13 0 -9 7 15
26 40 32 42 67 5 106 -27 28 -21 39 8 16z m-23 -24 c47 -33 9 -107 -46 -88
-37 13 -43 65 -10 88 28 20 28 20 56 0z m-98 -69 c0 -8 15 -24 33 -35 28 -17
29 -20 10 -20 -12 0 -31 12 -42 26 -23 29 -27 44 -11 44 6 0 10 -7 10 -15z"/>
<path d="M1337 381 l-29 -38 -41 12 c-23 7 -57 15 -76 19 -33 6 -34 6 -17 -13
12 -14 38 -22 83 -27 57 -6 66 -4 84 14 10 12 19 25 19 31 0 5 6 11 13 14 8 3
9 8 2 15 -7 7 -19 -1 -38 -27z"/>
<path d="M1471 983 c-12 -24 1 -46 25 -41 13 2 19 12 19 28 0 30 -30 39 -44
13z m34 -13 c3 -5 -1 -10 -10 -10 -9 0 -13 5 -10 10 3 6 8 10 10 10 2 0 7 -4
10 -10z"/>
<path d="M1394 875 c-8 -21 2 -45 19 -45 20 0 40 27 33 45 -7 19 -45 20 -52 0z
m36 -9 c0 -3 -4 -8 -10 -11 -5 -3 -10 -1 -10 4 0 6 5 11 10 11 6 0 10 -2 10
-4z"/>
<path d="M1320 775 c-10 -12 -10 -18 0 -30 17 -20 37 -19 49 3 18 34 -24 57
-49 27z"/>
<path d="M1251 650 c-18 -11 -9 -44 13 -48 23 -5 38 10 31 31 -8 19 -28 28
-44 17z m29 -20 c0 -5 -4 -10 -10 -10 -5 0 -10 5 -10 10 0 6 5 10 10 10 6 0
10 -4 10 -10z"/>
<path d="M1320 515 c-17 -20 -5 -45 20 -45 11 0 23 7 26 15 6 15 -11 45 -26
45 -4 0 -13 -7 -20 -15z"/>
<path d="M1130 495 c-10 -12 -10 -18 0 -30 20 -25 55 -15 55 15 0 30 -35 40
-55 15z m40 -15 c0 -5 -4 -10 -10 -10 -5 0 -10 5 -10 10 0 6 5 10 10 10 6 0
10 -4 10 -10z"/>
<path d="M2198 479 c-35 -18 -37 -21 -26 -44 13 -30 17 -30 60 -7 18 9 34 18
36 18 5 2 -21 54 -27 54 -3 -1 -23 -10 -43 -21z m32 -24 c-7 -8 -20 -15 -29
-15 -13 1 -13 3 3 15 26 19 42 19 26 0z"/>
<path d="M1480 441 c-14 -27 -15 -26 36 -46 51 -19 49 -20 57 16 6 23 3 27
-32 37 -49 15 -48 15 -61 -7z m50 -22 c0 -6 -4 -7 -10 -4 -5 3 -10 11 -10 16
0 6 5 7 10 4 6 -3 10 -11 10 -16z"/>
<path d="M2040 427 c-25 -5 -47 -11 -48 -13 -2 -1 -1 -16 3 -32 l6 -30 57 15
c31 8 58 16 60 18 2 1 0 14 -4 29 -7 28 -8 28 -74 13z m45 -27 c-3 -5 -11 -10
-16 -10 -6 0 -7 5 -4 10 3 6 11 10 16 10 6 0 7 -4 4 -10z"/>
<path d="M1630 411 c0 -10 -2 -26 -6 -34 -4 -11 9 -16 57 -21 33 -4 62 -6 64
-4 1 2 5 15 9 29 6 25 3 27 -42 33 -26 4 -55 9 -64 12 -13 4 -18 0 -18 -15z
m90 -31 c0 -5 -2 -10 -4 -10 -3 0 -8 5 -11 10 -3 6 -1 10 4 10 6 0 11 -4 11
-10z"/>
<path d="M1810 375 l0 -31 65 0 65 1 0 31 0 31 -65 0 -65 -1 0 -31z m57 -1
c-3 -3 -12 -4 -19 -1 -8 3 -5 6 6 6 11 1 17 -2 13 -5z m40 0 c-3 -3 -12 -4
-19 -1 -8 3 -5 6 6 6 11 1 17 -2 13 -5z"/>
</g>
</svg>
