<?xml version="1.0" standalone="no"?>
<!DOCTYPE svg PUBLIC "-//W3C//DTD SVG 20010904//EN"
 "http://www.w3.org/TR/2001/REC-SVG-20010904/DTD/svg10.dtd">
<svg version="1.0" xmlns="http://www.w3.org/2000/svg"
 width="300.000000pt" height="357.000000pt" viewBox="0 0 300.000000 357.000000"
 preserveAspectRatio="xMidYMid meet">
<metadata>
Created by potrace 1.10, written by Peter Selinger 2001-2011
</metadata>
<g transform="translate(0.000000,357.000000) scale(0.100000,-0.100000)"
fill="#fcb026" stroke="none">
<path d="M1745 3210 c-13 -15 -31 -20 -65 -20 -30 0 -50 -5 -53 -13 -3 -7 -55
-41 -116 -76 -105 -59 -140 -91 -87 -77 18 4 59 -15 172 -80 82 -48 265 -153
407 -235 l257 -148 -54 -30 -54 -31 -78 46 c-44 26 -227 132 -409 236 -181
104 -333 194 -336 200 -9 14 -512 -271 -574 -325 -52 -45 -120 -144 -136 -198
-7 -21 -16 -39 -21 -39 -23 0 38 130 89 189 28 33 32 41 14 32 -27 -15 -97
-121 -112 -170 -11 -39 -39 -146 -155 -601 -274 -1071 -262 -1033 -326 -1061
-42 -18 -48 -97 -9 -129 3 -3 11 -14 17 -24 15 -28 31 -30 39 -6 10 31 37 56
95 85 39 20 50 31 50 49 0 13 -6 26 -14 29 -20 8 -8 57 15 57 10 0 21 -4 24
-10 3 -5 -3 -10 -14 -10 -12 0 -21 -5 -21 -11 0 -7 10 -9 25 -7 29 6 30 0 10
-66 -8 -27 -15 -55 -15 -62 0 -7 28 -28 63 -46 l62 -33 79 44 79 44 19 -23
c24 -30 23 -42 -7 -70 -33 -31 -33 -67 0 -80 14 -5 64 -33 111 -61 69 -42 88
-49 95 -38 5 8 9 16 9 19 0 3 -41 27 -91 54 -126 69 -124 68 -108 94 8 12 19
22 24 22 6 0 126 -66 266 -147 140 -80 278 -159 307 -175 28 -16 52 -33 52
-37 0 -14 -36 -41 -53 -41 -28 0 -19 -29 11 -36 42 -10 90 -43 104 -71 15 -31
38 -42 38 -18 0 9 3 15 8 13 4 -2 19 -10 35 -18 25 -12 30 -11 57 8 16 12 103
65 193 116 90 52 250 144 355 205 105 61 202 115 216 121 14 5 26 17 26 25 0
9 31 73 69 143 37 70 95 179 128 242 33 63 106 202 162 308 107 202 145 282
137 289 -2 3 4 13 14 23 19 19 19 25 5 110 -2 14 -4 51 -4 83 -1 31 -5 57 -10
57 -5 0 -7 -39 -5 -87 1 -49 1 -81 -1 -73 -4 15 -29 338 -40 515 -7 119 -14
210 -21 265 -3 25 -2 41 3 37 4 -5 16 -95 25 -200 15 -174 16 -181 12 -67 -8
227 -22 349 -44 394 -11 23 -20 52 -20 65 0 12 -7 36 -16 52 -13 27 -19 30
-47 24 -18 -4 -38 -14 -44 -23 -11 -14 -16 -14 -46 3 -21 11 -37 29 -43 48
-13 42 -94 88 -123 70 -28 -17 -33 -16 -27 5 7 22 -31 49 -47 33 -20 -20 -29
-12 -22 19 6 26 4 30 -14 30 -12 0 -21 -4 -21 -10 0 -19 -22 -10 -124 49 -209
120 -201 114 -204 149 -2 24 -11 36 -33 47 -17 9 -29 24 -29 35 0 28 -60 28
-85 0z m77 -25 c4 -5 8 -20 8 -32 0 -22 -1 -22 -29 -5 -28 15 -30 24 -22 71 1
5 34 -21 43 -34z m-72 -30 c40 -12 231 -128 241 -147 5 -10 18 -18 29 -18 17
0 223 -108 293 -155 24 -16 30 -16 38 -4 7 11 9 11 9 -3 0 -10 11 -25 25 -34
14 -9 22 -21 18 -27 -4 -7 0 -8 11 -4 11 4 29 -1 46 -13 15 -11 40 -24 55 -30
32 -12 26 -20 -27 -38 -35 -12 -39 -11 -110 31 -93 56 -432 251 -605 348 -72
41 -134 79 -137 86 -3 7 1 10 9 7 8 -3 22 -1 32 5 10 6 25 9 33 6 8 -2 26 -7
40 -10z m-88 -46 c80 -51 729 -426 752 -435 9 -3 16 -9 16 -13 0 -3 -34 -25
-76 -49 -67 -38 -78 -42 -92 -29 -10 8 -188 112 -397 232 -336 192 -448 260
-395 241 8 -4 44 12 80 34 36 21 68 39 72 40 4 0 22 -9 40 -21z m-200 -227
c191 -113 542 -314 615 -354 35 -18 63 -36 63 -40 0 -15 -31 -8 -68 16 -20 13
-143 85 -272 159 -129 74 -295 169 -368 211 l-133 76 -44 -26 c-45 -26 -64
-45 -24 -24 11 7 23 10 25 7 3 -2 -95 -66 -217 -142 -122 -76 -232 -147 -246
-159 l-24 -21 36 -2 c33 -1 49 11 24 19 -6 2 99 74 234 161 l246 157 143 -83
c79 -46 240 -139 358 -207 118 -68 232 -133 254 -146 36 -21 37 -23 18 -33
-17 -9 -26 -7 -49 15 -27 25 -43 27 -88 9 -19 -8 -19 -8 -2 12 18 20 18 21 -5
37 -12 9 -33 16 -46 16 -25 0 -192 -103 -192 -119 0 -13 46 -41 69 -41 25 0
32 12 20 30 -6 10 -9 11 -9 3 0 -7 -4 -13 -10 -13 -15 0 -12 39 4 56 19 18 26
18 26 -1 0 -8 5 -15 11 -15 5 0 9 8 7 18 -3 22 18 52 38 52 19 0 22 -42 4 -61
-8 -9 -26 -22 -38 -28 -13 -7 -21 -15 -19 -18 3 -2 29 12 57 31 47 32 70 43
70 32 0 -2 -29 -23 -65 -46 -36 -23 -65 -47 -65 -54 0 -12 39 -40 46 -33 3 2
-2 10 -11 17 -13 11 -13 15 6 31 30 26 36 24 41 -11 3 -20 0 -30 -9 -30 -7 0
-13 -5 -13 -10 0 -6 -11 -16 -25 -22 -20 -9 -28 -8 -44 6 -10 9 -28 18 -39 19
-18 1 -98 -42 -151 -82 -30 -23 -20 -41 22 -40 l32 1 -30 7 c-30 6 -29 7 43
54 40 26 77 45 83 42 5 -4 9 -16 9 -29 0 -17 -10 -28 -42 -42 -41 -18 -54 -28
-129 -93 -32 -28 -42 -31 -54 -21 -11 9 -18 10 -29 1 -11 -9 -15 -5 -20 21 -3
17 -2 34 3 37 158 103 221 149 221 162 0 18 -49 43 -72 37 -31 -8 -267 -164
-270 -179 -3 -14 -6 -14 -33 3 l-30 18 30 0 c21 0 69 26 155 83 68 45 125 87
127 92 4 15 -63 49 -79 40 -87 -49 -268 -172 -268 -182 0 -11 -6 -10 -30 2
-36 19 -38 24 -7 18 15 -2 61 21 145 75 155 99 153 98 123 123 -13 10 -33 19
-45 19 -22 0 -268 -153 -274 -171 -2 -5 2 -17 10 -26 9 -11 -1 -8 -29 8 -43
24 -43 24 -15 29 15 3 65 30 112 60 47 31 102 66 123 79 20 12 37 29 37 36 0
17 -38 45 -60 45 -14 0 -200 -114 -265 -163 -20 -15 -20 -15 0 -38 20 -22 14
-21 -34 10 -18 11 -20 16 -9 20 29 12 248 155 243 159 -2 3 -55 -28 -117 -67
-97 -63 -117 -72 -145 -68 -22 4 -31 2 -27 -4 7 -12 -40 11 -71 34 -19 15 -19
15 6 10 20 -4 56 14 157 79 72 45 131 88 132 95 0 16 -40 43 -65 42 -11 0 -78
-38 -150 -83 -99 -63 -129 -87 -127 -101 3 -17 2 -17 -20 -3 -12 8 -25 26 -26
39 -6 35 -23 51 -50 46 -16 -3 -31 3 -47 19 l-24 24 41 35 c54 46 73 46 22 0
l-39 -36 50 34 c28 19 65 42 83 52 19 9 31 19 28 22 -3 3 -22 -5 -42 -18 -21
-12 -34 -17 -30 -11 4 7 26 22 48 33 22 11 37 16 33 10 -3 -6 -3 -11 0 -11 9
0 285 161 285 166 0 5 -52 -21 -100 -51 -56 -34 -176 -99 -168 -90 20 21 356
213 375 214 12 1 82 -34 155 -77z m-172 38 c-24 -15 -37 -11 -16 5 11 8 22 12
25 9 3 -3 -1 -9 -9 -14z m1144 -117 c14 -14 25 -28 22 -30 -7 -7 -76 39 -70
48 9 15 20 11 48 -18z m197 -85 c21 -24 25 -53 7 -44 -7 3 -21 9 -31 12 -11 4
-16 13 -13 21 3 8 6 19 6 24 0 15 11 10 31 -13z m-12 -58 c41 -20 82 -88 80
-132 -1 -21 -2 -20 -14 7 -26 59 -70 79 -135 62 -21 -6 -29 -1 -47 28 l-21 34
26 10 c42 15 69 13 111 -9z m-1423 -24 c10 -8 17 -16 14 -18 -3 -2 -59 -38
-125 -80 -89 -56 -128 -75 -151 -74 -19 0 -31 6 -30 13 2 13 243 173 262 173
5 0 19 -6 30 -14z m1314 -49 c-1 -9 -558 -339 -751 -443 -21 -12 -54 -33 -74
-48 -42 -32 -110 -129 -94 -135 6 -2 18 7 27 20 46 67 102 107 340 243 176
101 255 141 258 132 3 -7 3 -38 1 -67 l-3 -54 -2 57 -2 57 -32 -18 c-382 -215
-481 -276 -523 -323 -25 -28 -45 -54 -45 -60 0 -5 -8 -7 -18 -4 -20 7 -31 -17
-56 -119 -7 -33 -30 -123 -51 -200 -20 -77 -60 -234 -90 -350 -30 -115 -77
-300 -106 -410 -69 -271 -72 -287 -59 -336 13 -46 5 -59 -38 -59 -27 0 -52 49
-52 103 0 33 64 306 115 492 13 50 54 207 90 350 36 143 70 274 74 290 5 17
12 41 15 55 4 20 11 26 33 25 l28 0 3 83 c3 80 3 82 28 82 14 0 22 4 19 10 -3
6 2 10 12 10 15 0 16 2 3 10 -8 5 -24 10 -35 10 -15 0 -17 -2 -6 -9 11 -7 9
-12 -10 -21 -13 -7 -27 -18 -31 -24 -4 -6 -10 -8 -13 -4 -4 3 2 15 12 25 11
11 23 27 26 37 16 42 81 127 124 162 l46 38 23 -30 c26 -32 33 -21 9 13 -17
25 -51 2 400 263 127 73 259 150 295 171 l65 38 23 -25 c12 -14 22 -30 22 -37z
m-1766 -51 c1 -6 17 -19 36 -30 29 -17 33 -17 21 -3 -7 9 -10 17 -7 17 4 0 4
5 0 11 -4 8 -9 7 -15 -2 -7 -11 -9 -11 -9 2 0 9 6 19 14 22 10 4 19 -7 29 -36
7 -23 20 -42 28 -42 8 0 30 -10 49 -21 19 -12 143 -84 275 -160 132 -76 246
-146 254 -157 11 -15 15 -16 22 -6 13 21 11 32 -6 25 -8 -3 -15 -1 -15 5 0 17
45 6 45 -11 1 -23 28 -67 33 -52 4 13 42 17 42 5 0 -5 -6 -16 -13 -25 -12 -15
-23 -11 -118 46 -130 78 -350 205 -546 316 -145 82 -150 86 -148 115 2 17 4
32 5 35 2 6 23 -41 24 -54z m1873 29 c12 -9 25 -31 29 -50 3 -19 12 -35 19
-35 14 0 19 -38 35 -290 6 -85 17 -237 25 -338 18 -217 17 -202 6 -202 -6 0
-12 21 -14 48 -3 31 -4 23 -4 -26 0 -76 -8 -99 -24 -69 -15 26 -44 21 -73 -14
-37 -44 -31 -109 10 -109 19 0 27 33 9 42 -18 11 -19 30 -3 46 9 9 15 9 26 -1
13 -10 15 -9 10 10 -5 20 -4 21 13 12 28 -14 24 -39 -6 -39 -14 0 -25 -5 -25
-11 0 -6 7 -9 15 -5 15 6 21 -15 8 -28 -4 -4 -8 -13 -8 -19 -2 -18 -54 -127
-61 -127 -3 0 -3 15 0 33 5 27 2 38 -19 57 -27 25 -33 68 -16 113 5 14 35 53
65 87 31 34 56 72 56 83 0 11 6 25 13 31 10 8 12 28 6 81 l-7 70 1 -67 c0 -38
-3 -71 -6 -75 -4 -3 -7 -2 -7 3 0 5 -4 59 -10 119 -14 159 -19 217 -26 335
-14 236 -21 290 -39 310 -10 11 -25 20 -33 20 -10 0 -8 -5 6 -17 18 -15 22
-37 31 -148 20 -252 23 -320 14 -312 -4 5 -7 11 -5 13 6 10 -30 36 -43 30 -23
-9 -18 -24 15 -41 42 -21 46 -36 54 -160 4 -60 9 -134 13 -162 3 -33 2 -53 -4
-53 -6 0 -90 46 -187 102 l-177 101 5 101 c3 56 8 127 11 159 4 34 3 63 -3 70
-14 17 -13 162 1 179 14 17 203 128 218 128 6 0 8 4 5 9 -14 22 51 27 81 6z
m-1916 -18 c-5 -7 -12 -34 -15 -62 -5 -50 -5 -50 6 -12 11 36 25 45 44 28 5
-5 68 -42 139 -83 72 -41 195 -113 275 -160 80 -46 191 -111 248 -142 56 -32
104 -61 106 -65 2 -3 -2 -14 -9 -24 -13 -18 -14 -18 -24 1 -5 10 -99 70 -208
132 -109 63 -266 153 -350 202 -83 48 -159 88 -169 88 -10 0 -28 -10 -41 -22
-13 -12 -23 -16 -23 -9 0 7 -4 9 -10 6 -5 -3 -10 -13 -10 -21 0 -8 5 -12 10
-9 15 9 13 2 -30 -150 -23 -77 -99 -349 -171 -605 -118 -422 -147 -513 -150
-470 -1 16 -39 -108 -39 -125 0 -5 5 -3 10 5 28 43 -11 -186 -41 -242 -14 -25
-28 -22 -23 5 4 16 1 14 -10 -8 -27 -57 -30 -70 120 513 25 97 56 218 69 267
72 276 121 468 159 616 27 108 46 165 54 163 7 -1 8 0 2 3 -15 7 -12 23 5 23
18 0 20 17 3 22 -8 3 0 30 25 82 22 46 41 75 47 71 7 -4 8 -11 1 -18z m1964
-7 c17 -33 19 -50 6 -50 -5 0 -11 10 -14 23 -2 12 -8 30 -12 40 -12 29 3 19
20 -13z m-1279 -14 c10 -8 16 -17 13 -20 -22 -22 -244 -156 -258 -156 -10 0
-24 7 -31 15 -10 12 -2 20 47 52 106 68 197 123 203 123 3 0 15 -6 26 -14z
m543 -20 c10 -12 8 -17 -9 -26 -25 -13 -25 -13 -34 18 -6 17 -3 22 12 22 11 0
25 -6 31 -14z m-444 -40 c18 -13 16 -15 -26 -41 -24 -15 -73 -47 -109 -70
-101 -66 -106 -68 -137 -52 l-26 14 84 54 c46 30 101 66 124 81 46 31 64 33
90 14z m526 -6 c10 -6 19 -14 19 -19 0 -4 -29 -26 -64 -48 -52 -33 -66 -38
-70 -26 -13 34 -5 52 37 77 48 29 51 30 78 16z m-981 -185 c135 -78 281 -163
326 -189 44 -25 89 -55 99 -66 26 -29 13 -62 -37 -90 -43 -24 -231 -143 -418
-265 -56 -37 -107 -68 -113 -71 -7 -2 -34 16 -62 41 -80 72 -85 71 -173 -26
-91 -98 -129 -146 -167 -214 -16 -27 -40 -66 -54 -85 -14 -19 -26 -39 -26 -44
0 -5 -5 -11 -12 -13 -8 -3 -9 6 -3 29 16 68 95 353 190 688 54 190 104 364
110 388 6 24 20 52 31 63 23 23 -9 39 309 -146z m720 145 c0 -21 -15 -27 -25
-10 -7 12 2 30 16 30 5 0 9 -9 9 -20z m-175 -2 c14 -6 25 -14 25 -17 0 -6
-206 -139 -240 -155 -22 -10 -73 0 -68 14 2 7 246 169 255 170 1 0 14 -5 28
-12z m692 -180 c-4 -10 -14 -15 -22 -12 -12 5 -15 23 -13 88 l2 81 3 -77 c2
-43 7 -78 11 -78 4 0 6 31 4 70 -2 38 0 78 4 87 11 23 22 -135 11 -159z
m-1671 147 c-5 -15 -65 -247 -191 -740 -68 -267 -106 -415 -177 -685 -22 -85
-43 -168 -47 -185 -6 -25 -12 -31 -40 -33 -39 -4 -57 9 -46 35 6 17 8 16 15
-4 6 -15 15 -20 29 -16 12 3 21 9 21 13 0 5 3 15 6 23 4 12 0 14 -17 10 -15
-4 -20 -3 -15 5 4 7 16 12 27 12 10 0 19 3 19 6 0 4 27 113 61 243 33 130 73
286 89 346 16 61 47 182 70 270 65 252 180 705 180 710 0 3 5 5 11 5 6 0 9 -7
5 -15z m1087 -29 c16 -13 15 -15 -15 -34 -18 -11 -72 -44 -120 -75 -52 -33
-90 -51 -95 -46 -6 6 -21 4 -37 -5 -15 -7 -22 -16 -16 -19 6 -3 5 -4 -2 -3
-15 4 -11 38 5 48 7 4 62 38 122 77 61 39 117 71 125 70 8 0 23 -6 33 -13z
m500 -528 c-2 -271 -5 -498 -7 -505 -3 -7 -10 -13 -15 -13 -5 0 -101 -53 -213
-118 -112 -65 -279 -163 -373 -217 -93 -54 -182 -106 -197 -117 -14 -10 -34
-18 -43 -18 -13 0 -16 -6 -13 -24 4 -18 1 -23 -9 -19 -8 3 -12 11 -10 17 3 7
24 88 48 181 23 93 45 163 47 157 2 -6 -13 -72 -32 -147 -35 -132 -44 -180
-25 -140 5 11 50 182 100 380 50 198 108 428 129 510 21 83 37 152 34 154 -6
6 -8 -2 -171 -637 -14 -56 -28 -100 -31 -98 -4 5 147 612 184 739 8 25 37 21
66 -10 21 -23 26 -39 27 -87 2 -76 17 -105 66 -133 61 -33 125 -39 155 -15 24
19 25 25 25 139 0 137 -8 156 -68 183 -95 42 -167 31 -167 -24 0 -12 -3 -25
-6 -29 -8 -8 -44 15 -44 28 0 31 77 86 285 205 127 73 234 136 240 141 5 5 11
9 15 9 3 0 4 -222 3 -492z m57 331 c0 -27 -4 -49 -10 -49 -6 0 -11 -102 -13
-272 l-3 -273 -1 315 c0 173 2 320 4 327 10 27 23 0 23 -48z m42 -16 c-10 -38
-10 -37 -10 22 -1 49 1 56 10 38 7 -15 7 -33 0 -60z m-14 -336 c-2 -125 0
-229 5 -231 4 -3 2 -3 -5 -2 -10 2 -13 72 -14 322 -1 241 1 297 7 229 5 -49 8
-192 7 -318z m-14 -247 c14 0 27 -32 40 -95 5 -20 4 -25 -3 -16 -7 11 -10 10
-14 -5 -2 -10 -5 7 -6 38 -1 47 -4 58 -21 63 -19 6 -20 14 -18 278 l3 272 2
-267 c3 -222 6 -268 17 -268z m-417 392 c13 -8 26 -25 29 -38 5 -21 9 -23 22
-12 13 11 14 7 8 -36 -5 -33 -4 -46 3 -41 7 4 11 -7 11 -32 -1 -37 -1 -37 -14
-14 -9 17 -23 25 -47 27 l-34 2 28 -11 c25 -10 27 -15 27 -65 l0 -55 -45 6
c-54 8 -101 30 -114 55 -14 26 -24 92 -14 92 4 0 13 -10 18 -22 6 -14 21 -24
36 -26 15 -2 39 -16 55 -33 29 -31 54 -38 54 -16 0 8 -11 24 -25 37 -28 26
-34 17 -8 -12 9 -10 14 -18 11 -18 -2 0 -17 14 -34 32 -19 20 -23 29 -11 25
13 -5 17 -1 17 16 0 38 13 49 43 38 15 -6 27 -7 27 -3 0 9 -93 41 -134 45 -34
4 -52 26 -43 51 14 37 85 41 134 8z m-187 -12 c8 -5 12 -11 9 -14 -3 -3 -14 1
-25 9 -21 16 -8 20 16 5z m80 -84 c0 -5 -13 3 -30 19 -16 16 -30 33 -30 39 0
5 14 -3 30 -19 17 -16 30 -33 30 -39z m-320 20 c0 -34 -2 -35 -177 -137 -98
-56 -206 -120 -241 -141 -34 -21 -69 -38 -77 -38 -37 0 -17 23 68 75 50 31
118 73 149 93 32 20 95 60 140 88 46 29 94 61 108 73 14 11 26 20 28 21 1 0 2
-15 2 -34z m27 -28 c-2 -13 -4 -5 -4 17 -1 22 1 32 4 23 2 -10 2 -28 0 -40z
m41 43 c21 -13 12 -95 -10 -99 -15 -3 -18 5 -18 52 0 56 4 63 28 47z m322 -46
c0 -22 -13 -24 -37 -5 -16 12 -19 20 -11 28 14 14 48 -3 48 -23z m625 -57 c33
-19 93 -54 133 -77 l73 -42 -31 -29 c-58 -55 -82 -166 -40 -192 11 -7 20 -18
20 -23 0 -9 -155 -310 -166 -324 -2 -2 -24 7 -49 20 -44 23 -45 25 -45 71 0
26 -4 50 -10 53 -5 3 -10 46 -10 95 0 49 5 92 10 95 6 3 10 33 10 65 0 32 -4
62 -10 65 -6 4 -10 65 -10 151 l0 146 33 -20 c17 -10 59 -35 92 -54z m-668 36
c11 -11 13 -18 5 -26 -12 -12 -42 11 -42 31 0 16 19 13 37 -5z m-341 -36 c-10
-50 -50 -93 -128 -136 -60 -33 -90 -42 -166 -52 -51 -6 -95 -10 -97 -8 -3 4
376 225 389 227 5 1 6 -13 2 -31z m-20 -93 c-3 -9 -11 -13 -16 -10 -8 5 -7 11
1 21 14 18 24 11 15 -11z m-624 -42 c10 -9 18 -19 18 -22 0 -4 -38 -41 -84
-84 -79 -72 -86 -76 -110 -66 l-25 12 77 87 c42 49 83 89 91 89 8 1 23 -6 33
-16z m613 7 c3 -6 0 -13 -8 -16 -9 -3 -14 -21 -14 -49 0 -25 -3 -48 -6 -52 -7
-7 -81 30 -105 52 -12 10 -4 18 40 43 57 32 83 38 93 22z m-535 -75 c34 -35
34 -35 15 -53 -11 -10 -49 -46 -85 -80 l-65 -61 -39 33 -39 32 84 82 c46 45
86 82 90 82 3 0 20 -16 39 -35z m390 -3 c0 -12 -230 -33 -249 -22 -14 7 -14 9
-1 14 36 13 250 20 250 8z m-233 -49 c45 -26 45 -26 22 -39 -21 -11 -26 -9
-46 12 -12 13 -27 24 -33 24 -5 0 -10 7 -10 15 0 21 15 19 67 -12z m1723 17
c0 -17 -31 -72 -37 -67 -7 7 19 77 29 77 4 0 8 -5 8 -10z m-1427 -23 c47 -26
50 -54 5 -61 -86 -13 -106 -13 -140 -2 -20 7 -58 26 -85 42 l-48 29 50 6 c101
13 178 8 218 -14z m-387 -12 c16 -24 16 -26 -12 -47 -16 -12 -56 -48 -90 -80
l-60 -58 -10 28 c-10 25 -6 31 70 104 45 42 82 77 83 78 2 0 10 -11 19 -25z
m1324 -34 c0 -26 -4 -51 -9 -56 -6 -6 -12 -32 -14 -60 -2 -27 -3 0 -1 60 3
129 2 118 14 110 6 -3 10 -28 10 -54z m31 -181 c2 -41 9 -97 16 -124 7 -27 11
-52 8 -54 -3 -3 -5 1 -6 9 -1 8 -5 3 -9 -11 -6 -19 -8 -9 -9 37 -1 52 -4 63
-21 68 -18 6 -20 14 -18 98 l2 92 3 -87 c6 -145 18 -99 17 59 -2 130 -1 138 6
68 5 -44 10 -114 11 -155z m-1201 169 c0 -5 -11 -11 -25 -15 -14 -3 -22 -10
-19 -15 3 -5 -1 -9 -8 -9 -15 0 -45 17 -38 22 52 34 90 41 90 17z m-157 -65
c-27 -24 -51 -43 -55 -44 -10 0 -88 -101 -88 -113 0 -6 24 16 54 49 30 33 75
77 100 98 l46 38 38 -23 c20 -12 72 -45 114 -72 l77 -48 -50 -64 c-28 -36 -48
-69 -44 -75 3 -5 -10 -33 -30 -62 -19 -29 -35 -58 -35 -65 0 -7 -4 -13 -10
-13 -19 0 -10 24 31 77 22 30 39 57 36 60 -3 2 -24 -22 -47 -55 l-42 -59 -107
71 c-58 40 -114 77 -124 82 -12 7 -20 27 -24 61 l-6 52 94 90 c83 80 95 88
107 74 10 -15 5 -23 -35 -59z m222 55 c20 -12 33 -24 30 -27 -6 -7 -75 30 -75
40 0 12 5 10 45 -13z m-495 -40 c39 -28 75 -59 80 -69 11 -21 10 -93 -2 -101
-4 -3 -6 -19 -2 -35 5 -24 22 -39 97 -84 51 -30 124 -81 164 -112 40 -32 81
-58 90 -58 10 0 37 11 60 24 63 36 80 40 85 18 4 -15 0 -17 -21 -15 -16 2 -36
-5 -51 -18 -14 -11 -19 -18 -11 -14 23 12 81 17 81 7 0 -15 -20 -20 -67 -17
-38 2 -46 -1 -68 -31 -15 -19 -24 -38 -20 -43 8 -14 -9 -21 -25 -11 -12 7 -12
12 -2 22 19 19 14 42 -13 68 -14 13 -25 30 -25 37 0 8 -5 11 -10 8 -6 -4 -24
5 -40 19 -17 14 -72 51 -122 82 -120 74 -121 75 -114 127 14 97 8 115 -51 157
-26 19 -57 42 -67 52 -11 10 -23 18 -28 18 -4 0 -8 5 -8 10 0 19 21 10 90 -41z
m1939 -175 c-66 -124 -119 -230 -119 -235 0 -6 -5 -7 -10 -4 -6 3 -13 -2 -17
-11 -4 -10 -24 -48 -45 -84 -21 -36 -43 -83 -49 -105 -9 -32 -13 -36 -20 -22
-6 9 -8 21 -4 26 3 5 -2 16 -10 25 -15 15 -19 100 -5 91 16 -10 140 87 135
105 -2 8 7 35 21 60 26 47 23 18 -3 -35 -9 -16 -11 -25 -6 -20 6 6 41 69 78
140 115 222 156 295 165 295 4 0 -46 -102 -111 -226z m-1465 193 c17 -13 17
-14 -8 -30 -23 -15 -29 -16 -52 -4 l-27 14 24 16 c28 20 40 21 63 4z m-555 -7
c17 -9 13 -20 -44 -132 -34 -68 -64 -130 -67 -138 -5 -12 -8 -13 -19 -2 -11
10 -6 28 33 105 28 55 43 96 38 102 -5 6 -1 24 12 43 22 36 22 36 47 22z m762
-22 c-5 -13 -17 -44 -26 -70 -12 -36 -22 -48 -37 -48 -19 0 -133 64 -143 81
-3 4 8 15 23 25 25 17 85 29 159 33 30 1 32 -1 24 -21z m-676 -44 l47 -37 -7
-72 c-6 -67 -5 -74 18 -101 19 -22 23 -34 16 -47 -9 -15 -23 -9 -117 49 -59
37 -108 67 -109 68 -5 4 89 176 96 176 5 0 29 -16 56 -36z m1942 -11 c-2 -35
-93 -230 -103 -220 -2 2 19 48 47 101 28 53 49 99 47 102 -3 2 -40 -63 -83
-146 -42 -82 -81 -150 -86 -150 -4 0 19 51 52 113 33 61 74 140 92 175 17 34
32 62 33 62 1 0 2 -17 1 -37z m-2141 -90 c-15 -28 -25 -40 -26 -29 0 20 39 90
47 83 2 -3 -7 -27 -21 -54z m1761 25 c2 -19 -16 -33 -100 -80 -56 -32 -121
-69 -144 -83 -29 -18 -43 -22 -43 -13 0 7 63 49 140 92 77 44 137 82 135 84
-2 3 -64 -30 -136 -72 -73 -42 -136 -75 -140 -74 -7 3 269 167 281 168 3 0 6
-10 7 -22z m-1012 -53 c-15 -20 -25 -39 -22 -41 3 -3 20 15 38 40 18 26 40 46
51 46 10 0 18 -3 18 -6 0 -9 -122 -144 -130 -144 -4 0 -11 8 -14 17 -4 10 -4
14 0 10 8 -8 34 11 34 25 0 6 -7 4 -17 -3 -9 -8 -4 6 12 31 36 58 47 72 53 66
3 -3 -8 -22 -23 -41z m-789 -30 c-4 -40 -10 -50 -25 -40 -21 13 -9 75 14 75 9
0 12 -11 11 -35z m840 -55 c-22 -73 -24 -76 -85 -117 -40 -26 -73 -41 -92 -41
-16 1 -29 4 -29 8 0 17 83 120 96 120 11 0 3 -16 -25 -51 -23 -29 -41 -56 -41
-62 0 -14 10 -4 109 121 46 57 85 102 87 100 1 -2 -7 -37 -20 -78z m944 31 l0
-49 -87 -50 c-483 -271 -511 -291 -533 -371 -21 -80 -19 -104 3 -39 33 93 48
112 124 156 38 22 161 94 275 161 114 67 209 121 210 121 2 0 2 -108 2 -241
l-1 -241 -329 -189 c-181 -105 -332 -191 -336 -192 -6 -2 -88 109 -88 120 0 3
11 19 26 35 33 40 74 122 74 148 0 11 4 20 8 20 5 0 9 7 9 15 0 8 -4 12 -9 9
-4 -3 -8 17 -8 44 0 36 -5 54 -19 66 -45 41 -96 -20 -106 -124 -8 -84 7 -116
53 -114 l32 2 -36 -44 -36 -44 -65 93 -64 92 4 70 c5 81 -7 68 170 170 102 59
127 70 127 55 0 -21 36 -33 62 -19 21 11 23 32 5 48 -11 8 -17 5 -27 -14 -13
-25 -30 -34 -30 -16 0 17 12 41 21 41 4 0 58 29 120 65 61 36 127 67 145 69
42 5 57 14 50 31 -3 9 33 34 102 73 59 33 116 67 127 76 11 8 21 16 23 16 1 0
2 -22 2 -49z m50 -27 c0 -30 -4 -54 -10 -54 -5 0 -11 -57 -13 -137 -3 -127 -3
-123 -4 37 0 96 2 185 4 197 9 40 23 13 23 -43z m17 -26 c-2 -18 -4 -6 -4 27
0 33 2 48 4 33 2 -15 2 -42 0 -60z m-1577 -40 c52 -30 150 -85 217 -122 85
-47 120 -72 116 -82 -5 -14 -94 28 -223 106 -25 15 -94 55 -155 90 -60 35
-117 69 -126 77 -12 10 -18 10 -27 1 -7 -7 -12 -8 -12 -3 0 4 8 16 18 25 16
16 19 16 57 -10 22 -15 83 -51 135 -82z m-297 52 c23 -18 26 -19 29 -3 3 14 5
15 18 2 9 -8 29 -21 45 -30 17 -9 113 -65 215 -124 102 -59 214 -122 250 -141
95 -48 100 -53 59 -50 -20 2 -80 28 -140 61 -153 85 -390 225 -418 246 -13 10
-27 16 -32 13 -10 -6 -69 26 -69 38 0 14 16 9 43 -12z m205 -154 c136 -79 306
-176 377 -216 72 -40 138 -78 148 -84 34 -20 9 -95 -30 -96 -7 0 -13 10 -13
21 0 18 2 19 15 9 13 -11 15 -8 15 13 0 36 -15 41 -34 11 -17 -25 -14 -64 5
-64 5 0 9 -9 9 -20 0 -11 -2 -20 -5 -20 -2 0 -31 17 -64 38 -32 22 -73 45 -90
51 -21 9 -30 19 -28 33 1 12 -4 23 -12 26 -10 3 -12 0 -8 -12 4 -9 5 -16 3
-16 -14 0 -345 197 -363 215 -12 12 -52 39 -90 60 -99 56 -113 73 -113 147 0
50 3 59 16 54 8 -3 126 -71 262 -150z m1812 97 c2 -2 -1 -12 -8 -23 -9 -15 -9
-22 3 -34 13 -12 13 -15 -1 -20 -9 -4 -13 -2 -8 5 4 7 1 10 -7 7 -8 -3 -14
-10 -14 -16 0 -5 -4 -14 -9 -19 -5 -5 -6 -3 -2 5 10 16 -5 15 -31 -3 -21 -15
-22 -15 -21 52 0 88 8 98 56 70 20 -11 39 -22 42 -24z m-1579 -10 c92 -54 204
-142 193 -151 -4 -4 -9 -1 -11 6 -3 6 -9 12 -14 12 -5 0 -67 32 -138 71 -107
59 -128 73 -124 90 3 10 8 19 10 19 3 0 41 -21 84 -47z m1077 -2 c-7 -11 -16
-21 -20 -21 -12 0 -9 35 4 48 19 19 32 -3 16 -27z m-1293 9 c17 -11 23 -20 15
-20 -17 0 -71 39 -55 40 6 0 24 -9 40 -20z m1255 -12 c0 -12 -3 -19 -6 -16 -3
3 -47 -18 -97 -47 -257 -146 -433 -248 -441 -256 -6 -5 -16 -9 -23 -9 -25 0
-13 16 30 40 213 116 517 298 517 308 0 7 5 10 10 7 6 -3 10 -16 10 -27z m-35
13 c-21 -18 -487 -282 -491 -278 -5 5 476 286 491 287 6 0 6 -3 0 -9z m424
-256 c1 6 2 67 1 138 -1 84 2 127 9 127 10 0 19 -221 11 -260 -2 -8 -5 -51 -6
-95 -2 -44 -3 -84 -4 -88 0 -5 -4 -6 -9 -2 -5 3 -12 -3 -14 -12 -3 -10 -5 -2
-6 17 0 26 2 31 9 20 7 -10 10 9 10 62 0 42 -4 80 -10 83 -6 4 -9 60 -8 143
l2 137 6 -140 c3 -77 7 -135 9 -130z m-1506 176 c15 -8 27 -18 27 -23 0 -14
-14 -9 -45 18 -31 26 -28 27 18 5z m-310 -91 c26 -14 47 -31 47 -38 0 -15 -50
-215 -55 -220 -2 -3 -79 41 -93 54 -2 1 3 34 12 73 9 38 16 71 16 73 0 2 -15
12 -34 22 -33 17 -33 19 -24 54 14 53 15 53 51 29 18 -12 54 -33 80 -47z m462
8 c14 -6 25 -15 25 -20 0 -11 -7 -10 -40 7 -47 24 -34 36 15 13z m295 2 c11
-8 8 -9 -11 -4 -15 3 -30 1 -33 -5 -4 -6 0 -11 8 -11 9 0 16 -4 16 -10 0 -13
-6 -13 -31 1 -16 8 -18 13 -8 25 13 16 38 18 59 4z m-90 -50 c0 -34 -4 -42
-30 -55 -17 -9 -30 -11 -30 -5 0 5 -9 10 -20 10 -22 0 -25 7 -11 29 7 11 11
10 19 -4 12 -23 25 -14 46 30 9 19 19 35 21 35 3 0 5 -18 5 -40z m80 -12 c0
-24 -12 -58 -19 -54 -3 2 -7 -15 -8 -39 -1 -43 -22 -100 -23 -64 0 9 -23 28
-50 43 -28 15 -48 31 -46 35 3 4 23 13 45 21 29 9 41 19 41 32 0 15 5 17 25
12 25 -6 36 10 13 19 -8 3 -6 6 5 6 9 1 17 -5 17 -11z m-632 -65 l41 -61 -70
-40 c-38 -22 -69 -37 -69 -34 0 4 8 39 19 77 10 39 22 83 25 99 4 15 8 27 10
25 1 -2 21 -32 44 -66z m121 -35 c105 -61 129 -75 346 -197 98 -55 153 -97
142 -108 -2 -2 -53 25 -113 60 -163 95 -436 253 -460 265 -20 11 -41 42 -27
42 3 0 54 -28 112 -62z m-400 25 c-9 -11 -10 -14 -1 -9 6 4 12 4 12 -1 0 -8
-100 -67 -100 -59 0 18 22 56 32 56 7 0 24 9 38 20 29 22 39 18 19 -7z m1971
-39 c0 -30 -4 -54 -9 -54 -6 0 -11 -17 -13 -37 -2 -21 -3 0 -2 47 2 110 2 112
14 105 6 -3 10 -31 10 -61z m42 -21 c-10 -38 -10 -37 -10 22 -1 49 1 56 10 38
7 -15 7 -33 0 -60z m-1487 -88 c39 -21 74 -44 78 -52 4 -7 15 -13 23 -13 8 0
53 -22 100 -50 46 -27 107 -61 134 -75 28 -14 50 -29 50 -34 0 -4 16 -25 35
-45 40 -42 46 -66 13 -44 -13 8 -70 43 -128 77 -58 34 -112 66 -120 71 -8 5
-84 48 -168 96 -124 71 -159 95 -183 130 -16 23 -29 45 -29 48 0 3 28 -11 63
-32 34 -21 94 -55 132 -77z m-630 76 c3 -6 -4 -15 -15 -21 -13 -7 -20 -7 -20
0 0 5 -6 10 -14 10 -8 0 -18 5 -21 10 -4 6 8 10 29 10 19 0 37 -4 41 -9z
m1111 -67 c-6 -38 -6 -65 0 -82 6 -15 61 -99 123 -186 65 -93 108 -163 103
-168 -5 -5 -24 15 -47 49 -21 32 -73 108 -115 168 -42 61 -80 123 -83 140 -5
31 12 135 23 135 4 0 2 -25 -4 -56z m205 -55 c-16 -15 -20 -24 -12 -32 15 -15
14 -27 -4 -27 -8 0 -15 9 -15 19 0 11 -5 21 -12 23 -7 3 -9 12 -5 22 4 11 13
16 22 12 9 -3 18 1 22 10 4 11 9 12 16 5 8 -8 4 -17 -12 -32z m741 1 c17 -19
16 -20 -25 -44 -23 -13 -183 -106 -354 -205 -172 -100 -319 -184 -326 -186 -7
-3 -13 2 -14 13 -1 13 30 35 112 82 63 36 112 66 110 69 -2 2 -48 -22 -101
-53 -53 -31 -99 -55 -101 -52 -6 6 -34 -11 347 211 173 101 320 184 325 184 6
1 18 -8 27 -19z m-1098 -42 c9 -36 7 -39 -13 -28 -13 6 -17 17 -14 30 7 27 19
25 27 -2z m198 -166 c36 -53 88 -128 114 -166 l48 -68 -23 -19 c-13 -11 -27
-19 -31 -19 -5 0 -62 76 -128 169 l-120 170 29 6 c16 4 29 11 29 16 0 23 20 1
82 -89z m-16 -139 c21 -28 16 -35 -11 -17 -14 9 -22 20 -19 25 8 13 15 11 30
-8z m12 -47 c38 -24 68 -53 61 -60 -6 -5 -128 68 -129 77 0 14 31 7 68 -17z"/>
<path d="M1208 2824 c-49 -31 -88 -61 -88 -68 0 -18 58 -48 80 -41 15 5 20 2
20 -11 0 -21 28 -43 57 -44 26 0 193 105 193 121 0 18 -32 38 -59 39 -13 0
-60 -23 -104 -51 -43 -27 -81 -48 -83 -46 -2 2 33 28 78 57 l81 53 -27 24
c-15 12 -35 23 -44 23 -9 0 -56 -25 -104 -56z m128 22 c23 -17 27 -12 -63 -70
-77 -49 -90 -53 -117 -33 -16 12 -9 18 66 65 45 29 85 52 88 52 4 0 15 -6 26
-14z m104 -56 c20 -12 9 -22 -81 -76 -53 -31 -77 -40 -92 -35 -12 4 -22 12
-24 17 -4 11 146 104 167 104 8 0 22 -5 30 -10z"/>
<path d="M1400 2714 c-47 -30 -86 -61 -88 -68 -1 -7 13 -21 31 -31 35 -18 35
-18 78 8 81 48 143 92 146 104 4 13 -47 44 -69 42 -7 -1 -51 -25 -98 -55z
m125 24 c14 -6 25 -14 25 -17 -1 -8 -137 -92 -159 -98 -11 -3 -29 1 -41 7 -21
11 -18 15 61 66 46 29 85 54 86 54 1 0 14 -5 28 -12z"/>
<path d="M1040 2717 c-56 -29 -79 -50 -89 -79 -16 -47 -14 -58 14 -58 30 0
165 87 165 106 0 8 -13 20 -30 29 -35 18 -29 18 -60 2z m54 -23 c27 -10 19
-21 -49 -63 -68 -43 -85 -49 -84 -28 1 27 16 48 49 71 36 26 57 31 84 20z"/>
<path d="M1493 2657 c-45 -29 -82 -57 -83 -64 0 -16 40 -43 64 -43 19 0 175
94 188 114 10 15 -32 46 -62 45 -14 0 -62 -24 -107 -52z m141 20 c16 -12 9
-18 -68 -65 -46 -29 -89 -52 -93 -52 -5 0 -18 6 -28 14 -18 13 -13 17 60 65
85 54 101 59 129 38z"/>
<path d="M1598 2604 c-49 -31 -88 -62 -88 -69 0 -16 38 -45 58 -45 23 0 192
111 192 126 0 12 -49 44 -67 44 -4 0 -47 -26 -95 -56z m132 7 c-1 -17 -129
-101 -154 -101 -21 0 -46 11 -46 20 0 5 36 31 81 58 80 50 119 57 119 23z"/>
<path d="M860 2595 c0 -8 5 -15 10 -15 6 0 10 7 10 15 0 8 -4 15 -10 15 -5 0
-10 -7 -10 -15z"/>
<path d="M1200 2585 c-19 -12 -74 -48 -122 -79 -48 -31 -90 -61 -93 -67 -9
-14 4 -27 13 -13 4 5 62 45 130 89 111 70 126 77 150 68 15 -5 26 -15 25 -21
-4 -15 14 -16 23 0 10 16 -33 48 -65 47 -14 0 -42 -11 -61 -24z"/>
<path d="M1690 2545 c-46 -30 -86 -58 -88 -64 -5 -14 39 -41 65 -41 23 0 193
106 193 120 0 12 -48 40 -67 39 -10 0 -56 -25 -103 -54z m107 19 c4 -11 8 -12
13 -4 4 7 13 9 19 6 8 -5 7 -11 -2 -20 -6 -8 -15 -12 -18 -10 -4 2 -10 -4 -13
-13 -6 -15 -8 -15 -16 -3 -8 12 -10 11 -11 -5 0 -14 -3 -11 -10 9 -12 43 23
80 38 40z m-57 -47 c0 -28 -6 -37 -34 -52 -31 -17 -38 -17 -60 -5 -14 7 -24
15 -21 18 10 11 101 70 108 71 4 1 7 -14 7 -32z"/>
<path d="M1170 650 c20 -13 53 -13 45 0 -3 6 -18 10 -33 10 -21 0 -24 -2 -12
-10z"/>
<path d="M2654 2453 c2 -10 10 -103 17 -206 6 -103 16 -190 21 -193 5 -3 6 12
3 33 -6 46 -25 305 -25 351 0 17 -5 32 -11 32 -6 0 -8 -8 -5 -17z"/>
<path d="M2691 1986 c0 -35 3 -56 8 -50 4 5 5 32 1 59 l-7 50 -2 -59z"/>
<path d="M660 2491 c-5 -11 -15 -32 -21 -48 -15 -41 6 -15 25 30 16 39 14 50
-4 18z"/>
<path d="M637 2320 c-21 -73 -21 -100 -1 -45 15 42 28 105 21 105 -2 0 -11
-27 -20 -60z"/>
<path d="M574 2194 c-4 -10 -9 -22 -11 -26 -2 -5 0 -8 5 -8 10 0 24 41 17 48
-3 3 -8 -4 -11 -14z"/>
<path d="M567 2070 c-9 -35 -14 -66 -12 -68 5 -6 36 109 32 121 -2 6 -11 -18
-20 -53z"/>
<path d="M428 1608 c-64 -226 -111 -409 -106 -413 2 -2 16 42 32 98 16 56 40
140 54 187 13 47 26 96 28 110 2 14 12 52 24 84 23 67 23 66 12 66 -4 0 -24
-60 -44 -132z"/>
<path d="M250 940 c-11 -51 -19 -94 -17 -97 3 -2 15 37 27 87 11 51 19 94 17
97 -3 2 -15 -37 -27 -87z"/>
<path d="M550 1310 c-23 -45 -39 -84 -36 -87 2 -3 23 32 46 77 23 45 39 84 36
87 -2 3 -23 -32 -46 -77z"/>
<path d="M2049 879 c-30 -16 -64 -35 -76 -41 -14 -7 -23 -20 -23 -35 0 -20 -2
-22 -19 -12 -15 10 -28 6 -76 -21 -31 -18 -65 -47 -76 -64 -13 -21 -19 -25
-19 -13 0 21 -4 21 -35 1 -21 -14 -24 -21 -19 -58 8 -57 -8 -88 -44 -84 -26 3
-42 14 -42 32 0 5 6 3 13 -3 18 -14 43 5 51 41 8 35 -5 42 -43 21 -30 -18 -31
-19 -28 -88 2 -63 4 -70 24 -73 30 -4 102 43 116 77 10 24 14 26 25 14 11 -11
22 -9 73 18 33 18 68 42 77 54 10 12 22 20 28 18 15 -5 152 75 163 96 13 24
11 129 -3 141 -9 6 -29 0 -67 -21z m58 -28 c-3 -15 -1 -33 4 -38 19 -19 -12
-60 -76 -96 -35 -21 -67 -37 -70 -37 -8 0 -6 113 3 126 11 18 105 72 126 73
15 1 17 -4 13 -28z m-179 -88 c-2 -12 -14 -19 -35 -21 -42 -4 -93 -52 -93 -86
0 -51 51 -42 102 18 21 24 28 27 28 14 0 -25 -30 -53 -89 -83 -28 -14 -53 -25
-56 -25 -11 0 -4 107 8 124 15 20 106 76 125 76 8 0 12 -8 10 -17z m22 -27 c0
-8 -8 -17 -19 -21 -10 -3 -35 -21 -54 -40 -43 -41 -57 -44 -57 -10 0 18 10 31
32 45 17 10 35 17 40 14 4 -3 18 2 30 10 27 19 28 19 28 2z m-200 -103 c0 -63
-17 -93 -65 -120 -51 -29 -55 -29 -55 3 0 23 3 25 26 20 42 -11 64 17 64 79 0
28 3 55 7 58 16 16 23 4 23 -40z"/>
<path d="M2028 829 c-34 -18 -52 -49 -29 -49 20 0 81 43 81 56 0 18 -7 17 -52
-7z"/>
<path d="M2054 785 c-16 -13 -16 -14 -1 -9 28 10 20 -4 -13 -21 -22 -11 -30
-12 -30 -3 0 9 -3 9 -11 1 -6 -6 -9 -18 -7 -27 2 -13 11 -10 51 14 26 17 47
37 47 45 0 19 -11 19 -36 0z"/>
<path d="M360 1081 c0 -11 51 -41 70 -41 21 0 9 16 -22 30 -18 7 -36 15 -40
18 -5 2 -8 -1 -8 -7z"/>
<path d="M522 959 c2 -6 8 -10 13 -10 5 0 11 4 13 10 2 6 -4 11 -13 11 -9 0
-15 -5 -13 -11z"/>
<path d="M646 861 c-11 -18 6 -41 31 -41 20 0 24 4 21 23 -3 23 -41 37 -52 18z"/>
<path d="M721 830 c-7 -4 -11 -16 -9 -26 4 -21 35 -31 49 -17 21 21 -15 59
-40 43z"/>
<path d="M990 716 c0 -7 11 -18 25 -24 54 -25 63 -6 10 20 -27 14 -35 15 -35
4z"/>
<path d="M1110 794 c0 -7 6 -24 14 -38 l13 -27 7 23 c8 33 7 40 -5 32 -6 -3
-15 0 -20 7 -5 8 -9 9 -9 3z"/>
<path d="M480 720 c0 -11 5 -20 10 -20 6 0 10 9 10 20 0 11 -4 20 -10 20 -5 0
-10 -9 -10 -20z"/>
<path d="M2070 526 c-58 -35 -158 -93 -223 -131 -65 -37 -116 -70 -113 -72 2
-3 16 3 30 13 15 9 29 14 32 12 2 -3 -42 -32 -98 -64 -133 -75 -194 -114 -182
-114 12 0 683 387 699 402 7 7 2 8 -14 3 -16 -5 -21 -4 -17 4 12 20 -7 11
-114 -53z m105 36 c-21 -18 -367 -213 -371 -209 -5 5 357 217 371 217 6 0 6
-3 0 -8z"/>
<path d="M1350 3010 c-11 -7 -12 -12 -3 -21 15 -15 43 -5 43 16 0 17 -18 19
-40 5z"/>
<path d="M1395 2970 c-3 -5 3 -10 15 -10 12 0 18 5 15 10 -3 6 -10 10 -15 10
-5 0 -12 -4 -15 -10z"/>
<path d="M2138 2538 c9 -9 15 -9 24 0 9 9 7 12 -12 12 -19 0 -21 -3 -12 -12z"/>
<path d="M2743 2025 c0 -27 2 -38 4 -22 2 15 2 37 0 50 -2 12 -4 0 -4 -28z"/>
<path d="M2747 1931 c-2 -11 -1 -35 3 -53 7 -30 8 -28 9 20 1 54 -3 66 -12 33z"/>
<path d="M856 414 c-4 -9 -5 -18 -4 -19 4 -2 271 -157 279 -161 3 -2 3 10 1
27 -2 16 -7 29 -11 29 -4 0 -62 32 -129 70 -67 39 -123 70 -126 70 -2 0 -7 -7
-10 -16z"/>
<path d="M1155 270 c-8 -13 14 -42 26 -34 5 3 9 14 9 25 0 20 -24 26 -35 9z"/>
</g>
</svg>
