<svg version="1.1" id="Mini_Excavators_Icon" xmlns="http://www.w3.org/2000/svg"
    xmlns:xlink="http://www.w3.org/1999/xlink" x="0px" y="0px" viewBox="0 0 200 200"
    style="enable-background:new 0 0 200 200;" xml:space="preserve">
    <style type="text/css">
        .st1 {
            fill: none;
            stroke: #FCB026;
            stroke-width: 2.85;
            stroke-miterlimit: 5;
        }

        .st2 {
            fill: none;
            stroke: #FCB026;
            stroke-width: 2.85;
            stroke-miterlimit: 2;
        }

        .st3 {
            fill: none;
            stroke: #FCB026;
            stroke-width: 2.85;
            stroke-linejoin: round;
            stroke-miterlimit: 5;
        }

        .product-range-component .container:hover figure:hover .st1 .st2 .st3 {
            fill: none;
            stroke: #DD970C;
        }
    </style>
    <defs>
    </defs>
    <circle class="st1" cx="168.8" cy="136.8" r="2.3"></circle>
    <circle class="st1" cx="115" cy="136.8" r="2.3"></circle>
    <line class="st1" x1="117" y1="136.8" x2="166.5" y2="136.8"></line>
    <path class="st1" d="M123.5,103.5"></path>
    <path class="st1" d="M157.8,97.2"></path>
    <path class="st2" d="M118.3,124.8V111L88.8,91.8c0,0-10.9-8-25.4,1.4c-2.1,1.1-23.3,14.1-23.3,14.1l-5.9,3l-9.6-0.8l-1.4,1.8
        l4.4,8.5l43.9,20.1c0-4.1-0.2-4.6-0.4-6l-28.3-19.5c0,0,22.1-10.5,23.5-11c2.7-1,9.4-5.4,19.7-1s23.9,12.6,23.9,12.6s-0.8,1.5-3,5.5
        l8,4.8l9.8-0.1h46l1.5-7.7l-2.3-1.3l-0.1-9.9l1.1-1.9l-6.7-7h-4.2h-2.2v2.8v17.6h-23.5h-9.7l-1.3-12.9c0,0,1.5-18.1,2.5-25.8
        c0.9-7.2,6.8-7.3,6.8-7.3s8.9-0.4,17.1-0.8c8.2-0.4,8,6.6,8,6.6v19.8l-2.2,0.4l-13.5,2.5v2.2v15.3v-20V71.2">
    </path>
    <path class="st1" d="M93,130c0,0,4.8,7.4-0.5,14.4"></path>
    <line class="st1" x1="107.5" y1="134.5" x2="94.7" y2="134.5"></line>
    <line class="st1" x1="107.3" y1="138.8" x2="94.1" y2="141.5"></line>
    <path class="st2"
        d="M71.4,141.9l7.6-6.2l2.8-8.4c0,0,2.5-8.1-9.1-8.9c-3.8-0.2-12.5,0.3-12.5,0.3S73.4,123.8,71.4,141.9z">
    </path>
    <line class="st2" x1="118.3" y1="117.6" x2="124.7" y2="117.6"></line>
    <line class="st1" x1="131.6" y1="125" x2="131.7" y2="129.1"></line>
    <line class="st1" x1="155.7" y1="125" x2="155.7" y2="129.1"></line>
    <path class="st3" d="M169.4,130.5l-13.7-1.5h-24l-18.4,1.6c0,0-6.2,0.4-6.2,6.4s6.2,6.1,6.2,6.1h57.3c0,0,6.2-0.2,6.2-6.1
        c0-4.8-4.1-6-5.7-6.3L169.4,130.5z"></path>
</svg>
