
<svg version="1.1" id="Wheeled_Loader_Icon" xmlns="http://www.w3.org/2000/svg"
    xmlns:xlink="http://www.w3.org/1999/xlink" x="0px" y="0px" viewBox="0 0 200 200"
    style="enable-background:new 0 0 200 200;" xml:space="preserve">
    <style type="text/css">
        .st0 {
            fill: none;
        }

        .st1 {
            fill: none;
            stroke: #FCB026;
            stroke-width: 2.85;
            stroke-miterlimit: 1;
        }

        .product-range-component .container:hover figure:hover .st0 .st1 .st2 {
            fill: none;
            stroke: #DD970C;
        }
    </style>
    <defs>
    </defs>
    <g>
        <circle class="st1" cx="144.4" cy="126.9" r="15.7"></circle>
        <circle class="st1" cx="144.4" cy="126.9" r="7.4"></circle>
        <circle class="st1" cx="74.2" cy="126.9" r="15.7"></circle>
        <circle class="st1" cx="74.2" cy="126.9" r="7.4"></circle>
        <polyline class="st1" points="129.8,132.1 109.7,132.1 109.7,115.5 97.7,104.8 	"></polyline>
        <path class="st1"
            d="M133.9,104.8v-13c0,0-0.3-4.7,4.4-4.7c2.1,0,7.7,0,7.7,0l31,4.4c0,0,5.6,0.2,6.2,6c0.6,5.7,1.1,14.4,1.1,14.4">
        </path>
        <path class="st1" d="M176.2,111.6h5.9c3.1,0,4.1,2.7,4.1,2.7v6.4c0,0-0.6,2.1-7.7,5.2l-1.7,0.2L165,131h-5.2">
        </path>
        <path class="st1" d="M150,102.3c0,0-9.4,0-12,0c-2.6,0-5,3.3-5,3.3l-8.8,9.9"></path>
        <path class="st1" d="M137.8,70.8h-30.9c-4.3,0-9.2,28.2-9.2,28.3v33h-8.8"></path>
        <line class="st1" x1="134.6" y1="70.8" x2="134.6" y2="88.9"></line>
        <line class="st1" x1="109.3" y1="70.8" x2="101" y2="70.8"></line>
        <path class="st1" d="M97.7,98.1c0,0-2.6-2.6-4.6-2.2c-1.8,0.3-2.9,0.4-9.9,3.3c-7.1,2.9-15.2,7.4-17.9,8.6c-2.7,1.2-7.9,2.3-9.8,9
        c-1.8,6.7-12.1,20-12.1,20l2,3.6l13.8-9.2"></path>
        <path class="st1" d="M78.6,105.8h3.2c3.6,0,4.6,1,5.8,2.7l4.3,6.3c0,0,1.9,2.6,1.4,6.3"></path>
        <line class="st1" x1="133.9" y1="104.8" x2="97.7" y2="104.8"></line>
        <line class="st1" x1="112.3" y1="70.8" x2="112.3" y2="104.8"></line>
        <line class="st1" x1="84" y1="114.7" x2="90.3" y2="112.1"></line>
        <polyline class="st1"
            points="48.5,130 33,116.8 21.1,114.6 28,120.3 28.2,125.1 18.7,139.7 13.8,143.7 39.1,143.7 44.7,139.3 	">
        </polyline>
        <path class="st1" d="M157.8,88.8c0.2,0,0-9.7,0-9.7l3.2-2.3"></path>
        <line class="st1" x1="97.7" y1="116.2" x2="109.7" y2="116.2"></line>
        <line class="st1" x1="97.7" y1="129.1" x2="109.7" y2="129.1"></line>
    </g>
</svg>
