 <svg  version="1.0" xmlns="http://www.w3.org/2000/svg"  width="300.000000pt" height="300.000000pt" viewBox="0 0 300.000000 300.000000"  preserveAspectRatio="xMidYMid meet">  <g transform="translate(0.000000,300.000000) scale(0.050000,-0.050000)" fill="#fcb026" stroke="none"> <path d="M2329 4374 c-38 -21 -37 -122 1 -154 21 -17 97 -22 260 -17 l230 7 0 -262 0 -262 -325 9 c-627 19 -830 -115 -812 -536 l7 -163 -175 -4 -175 -4 0 152 c0 160 -18 200 -90 200 -84 0 -90 -29 -90 -440 0 -411 6 -440 90 -440 73 0 90 39 90 205 l0 157 172 -6 172 -6 3 -190 c5 -324 157 -500 432 -500 l132 0 130 -132 c212 -216 216 -217 722 -224 607 -9 647 6 855 322 l127 194 158 0 157 0 0 100 0 100 -186 0 c-224 0 -210 10 -393 -267 -186 -280 -169 -273 -671 -273 -466 0 -465 0 -669 208 l-150 152 -136 0 c-300 0 -325 46 -325 601 0 653 -91 599 1027 600 1061 1 1039 7 1058 -315 13 -207 12 -206 249 -206 l198 0 -6 95 -6 95 -126 0 -127 0 -7 103 c-24 334 -225 440 -799 423 l-331 -10 0 262 0 262 231 -7 c160 -4 240 1 260 18 38 31 38 137 0 151 -46 18 -1131 20 -1162 2z"/> <path d="M4675 3485 c-39 -44 -53 -1435 -15 -1505 29 -53 131 -54 159 -1 42 77 27 1469 -16 1508 -47 43 -89 42 -128 -2z"/> <path d="M2320 2960 c-59 -59 -15 -160 69 -160 40 0 91 56 91 100 0 90 -95 125 -160 60z"/> <path d="M2855 2978 c-51 -29 -46 -131 8 -159 66 -36 137 5 137 80 0 83 -71 122 -145 79z"/> <path d="M3375 2978 c-44 -25 -45 -105 -4 -147 61 -60 149 -19 149 69 0 82 -72 121 -145 78z"/> </g> </svg> 