<?xml version="1.0" standalone="no"?>
<!DOCTYPE svg PUBLIC "-//W3C//DTD SVG 20010904//EN"
 "http://www.w3.org/TR/2001/REC-SVG-20010904/DTD/svg10.dtd">
<svg version="1.0" xmlns="http://www.w3.org/2000/svg"
 width="1350.000000pt" height="522.000000pt" viewBox="0 0 1350.000000 522.000000"
 preserveAspectRatio="xMidYMid meet">
<metadata>
Created by potrace 1.10, written by Peter Selinger 2001-2011
</metadata>
<g transform="translate(0.000000,522.000000) scale(0.100000,-0.100000)"
fill="#fcb026" stroke="none">
<path d="M838 4441 c-15 -9 -36 -29 -48 -43 l-20 -27 0 -1771 0 -1771 20 -27
c12 -14 34 -34 51 -44 28 -17 246 -18 5899 -18 5653 0 5871 1 5899 18 17 10
39 30 51 44 l20 27 0 1766 c0 1665 -1 1768 -17 1796 -10 17 -33 39 -51 49 -33
20 -94 20 -5905 19 -5558 0 -5873 -1 -5899 -18z m11688 -93 c3 -4 16 -8 28 -8
30 0 50 -24 54 -64 8 -71 -1 -3363 -9 -3383 -4 -12 -17 -27 -28 -32 -27 -15
-11618 -15 -11656 -1 -14 5 -29 20 -34 32 -7 18 -17 3229 -11 3385 1 17 10 39
22 50 19 17 195 18 5247 23 2874 3 5486 6 5804 6 318 0 580 -3 583 -8z"/>
<path d="M5535 4215 c-312 -27 -567 -108 -719 -229 -74 -59 -182 -171 -218
-226 -82 -125 -151 -347 -168 -537 -16 -178 -12 -1189 5 -1304 34 -226 92
-372 203 -510 203 -253 381 -344 797 -410 98 -15 1555 -23 1795 -10 499 28
729 106 926 312 176 185 250 424 242 781 l-3 166 -30 43 c-17 24 -50 57 -74
74 l-43 30 -396 3 c-219 2 -411 0 -428 -3 -45 -8 -118 -69 -142 -118 -12 -23
-31 -75 -42 -116 -34 -117 -101 -161 -276 -181 -104 -12 -878 -15 -1014 -4
-178 15 -284 65 -333 159 -37 72 -46 162 -46 480 -1 384 12 467 86 537 40 38
106 64 198 79 119 18 1085 19 1180 0 114 -22 150 -54 195 -173 27 -73 102
-147 162 -159 63 -12 775 -11 820 1 55 16 133 106 147 170 23 105 5 340 -37
500 -66 251 -207 425 -427 531 -151 72 -303 104 -564 119 -239 14 -1615 10
-1796 -5z m1942 -130 c43 -8 95 -15 116 -15 21 0 54 -7 74 -15 19 -8 48 -15
62 -15 15 0 36 -7 47 -15 10 -8 26 -15 35 -15 9 0 36 -11 60 -25 24 -13 55
-29 68 -35 30 -13 163 -146 182 -182 82 -157 105 -241 120 -437 5 -73 8 -174
7 -223 l-3 -90 -453 -1 -452 -2 0 68 c0 81 -21 130 -84 191 -46 44 -79 58
-191 82 -95 21 -793 30 -1020 14 -280 -20 -311 -25 -404 -69 -72 -34 -161
-148 -161 -207 0 -10 -7 -41 -15 -68 -12 -40 -15 -119 -15 -408 0 -381 5 -430
52 -535 22 -48 92 -131 122 -144 12 -5 28 -13 36 -18 34 -20 92 -41 113 -41
12 0 44 -7 71 -15 73 -22 1129 -22 1202 0 27 8 59 15 70 15 20 0 79 24 130 53
72 41 124 156 124 274 l0 73 454 0 454 0 6 -128 c10 -187 -20 -444 -60 -525
-8 -16 -14 -37 -14 -47 0 -9 -7 -23 -15 -30 -8 -7 -15 -18 -15 -25 0 -14 -81
-129 -114 -160 -46 -45 -117 -93 -186 -126 -25 -11 -58 -27 -73 -35 -16 -8
-38 -14 -50 -14 -12 -1 -33 -7 -47 -15 -14 -8 -41 -14 -60 -15 -19 0 -51 -5
-70 -11 -35 -11 -86 -16 -420 -39 -224 -15 -1477 -9 -1660 9 -172 16 -346 53
-412 87 -14 8 -33 14 -41 14 -8 0 -20 7 -27 15 -7 8 -21 15 -30 15 -10 0 -20
3 -22 8 -1 4 -23 21 -48 37 -103 69 -209 187 -262 290 -111 215 -121 314 -115
1120 4 500 6 587 21 630 8 28 16 64 16 80 1 17 7 41 15 55 8 14 14 33 15 42 0
16 55 137 83 183 31 52 84 112 143 165 78 70 270 160 384 180 25 5 58 13 73
19 16 6 47 11 70 11 23 1 69 7 102 14 94 22 1901 22 2012 1z"/>
<path d="M1535 4178 c-38 -3 -125 -6 -191 -6 -116 0 -124 -1 -179 -30 -50 -27
-62 -39 -86 -89 l-29 -58 4 -175 c2 -115 8 -184 16 -202 11 -23 11 -33 -1 -55
-10 -22 -14 -94 -17 -309 -3 -269 -2 -283 17 -320 12 -21 21 -50 21 -63 0 -32
70 -98 112 -106 18 -3 282 -5 587 -3 l553 3 53 56 c31 34 55 70 59 89 8 43 8
1043 -1 1106 -5 41 -14 56 -54 95 -48 46 -48 47 -146 58 -111 13 -612 19 -718
9z m826 -708 l0 -602 -601 0 -601 1 0 600 c0 331 1 602 1 604 0 1 270 1 601 0
l600 -2 0 -601z"/>
<path d="M1329 3845 c-15 -8 -29 -26 -33 -39 -6 -26 10 -124 24 -141 5 -5 11
-28 15 -50 4 -22 11 -44 15 -50 4 -5 11 -26 15 -45 4 -19 11 -41 15 -50 5 -8
18 -46 30 -85 12 -38 28 -84 36 -102 8 -17 14 -39 14 -50 0 -35 36 -112 62
-132 30 -24 53 -26 88 -6 14 8 37 14 52 15 15 0 29 4 33 9 3 5 20 12 38 16 48
10 129 36 159 51 14 8 35 14 46 14 11 0 33 7 48 15 16 8 36 15 45 15 9 0 30 7
45 15 16 8 39 15 52 15 25 0 55 15 90 44 26 23 29 70 7 112 -8 16 -15 36 -15
45 0 9 -7 30 -15 45 -8 16 -15 36 -15 45 0 9 -7 30 -15 45 -8 16 -15 38 -15
50 0 11 -16 37 -37 57 -32 32 -42 37 -84 37 -27 0 -66 6 -86 14 -21 8 -71 17
-111 20 -41 4 -82 11 -92 16 -10 6 -43 10 -72 10 -29 1 -71 7 -93 15 -22 8
-56 15 -75 15 -31 0 -58 6 -125 24 -11 3 -32 -1 -46 -9z m231 -63 c122 -25
188 -36 250 -42 36 -4 78 -12 93 -18 16 -7 54 -12 86 -12 53 0 61 -3 94 -35
26 -25 37 -45 37 -64 0 -16 7 -34 15 -41 8 -7 15 -25 15 -39 0 -15 7 -36 15
-47 8 -10 15 -32 15 -49 0 -16 7 -38 15 -49 10 -13 11 -24 5 -36 -13 -25 -76
-60 -108 -60 -15 0 -36 -7 -46 -15 -11 -8 -32 -15 -46 -15 -14 0 -35 -7 -46
-15 -10 -8 -32 -15 -47 -15 -16 0 -38 -5 -50 -12 -12 -6 -38 -15 -57 -19 -19
-4 -60 -17 -90 -30 -62 -25 -157 -36 -173 -20 -11 11 -33 66 -46 116 -5 17
-13 41 -19 55 -5 14 -18 59 -27 100 -10 41 -21 80 -25 85 -4 6 -11 26 -14 45
-4 19 -11 44 -16 55 -24 57 -52 165 -46 180 5 14 18 16 83 12 43 -2 103 -9
133 -15z"/>
<path d="M1467 3748 c-2 -8 1 -25 9 -39 7 -13 13 -32 14 -41 0 -10 10 -18 26
-20 26 -3 47 -40 61 -108 5 -25 35 -110 59 -167 19 -42 18 -72 -2 -80 -22 -8
-50 31 -58 81 -9 51 -21 66 -57 66 -25 0 -29 -4 -29 -28 0 -16 7 -37 15 -48 8
-10 15 -28 15 -39 0 -11 7 -33 15 -49 8 -15 15 -37 15 -47 0 -32 39 -43 103
-30 89 19 101 48 63 151 -7 19 -21 62 -31 95 -9 33 -26 84 -36 114 -18 50 -18
56 -3 78 14 23 14 27 -1 59 -9 19 -19 34 -23 34 -17 0 -119 19 -133 25 -10 3
-19 0 -22 -7z"/>
<path d="M1697 3703 c-8 -12 37 -208 52 -228 5 -5 12 -27 15 -49 4 -21 11 -46
15 -55 5 -9 15 -36 22 -61 l14 -45 51 1 c30 1 62 9 78 20 24 15 27 22 22 52
-10 62 -38 122 -56 122 -23 0 -32 -24 -20 -56 16 -41 12 -54 -15 -54 -20 0
-25 6 -30 38 -3 20 -10 45 -16 54 -5 10 -9 26 -9 35 0 10 -10 41 -21 69 -12
29 -19 60 -15 69 8 22 40 15 44 -10 9 -47 72 -78 72 -36 0 11 -4 22 -9 25 -5
3 -12 21 -15 40 -4 20 -16 41 -31 50 -28 19 -139 33 -148 19z"/>
<path d="M1916 3671 c-4 -6 0 -26 9 -43 8 -18 18 -49 22 -70 3 -21 10 -41 14
-44 5 -3 9 -13 9 -22 1 -9 9 -35 20 -57 11 -22 19 -52 20 -66 0 -41 28 -60 73
-49 60 13 70 27 65 86 -3 38 -11 58 -31 80 -15 16 -25 35 -22 42 10 28 -16
107 -42 126 -31 23 -127 34 -137 17z m116 -68 c10 -9 18 -27 18 -40 0 -18 -5
-23 -24 -23 -27 0 -41 27 -31 60 8 24 13 25 37 3z m64 -160 c7 -26 -6 -59 -22
-57 -10 2 -42 54 -43 72 -1 7 11 12 29 12 24 0 31 -5 36 -27z"/>
<path d="M3225 4176 c-44 -19 -123 -111 -129 -149 -3 -18 -8 -448 -11 -957 -3
-509 -10 -943 -15 -964 -12 -52 -38 -87 -86 -111 -37 -19 -59 -20 -374 -20
-326 0 -336 1 -376 22 -87 47 -109 100 -123 295 -8 116 -23 148 -94 202 -52
40 -103 45 -433 46 -369 0 -402 -4 -461 -62 -73 -72 -73 -70 -73 -401 0 -249
3 -310 19 -389 44 -220 155 -399 317 -511 135 -93 289 -141 554 -172 147 -18
1223 -22 1325 -5 33 5 98 14 145 19 214 25 418 125 553 272 117 125 172 230
229 434 l22 80 4 1070 c2 589 0 1095 -3 1125 -6 50 -12 60 -70 120 l-64 65
-413 2 c-327 2 -419 0 -443 -11z m874 -113 c3 -4 4 -512 1 -1128 -5 -1161 -6
-1178 -46 -1272 -8 -17 -14 -36 -14 -41 0 -9 -19 -51 -42 -92 -4 -8 -12 -24
-17 -35 -28 -61 -185 -218 -246 -246 -11 -5 -27 -13 -35 -18 -30 -17 -86 -38
-140 -54 -192 -54 -375 -67 -925 -67 -438 0 -724 12 -817 36 -32 8 -67 14 -79
14 -34 0 -118 29 -229 79 -78 35 -205 149 -231 206 -5 11 -13 27 -18 35 -28
47 -61 143 -71 205 -5 28 -13 71 -19 96 -8 34 -15 450 -11 627 0 9 91 12 420
12 l420 0 0 -147 c0 -249 51 -350 204 -402 59 -20 82 -21 418 -21 341 0 359 1
413 22 68 26 122 83 148 156 16 46 17 123 17 1044 0 547 2 997 4 999 8 8 889
0 895 -8z"/>
<path d="M8701 4180 c-18 -4 -53 -27 -77 -51 -83 -81 -76 60 -76 -1520 l0
-1410 22 -44 c30 -63 101 -122 153 -130 75 -11 2958 1 3007 12 25 6 87 20 138
32 260 60 467 238 559 481 39 103 48 175 48 395 0 188 -2 219 -23 293 -25 94
-69 187 -101 216 -12 11 -21 23 -21 28 0 18 -74 100 -116 129 -65 44 -65 58 4
143 134 167 189 376 163 623 -24 222 -98 391 -236 538 -74 80 -238 177 -360
213 -205 62 -74 57 -1630 59 -781 0 -1435 -2 -1454 -7z m2834 -121 c28 -6 75
-15 105 -19 85 -13 221 -57 242 -78 7 -7 20 -12 29 -12 10 0 19 -3 21 -7 2 -5
23 -21 46 -37 67 -45 145 -129 186 -197 20 -33 36 -65 36 -71 0 -5 6 -22 14
-36 40 -77 62 -286 48 -447 -11 -114 -25 -160 -90 -280 -43 -81 -198 -194
-288 -211 -19 -3 -34 -12 -34 -19 0 -14 90 -45 128 -45 18 0 52 -14 102 -42 8
-4 25 -12 36 -17 12 -5 48 -36 80 -68 80 -80 137 -197 155 -318 24 -163 28
-219 19 -293 -5 -42 -12 -99 -15 -127 -16 -134 -88 -287 -175 -375 -77 -77
-220 -150 -330 -170 -25 -5 -56 -13 -70 -18 -50 -19 -297 -23 -1670 -26 -767
-2 -1406 -5 -1420 -7 l-25 -4 -3 1460 c-1 803 0 1465 2 1470 5 15 2804 9 2871
-6z"/>
<path d="M9564 3411 c-2 -2 -4 -112 -4 -243 l0 -238 809 0 c789 0 810 0 854
20 54 24 99 69 109 107 4 16 12 48 18 72 6 24 8 53 5 65 -31 116 -62 163 -128
196 -41 20 -57 20 -850 23 -445 1 -811 0 -813 -2z m1576 -134 c42 -15 80 -68
80 -113 0 -23 -9 -44 -29 -66 l-29 -33 -709 -3 c-389 -1 -718 0 -730 3 -25 6
-43 51 -43 111 0 53 15 89 44 102 32 16 1370 15 1416 -1z"/>
<path d="M9560 2075 l0 -260 872 3 c751 2 874 5 888 17 9 8 22 15 28 15 15 0
63 64 81 109 20 48 20 185 0 234 -20 48 -63 93 -114 117 -39 19 -69 20 -898
23 l-857 2 0 -260z m1665 126 c18 -4 41 -22 62 -49 29 -38 32 -48 27 -85 -4
-23 -13 -54 -21 -69 -30 -60 -2 -58 -821 -58 -865 0 -781 -11 -789 107 -6 86
6 134 38 150 18 10 192 12 749 12 399 -1 738 -4 755 -8z"/>
</g>
</svg>
