<?xml version="1.0" standalone="no"?>
<!DOCTYPE svg PUBLIC "-//W3C//DTD SVG 20010904//EN"
 "http://www.w3.org/TR/2001/REC-SVG-20010904/DTD/svg10.dtd">
<svg version="1.0" xmlns="http://www.w3.org/2000/svg"
 width="300.000000pt" height="58.000000pt" viewBox="0 0 300.000000 58.000000"
 preserveAspectRatio="xMidYMid meet">
<metadata>
Created by potrace 1.10, written by Peter Selinger 2001-2011
</metadata>
<g transform="translate(0.000000,58.000000) scale(0.100000,-0.100000)"
fill="#fcb026" stroke="none">
<path d="M394 547 c-17 -10 -112 -27 -172 -32 -24 -2 -50 -9 -58 -16 -7 -6
-20 -9 -29 -6 -8 4 -21 0 -29 -8 -8 -8 -19 -15 -25 -15 -14 0 -55 -59 -69
-101 -15 -43 -16 -96 -2 -104 5 -3 10 -15 10 -26 0 -10 5 -19 10 -19 6 0 10
-6 10 -13 0 -29 50 -60 127 -79 233 -58 215 -57 926 -58 l658 0 45 26 c24 14
44 23 44 20 0 -3 16 12 36 34 l37 40 338 0 c187 -1 339 -4 339 -8 0 -4 21 -15
48 -25 26 -11 56 -22 67 -27 45 -19 62 -22 109 -25 57 -3 108 19 154 66 32 33
32 33 32 141 l0 108 -45 44 c-42 40 -75 54 -140 58 -32 2 -100 -13 -106 -24
-4 -7 -11 -10 -14 -6 -4 4 -26 -4 -50 -17 l-43 -25 -351 0 -350 -1 -28 30
c-15 17 -37 31 -48 33 -11 2 -29 11 -39 21 -16 14 -40 17 -130 18 -684 4
-1250 2 -1262 -4z m741 -20 c620 -2 629 -2 635 -22 4 -15 13 -20 40 -20 32 0
35 -3 38 -32 l3 -33 395 0 c336 0 394 2 394 14 0 23 157 71 202 62 140 -26
198 -205 100 -310 -34 -36 -80 -56 -130 -56 -44 0 -163 45 -175 66 -7 12 -74
14 -397 14 l-390 0 0 -35 c0 -34 -1 -35 -39 -35 -30 0 -40 -4 -44 -20 -5 -19
-17 -20 -649 -22 l-643 -3 -175 33 c-104 20 -185 40 -200 51 -32 22 -70 96
-70 136 1 46 35 112 70 134 18 11 103 33 193 50 89 18 163 34 166 37 3 3 15 3
26 -1 11 -3 303 -6 650 -8z"/>
<path d="M467 514 c-4 -4 -7 -97 -7 -206 0 -184 1 -198 18 -198 17 0 18 13 16
202 -2 185 -7 221 -27 202z"/>
<path d="M280 476 c-80 -17 -156 -37 -168 -44 -13 -8 -33 -34 -44 -59 -26 -58
-17 -109 25 -157 30 -34 39 -36 167 -61 74 -14 145 -28 158 -31 l22 -6 0 196
c0 108 -3 195 -7 195 -5 -1 -73 -16 -153 -33z m127 -18 c9 -7 12 -48 11 -139
-1 -108 -4 -133 -19 -150 -9 -11 -20 -16 -23 -11 -3 5 -26 10 -52 10 -29 2
-56 10 -71 22 -27 21 -25 22 29 34 36 8 61 56 55 102 -5 38 -32 74 -54 74 -7
0 -13 5 -13 11 0 6 -6 9 -13 6 -8 -3 -20 -2 -27 3 -20 13 -89 -50 -92 -84 -3
-49 4 -73 32 -98 36 -33 36 -34 7 -33 -55 3 -101 69 -87 126 4 19 11 41 14 50
8 19 48 39 76 39 10 0 22 5 26 11 3 6 15 9 25 6 11 -3 17 -1 13 4 -3 5 15 9
40 9 25 0 46 4 46 8 0 12 62 11 77 0z m-124 -88 c34 -27 41 -53 23 -88 -25
-48 -83 -57 -123 -20 -38 36 -28 89 22 116 30 17 49 14 78 -8z"/>
<path d="M200 350 c-11 -11 -20 -28 -20 -38 0 -41 69 -69 98 -40 20 20 14 65
-10 82 -30 21 -44 20 -68 -4z m53 -34 c4 -9 -3 -16 -18 -18 -20 -4 -22 -3 -12
14 14 22 23 23 30 4z"/>
<path d="M520 505 c0 0 -1 -87 -3 -193 l-2 -192 618 0 617 0 0 196 0 196 -615
-3 c-338 -2 -615 -3 -615 -4z m334 -29 c596 10 836 10 836 2 0 -4 7 -8 15 -8
18 0 17 10 15 -165 -1 -77 -5 -143 -9 -148 -12 -12 -1153 -10 -1161 3 -3 6 -7
69 -8 141 0 72 -3 133 -6 136 -8 9 39 51 48 43 4 -5 126 -6 270 -4z"/>
<path d="M2720 453 l-65 -24 -3 -113 -2 -114 68 -26 c83 -32 129 -33 173 -3
58 39 81 83 77 148 -5 68 -35 114 -92 140 -52 23 -75 22 -156 -8z m155 -21
c-2 -3 3 -11 13 -18 9 -8 12 -14 5 -14 -6 0 -15 4 -18 10 -3 5 -28 8 -55 7
-71 -5 -100 -34 -100 -99 0 -69 30 -98 101 -98 44 0 58 5 81 27 30 29 38 20
10 -12 -26 -30 -74 -60 -97 -60 -11 1 -33 7 -50 14 -16 7 -36 14 -44 15 -7 1
-21 13 -31 25 -14 19 -15 32 -8 73 5 28 7 57 4 65 -3 8 3 26 14 40 11 14 20
23 20 19 0 -4 8 -2 18 3 17 10 147 13 137 3z m4 -68 c62 -79 -43 -170 -114
-99 -14 13 -25 36 -25 50 0 67 98 101 139 49z"/>
<path d="M2773 344 c-15 -24 -15 -29 -2 -53 11 -20 22 -26 49 -26 27 0 38 6
49 26 13 24 13 29 -2 53 -12 18 -26 26 -47 26 -21 0 -35 -8 -47 -26z m65 -37
c2 -11 -2 -14 -17 -10 -22 5 -26 14 -14 27 10 10 28 1 31 -17z"/>
<path d="M1770 315 l0 -155 30 0 30 0 0 155 0 155 -30 0 -30 0 0 -155z"/>
<path d="M1850 315 l0 -85 390 0 390 0 0 69 c0 38 3 76 6 85 6 14 -33 16 -390
16 l-396 0 0 -85z m747 44 c17 -15 17 -73 -1 -88 -10 -8 -113 -12 -356 -12
-316 0 -343 2 -356 18 -7 10 -14 24 -14 31 0 15 19 54 31 62 15 11 682 0 696
-11z"/>
</g>
</svg>
