
<svg version="1.1" id="Wheeled_Excavator_Icon" xmlns="http://www.w3.org/2000/svg"
    xmlns:xlink="http://www.w3.org/1999/xlink" x="0px" y="0px" viewBox="0 0 200 200"
    style="enable-background:new 0 0 200 200;" xml:space="preserve">
    <style type="text/css">
        .st0 {
            fill: none;
            stroke: #FCB026;
            stroke-width: 2.85;
            stroke-miterlimit: 1;
        }

        .st1 {
            fill: none;
        }

        .product-range-component .container:hover figure:hover .st0 .st1 {
            fill: none;
            stroke: #DD970C;
        }
    </style>
    <defs>
    </defs>
    <g>
        <circle class="st0" cx="114.2" cy="133.3" r="10"></circle>
        <path class="st0" d="M171.1,133.3c-0.1,5.5-4.5,10-10,10c-5.5,0-10-4.5-10-10c0-5.5,4.5-10.2,10-10
                C167.2,123.5,171.2,127.8,171.1,133.3z"></path>
        <circle class="st0" cx="161.1" cy="133.3" r="5.1"></circle>
        <circle class="st0" cx="114.2" cy="133.3" r="5.1"></circle>
        <line class="st0" x1="118.5" y1="124.3" x2="156.8" y2="124.3"></line>
        <path class="st0" d="M149.4,99.4l11.3,0.1l1.2-1.6h13l1.5,1.6c0,0,1.3,0,5.9,0c4,0,3.9,6.1,3.9,6.1s0,5.2,0,9.7
                c0,3.5-4.8,3.4-4.8,3.4h-60.6c0,0-0.8-1.2-0.8-3.3l1-1.2"></path>
        <path class="st0" d="M121.6,115.3c-0.3,0.1-2.8-8.1-2.8-9.1c-0.4-2.3,2.5-17.7,2.5-17.7s0.7-3.6,5.5-4c4.9-0.6,13.8-0.7,13.8-0.7
                s6,0,7,4.5c0.2,1.5,1.7,11,1.7,11S148.7,111.3,121.6,115.3z"></path>
        <path class="st0" d="M139.7,110c0,0,0-26.2,0-26.2"></path>
        <line class="st0" x1="129.8" y1="118.6" x2="132.7" y2="124.3"></line>
        <line class="st0" x1="155.8" y1="118.6" x2="152.1" y2="124.3"></line>
        <path class="st0" d="M96.3,131.6c2.8,5.4,0,12.6,0,12.6"></path>
        <polyline class="st0" points="124.2,133.3 133,132.5 141,132.5 151.1,133.3 		"></polyline>
        <line class="st0" x1="172.3" y1="142.9" x2="180.2" y2="142.9"></line>
        <polyline class="st0" points="167.6,125.6 176.3,128.4 176.3,142.9 		"></polyline>
        <line class="st0" x1="105" y1="137.3" x2="97.4" y2="139.8"></line>
        <path class="st0" d="M104.7,130.2c-0.1,0.2-7.1,5.5-7.1,5.5"></path>
        <path class="st0" d="M80.6,132.7l-42-10.4l44.1-18.1c0,0,8.7-3.8,22.1-0.9c4.6,1,14.1,2.9,14.1,2.9"></path>
        <path class="st0" d="M119.7,98.3c-0.2-0.2-17.5-8.5-17.5-8.5s-9.8-4.7-19.1-0.3c-9.2,4.4-67.3,35-67.3,35l-2.1,3.6l21.9,9.9
                l46.1,0.3"></path>
    </g>
    <g>
        <path class="st0" d="M81.8,140.5C81.5,121.2,65,120.1,65,120.1l-0.1-0.9c0,0,6.8-1.5,16.7-1.6c14.8-0.2,11.4,9.2,11.4,9.2
                l-3.3,8.1l-6.6,6.3L81.8,140.5z"></path>
    </g>
</svg>
