<?xml version="1.0" standalone="no"?>
<!DOCTYPE svg PUBLIC "-//W3C//DTD SVG 20010904//EN"
 "http://www.w3.org/TR/2001/REC-SVG-20010904/DTD/svg10.dtd">
<svg version="1.0" xmlns="http://www.w3.org/2000/svg"
 width="900.000000pt" height="507.000000pt" viewBox="0 0 900.000000 507.000000"
 preserveAspectRatio="xMidYMid meet">
<metadata>
Created by potrace 1.10, written by Peter Selinger 2001-2011
</metadata>
<g transform="translate(0.000000,507.000000) scale(0.100000,-0.100000)"
fill="#000000" stroke="none">
<path d="M655 3730 c-16 -10 -37 -30 -47 -42 -17 -22 -18 -90 -18 -1161 0
-1119 0 -1139 20 -1167 11 -15 35 -35 54 -44 31 -15 347 -16 3811 -16 3464 0
3780 1 3811 16 19 9 43 29 54 44 20 28 20 48 20 1164 0 1259 5 1163 -65 1206
-32 20 -39 20 -3821 20 -3744 0 -3789 0 -3819 -20z m4345 -249 c131 -24 171
-37 240 -77 145 -84 214 -244 208 -484 l-3 -125 -274 -3 c-172 -1 -278 1 -286
8 -6 5 -18 35 -25 65 -16 67 -59 113 -128 138 -44 16 -88 18 -463 14 -364 -3
-420 -5 -466 -21 -62 -21 -104 -59 -135 -124 -21 -45 -22 -59 -22 -337 0 -276
1 -292 21 -335 27 -55 75 -101 128 -122 91 -37 163 -43 485 -43 387 0 480 14
546 80 29 29 54 93 54 139 0 23 5 47 12 54 9 9 86 12 284 12 234 0 275 -2 288
-16 35 -34 12 -307 -36 -434 -19 -50 -60 -110 -99 -146 -48 -43 -106 -84 -119
-84 -7 0 -24 -6 -38 -14 -40 -21 -143 -43 -272 -58 -159 -18 -1112 -18 -1260
0 -204 25 -309 70 -420 182 -41 42 -82 91 -91 110 -78 171 -79 186 -79 661 0
365 2 415 19 495 32 143 71 226 140 295 40 39 126 99 142 99 6 0 23 6 37 14
37 18 121 42 217 59 64 12 203 15 685 16 556 1 613 -1 710 -18z m-2247 -16
c13 -13 15 -104 15 -657 1 -653 -6 -821 -35 -893 -71 -175 -154 -257 -323
-314 -81 -28 -266 -41 -600 -41 -430 0 -582 17 -710 77 -62 29 -104 62 -143
114 -76 102 -97 200 -97 454 0 194 0 195 23 200 12 3 132 4 267 3 l245 -3 6
-100 c7 -116 22 -163 67 -209 49 -50 111 -61 352 -61 258 0 300 13 343 107 15
32 17 98 17 675 0 484 3 642 12 651 9 9 85 12 279 12 223 0 270 -2 282 -15z
m4817 5 c268 -28 421 -148 474 -372 30 -128 16 -268 -39 -375 -23 -46 -97
-115 -151 -142 -25 -13 -42 -27 -37 -31 4 -4 31 -16 58 -26 123 -45 184 -110
227 -244 26 -80 25 -292 -1 -375 -29 -89 -49 -124 -105 -181 -67 -66 -154
-106 -281 -128 -91 -16 -185 -17 -1045 -14 l-945 3 -3 939 c-2 745 0 941 10
948 18 11 1731 9 1838 -2z m-5942 -384 l2 -376 -376 -2 c-206 -2 -378 -1 -380
1 -2 2 -4 173 -4 380 l0 376 377 -2 378 -2 3 -375z"/>
<path d="M6313 3043 c-16 -6 -19 -278 -3 -288 5 -3 248 -5 540 -5 488 0 534 2
555 18 37 27 55 66 55 121 0 68 -26 118 -72 142 -35 18 -65 19 -550 18 -282 0
-519 -3 -525 -6z"/>
<path d="M6327 2351 c-24 -8 -27 -27 -27 -168 0 -115 3 -144 16 -157 23 -24
1023 -24 1102 -1 74 22 102 65 102 159 0 59 -4 74 -25 102 -14 19 -36 39 -48
46 -17 10 -153 14 -565 18 -298 3 -548 3 -555 1z"/>
<path d="M963 3333 c-18 -12 -23 -25 -23 -57 0 -23 6 -50 14 -61 7 -11 17 -39
21 -62 4 -24 11 -43 16 -43 5 0 9 -12 9 -26 0 -14 6 -40 14 -57 8 -18 17 -49
21 -69 3 -21 10 -38 15 -38 6 0 10 -8 10 -19 0 -10 10 -31 22 -46 19 -24 26
-26 62 -21 22 4 45 11 51 16 5 4 27 11 48 15 20 4 40 11 43 16 3 5 18 9 33 9
15 0 36 7 47 15 10 8 30 15 44 15 14 0 43 9 65 20 22 11 47 19 56 20 9 0 20 7
23 16 11 27 6 98 -7 124 -8 14 -17 40 -20 58 -4 18 -12 39 -19 48 -40 50 -59
64 -86 64 -15 0 -33 5 -39 11 -6 6 -46 13 -89 16 -44 3 -84 9 -89 14 -6 4 -50
11 -98 15 -48 4 -90 11 -93 15 -8 13 -26 10 -51 -8z m80 -50 c12 -4 17 -16 17
-39 0 -22 7 -38 21 -47 19 -14 48 -75 49 -104 0 -8 -12 -13 -29 -13 -23 0 -30
-5 -35 -26 -9 -36 -19 -23 -22 28 -1 22 -6 43 -12 47 -5 3 -12 26 -15 50 -3
24 -10 47 -14 50 -28 19 -23 77 6 65 9 -3 24 -9 34 -11z m105 -10 c-10 -2 -26
-2 -35 0 -10 3 -2 5 17 5 19 0 27 -2 18 -5z m191 -39 c-8 -10 -15 -11 -30 -1
-18 11 -18 12 -1 18 26 10 45 0 31 -17z m-124 -92 c4 -20 13 -51 21 -69 8 -17
14 -42 14 -55 0 -12 9 -34 20 -48 17 -23 17 -26 3 -42 -9 -10 -26 -18 -37 -18
-20 1 -20 2 -3 14 21 16 22 54 2 80 -8 11 -15 32 -15 46 0 14 -4 30 -9 36 -12
11 -31 91 -23 98 10 11 21 -6 27 -42z m128 -4 c12 10 15 8 20 -14 3 -20 -1
-28 -19 -36 -29 -14 -54 4 -54 38 0 21 2 23 19 12 15 -9 23 -9 34 0z m-253
-175 c0 -19 -3 -24 -10 -17 -6 6 -8 18 -4 27 9 24 14 21 14 -10z m61 -86 c-13
-13 -41 -1 -41 17 0 13 4 14 25 4 16 -7 22 -15 16 -21z"/>
</g>
</svg>
