
<svg version="1.1" id="Agricultural_Tractors_Icon" xmlns="http://www.w3.org/2000/svg"
    xmlns:xlink="http://www.w3.org/1999/xlink" x="0px" y="0px" viewBox="0 0 200 200"
    style="enable-background:new 0 0 200 200;" xml:space="preserve">
    <style>
        .st1 {
            fill: none;
            stroke: #FCB026;
            stroke-width: 2.85;
            stroke-miterlimit: 2;
        }

        .product-range-component .container:hover figure:hover .st1 {
            fill: none;
            stroke: #DD970C;
        }
    </style>
    <defs>
    </defs>
    <circle class="st1" cx="140.6" cy="119.9" r="22.6"></circle>
    <circle class="st1" cx="140.6" cy="119.9" r="12.2"></circle>
    <circle class="st1" cx="64.5" cy="123.4" r="19"></circle>
    <circle class="st1" cx="64.5" cy="123.4" r="10.3"></circle>
    <polyline class="st1" points="119.4,127.8 114.2,128.9 87,128.9 83.5,126.5 "></polyline>
    <path class="st1" d="M44.2,86l3.1,9.2L41,108.1l9.4-3.6c0,0,3-8.2,8.1-9.4c7.7-1.8,26.4-4.6,26.4-4.6"></path>
    <path class="st1" d="M78.7,62.6c0,0,22.7-3.3,46.6-1"></path>
    <path class="st1" d="M81.9,62.2c1,15.9,4.4,37,4.4,37h5.6h27.6c0,0,6.4-9.6,21.9-9.6s22.6,11.4,22.6,11.4"></path>
    <line class="st1" x1="122.5" y1="96" x2="122.1" y2="61.4"></line>
    <path class="st1"
        d="M83.9,82.8H67.5c0,0-22.4-1.2-34.8,9.3c-0.9,2.1-1.5,3.9-1.5,3.9s2.9,1.9,1.2,5c-0.8,1.6,6.5,15.3,2.5,26.1">
    </path>
    <path class="st1" d="M31.5,111.9c0,0-2,1.2-0.9,6.8c0.9,4.3,0.5,7.2,0.5,7.2l7.2,1.9l7.1-4.3"></path>
    <path class="st1" d="M114.3,110.5c0,0,2-6.9,5.2-11.2"></path>
    <path class="st1" d="M59.8,100.4c24.6-7.1,28.1,19.4,28.1,19.4"></path>
    <line class="st1" x1="93.3" y1="106.9" x2="103.4" y2="106.9"></line>
    <line class="st1" x1="93.3" y1="113.9" x2="103.4" y2="113.9"></line>
    <line class="st1" x1="93.3" y1="120.9" x2="103.4" y2="120.9"></line>
    <line class="st1" x1="111" y1="99.2" x2="111" y2="60.9"></line>
    <line class="st1" x1="122.4" y1="84.4" x2="111" y2="84.4"></line>
    <line class="st1" x1="162.7" y1="94.3" x2="156.9" y2="94.3"></line>
    <polyline class="st1" points="162.1,126.5 169.7,126.5 169.7,123.5 "></polyline>
</svg>
