<?xml version="1.0" standalone="no"?>
<!DOCTYPE svg PUBLIC "-//W3C//DTD SVG 20010904//EN"
 "http://www.w3.org/TR/2001/REC-SVG-20010904/DTD/svg10.dtd">
<svg version="1.0" xmlns="http://www.w3.org/2000/svg"
 width="110.000000pt" height="97.000000pt" viewBox="0 0 110.000000 97.000000"
 preserveAspectRatio="xMidYMid meet">
<metadata>
Created by potrace 1.10, written by Peter Selinger 2001-2011
</metadata>
<g transform="translate(0.000000,97.000000) scale(0.050000,-0.050000)"
fill="#fcb026" stroke="none">
<path d="M500 1821 c-93 -22 -182 -40 -196 -40 -17 -1 -24 -21 -20 -56 4 -33
17 -53 33 -49 15 3 24 -2 20 -10 -4 -9 -51 -106 -104 -216 -105 -215 -233
-575 -233 -653 0 -26 79 -204 175 -397 l176 -350 511 -5 510 -6 190 276 c337
488 364 538 352 643 -16 129 -167 595 -227 697 l-49 86 86 -13 c47 -7 151 -24
231 -38 79 -13 149 -19 155 -14 10 11 15 104 5 104 -3 1 -81 14 -175 31 -292
52 -1227 58 -1440 10z m600 -488 l0 -428 -78 -12 c-43 -7 -199 -14 -345 -15
-147 -1 -330 -8 -407 -17 -77 -8 -146 -12 -153 -8 -39 21 308 777 387 842 37
31 237 60 431 63 l165 2 0 -427z m396 396 c74 -52 183 -298 255 -576 l68 -261
-251 -376 c-230 -346 -255 -376 -309 -376 l-59 0 0 810 0 810 126 0 c81 0 141
-11 170 -31z m-396 -1259 l0 -330 -336 0 -335 0 -153 300 c-121 236 -146 300
-119 302 18 1 209 13 423 27 215 14 419 26 455 28 l65 3 0 -330z"/>
</g>
</svg>
