<?xml version="1.0" standalone="no"?>
<!DOCTYPE svg PUBLIC "-//W3C//DTD SVG 20010904//EN"
 "http://www.w3.org/TR/2001/REC-SVG-20010904/DTD/svg10.dtd">
<svg version="1.0" xmlns="http://www.w3.org/2000/svg"
 width="438.000000pt" height="255.000000pt" viewBox="0 0 438.000000 255.000000"
 preserveAspectRatio="xMidYMid meet">
<metadata>
Created by potrace 1.10, written by Peter Selinger 2001-2011
</metadata>
<g transform="translate(0.000000,255.000000) scale(0.100000,-0.100000)"
fill="#fcb026" stroke="none">
<path d="M1705 1761 c-16 -4 -45 -15 -63 -25 -35 -18 -92 -89 -92 -115 0 -8
-6 -33 -14 -56 -8 -22 -22 -67 -31 -100 -24 -80 -40 -138 -62 -212 -15 -51
-24 -64 -52 -80 -48 -25 -107 -88 -134 -143 -18 -36 -22 -62 -22 -135 0 -104
18 -151 88 -223 61 -62 115 -84 213 -85 100 -1 147 17 221 85 l53 49 238 -3
238 -3 55 -56 c44 -46 64 -58 108 -69 76 -18 170 -8 223 23 49 28 102 89 111
128 4 15 15 36 25 49 17 21 19 22 57 6 48 -21 55 -30 55 -83 0 -59 14 -90 52
-113 27 -17 43 -19 88 -14 134 15 247 105 295 235 22 60 54 215 55 265 0 83
-58 100 -81 23 l-12 -39 -154 0 c-120 0 -161 -3 -184 -16 -35 -18 -59 -67 -59
-121 0 -62 -11 -71 -62 -53 -37 13 -47 23 -71 70 -16 30 -43 71 -62 90 -24 26
-39 56 -55 115 -34 125 -42 145 -65 150 -11 2 -82 6 -159 9 -97 3 -142 8 -152
18 -7 7 -33 91 -58 187 -45 176 -63 216 -107 238 -27 14 -370 17 -424 4z m377
-67 c23 -5 30 -15 46 -67 49 -154 99 -364 89 -374 -12 -11 -359 -4 -373 8 -20
16 -15 416 5 429 16 9 190 13 233 4z m-322 -239 c3 -152 9 -227 18 -242 19
-34 65 -53 125 -53 41 0 56 -4 61 -16 8 -21 6 -283 -3 -314 -6 -22 -12 -25
-56 -25 l-50 0 -5 90 c-7 102 -28 155 -89 218 -51 54 -134 96 -191 97 -49 1
-54 12 -36 71 17 56 37 123 63 219 41 146 68 184 127 178 l31 -3 5 -220z m802
-233 c10 -8 21 -30 24 -49 11 -58 -22 -66 -133 -32 -87 26 -153 56 -153 68 0
6 10 17 23 26 18 13 39 14 122 9 67 -4 106 -12 117 -22z m-397 -94 c-16 -74 0
-112 66 -154 l40 -25 -6 -67 c-4 -37 -9 -70 -12 -74 -2 -5 -48 -8 -103 -8 -80
0 -99 3 -104 16 -8 21 -8 329 1 337 3 4 33 7 66 7 l60 0 -8 -32z m-539 -13
c135 -56 185 -207 115 -342 -26 -51 -74 -86 -144 -105 -52 -15 -62 -15 -115 0
-44 12 -69 28 -108 67 -64 64 -84 132 -63 217 13 58 70 127 128 158 44 23 137
26 187 5z m727 -22 c12 -7 8 -31 -9 -47 -19 -19 -63 -20 -86 -2 -18 13 -24 47
-11 60 7 6 90 -2 106 -11z m282 -76 c48 -27 84 -87 91 -154 8 -72 -33 -148
-101 -185 -67 -37 -115 -36 -182 2 -133 76 -142 251 -16 331 61 38 147 41 208
6z m669 -38 c19 -20 -26 -153 -73 -214 -61 -80 -191 -131 -222 -87 -19 27 -20
272 -1 295 22 26 273 31 296 6z"/>
<path d="M1511 916 c-23 -27 -9 -51 29 -51 32 0 35 2 35 30 0 25 -4 31 -26 33
-14 2 -31 -4 -38 -12z"/>
<path d="M2512 878 c-27 -27 -3 -73 35 -66 27 5 25 72 -2 76 -11 1 -26 -3 -33
-10z"/>
</g>
</svg>
