<?xml version="1.0" standalone="no"?>
<!DOCTYPE svg PUBLIC "-//W3C//DTD SVG 20010904//EN"
 "http://www.w3.org/TR/2001/REC-SVG-20010904/DTD/svg10.dtd">
<svg version="1.0" xmlns="http://www.w3.org/2000/svg"
 width="300.000000pt" height="184.000000pt" viewBox="0 0 300.000000 184.000000"
 preserveAspectRatio="xMidYMid meet">
<metadata>
Created by potrace 1.10, written by Peter Selinger 2001-2011
</metadata>
<g transform="translate(0.000000,184.000000) scale(0.100000,-0.100000)"
fill="#fcb026" stroke="none">
<path d="M1327 1657 c-9 -7 -19 -24 -23 -39 -5 -22 -3 -28 10 -28 9 0 16 8 16
19 0 24 18 38 25 19 15 -44 11 -53 -25 -53 -25 0 -36 -5 -38 -17 -3 -14 3 -18
25 -17 l28 1 -25 8 c-17 5 -6 7 37 6 35 0 63 -5 63 -9 0 -9 419 1 434 10 5 4
41 5 80 4 51 -1 67 1 56 9 -12 8 -11 10 8 10 13 0 20 -4 17 -10 -3 -5 3 -10
14 -10 12 0 21 6 21 13 1 7 6 5 14 -5 7 -10 15 -16 17 -14 2 2 52 6 111 8 60
1 108 6 108 11 0 4 -7 7 -15 7 -8 0 -15 5 -15 10 0 6 9 10 20 10 13 0 20 -7
20 -19 0 -14 7 -19 33 -18 108 1 264 -21 241 -35 -5 -3 -126 -9 -269 -12 -143
-3 -327 -9 -410 -11 -726 -25 -1318 -31 -1532 -14 -158 12 -212 29 -92 29 43
0 58 3 53 12 -5 8 22 9 108 4 63 -4 227 -6 364 -5 137 1 296 1 353 0 101 -1
120 4 121 32 0 8 -863 -2 -999 -12 l-83 -6 0 -581 c0 -319 3 -594 6 -611 7
-30 8 -31 139 -57 140 -28 167 -31 167 -18 0 7 -152 46 -233 59 -27 4 -41 12
-47 27 -8 21 -14 93 -11 129 1 21 24 22 41 2 10 -11 16 -12 26 -4 22 18 191
-10 206 -35 4 -6 16 -12 27 -12 11 -1 18 3 15 7 -3 5 5 9 16 9 15 0 20 -5 17
-14 -5 -13 18 -31 36 -28 4 1 7 -16 7 -38 0 -23 -5 -40 -11 -40 -6 0 -9 9 -6
19 4 17 2 18 -14 8 -19 -12 -18 -12 2 -28 17 -13 20 -22 15 -50 -6 -31 -5 -32
5 -9 6 14 14 57 17 95 l7 70 34 1 c19 0 36 5 39 12 2 8 -12 12 -48 12 -29 0
-116 11 -194 25 -251 46 -248 45 -241 63 8 21 7 911 -1 924 -6 9 65 6 216 -9
75 -7 520 -4 885 5 315 9 305 10 305 -33 0 -19 -6 -35 -14 -38 -19 -8 -26 1
-26 35 0 15 -4 28 -10 28 -16 0 -12 -57 6 -74 18 -19 34 -21 34 -5 0 6 6 9 14
6 17 -7 27 15 16 34 -6 8 -4 16 3 21 9 6 9 8 0 8 -7 0 -13 6 -13 14 0 10 20
14 88 15 48 1 238 6 422 11 458 13 455 13 441 -4 -7 -9 -8 -17 -2 -20 5 -3 8
-23 6 -44 -6 -64 -6 -702 0 -712 4 -6 1 -10 -5 -10 -6 0 -8 -5 -4 -12 4 -6 8
-24 10 -41 1 -16 7 -34 13 -40 8 -8 11 115 9 468 l-3 480 -122 9 c-92 7 -123
12 -123 23 0 8 -13 13 -37 14 l-38 1 28 10 c21 7 32 7 40 -1 14 -14 37 -14 37
0 0 5 -4 7 -10 4 -5 -3 -10 -1 -10 5 0 7 -19 10 -52 8 -48 -3 -53 -5 -56 -28
l-3 -25 -120 2 c-66 0 -123 4 -126 7 -10 9 -108 7 -119 -3 -5 -5 -120 -11
-256 -13 l-248 -4 0 30 c0 21 -3 27 -9 18 -7 -11 -10 -10 -15 3 -8 23 -8 27 4
20 6 -3 10 -4 10 -1 0 15 -38 24 -53 13z m-1037 -1147 c0 -5 -7 -10 -16 -10
-8 0 -12 5 -9 10 3 6 10 10 16 10 5 0 9 -4 9 -10z m234 -51 c-3 -5 -10 -7 -15
-3 -5 3 -7 10 -3 15 3 5 10 7 15 3 5 -3 7 -10 3 -15z m86 -19 c0 -5 -4 -10
-10 -10 -5 0 -10 5 -10 10 0 6 5 10 10 10 6 0 10 -4 10 -10z"/>
<path d="M1728 1523 c7 -3 16 -2 19 1 4 3 -2 6 -13 5 -11 0 -14 -3 -6 -6z"/>
<path d="M1766 1522 c-2 -4 12 -6 32 -4 62 6 69 10 20 11 -26 0 -49 -3 -52 -7z"/>
<path d="M595 1510 c-3 -5 -1 -10 4 -10 6 0 11 5 11 10 0 6 -2 10 -4 10 -3 0
-8 -4 -11 -10z"/>
<path d="M1428 1513 c18 -2 45 -2 60 0 15 2 0 4 -33 4 -33 0 -45 -2 -27 -4z"/>
<path d="M1538 1513 c6 -2 18 -2 25 0 6 3 1 5 -13 5 -14 0 -19 -2 -12 -5z"/>
<path d="M838 1503 c6 -2 18 -2 25 0 6 3 1 5 -13 5 -14 0 -19 -2 -12 -5z"/>
<path d="M943 1503 c20 -2 54 -2 75 0 20 2 3 4 -38 4 -41 0 -58 -2 -37 -4z"/>
<path d="M1098 1503 c6 -2 18 -2 25 0 6 3 1 5 -13 5 -14 0 -19 -2 -12 -5z"/>
<path d="M718 1493 c6 -2 18 -2 25 0 6 3 1 5 -13 5 -14 0 -19 -2 -12 -5z"/>
<path d="M2411 1484 c0 -11 3 -14 6 -6 3 7 2 16 -1 19 -3 4 -6 -2 -5 -13z"/>
<path d="M2440 1493 c0 -7 0 -16 1 -19 0 -4 -5 -10 -12 -15 -16 -9 -21 -39 -7
-39 6 0 8 7 4 15 -4 11 2 15 24 15 26 0 30 3 29 28 -2 23 -2 24 -6 5 -2 -13
-9 -23 -14 -23 -6 0 -8 4 -5 8 2 4 1 14 -5 22 -6 10 -9 11 -9 3z"/>
<path d="M2252 1465 c0 -16 2 -22 5 -12 2 9 2 23 0 30 -3 6 -5 -1 -5 -18z"/>
<path d="M1880 1470 l-175 -5 -3 -98 -2 -99 142 6 c79 4 194 9 256 12 l112 6
0 94 0 94 -77 -2 c-43 -1 -157 -5 -253 -8z m299 -23 c6 -7 10 -27 9 -43 -1
-16 2 -36 6 -44 13 -30 -16 -48 -86 -53 l-68 -5 0 79 0 79 64 0 c40 0 68 -5
75 -13z m-401 -34 c3 -31 1 -33 -27 -33 -29 0 -31 3 -31 36 0 33 2 35 28 32
22 -2 28 -8 30 -35z m72 -27 c0 -76 -14 -96 -69 -96 -43 0 -61 14 -61 47 0 16
6 23 20 23 11 0 20 -7 20 -15 0 -9 9 -15 25 -15 24 0 25 3 25 60 0 53 2 60 20
60 18 0 20 -7 20 -64z m168 37 c4 -25 -9 -29 -37 -12 -10 7 -30 9 -44 5 -23
-5 -27 -12 -27 -41 0 -33 2 -35 34 -35 19 0 38 5 41 10 3 6 15 10 26 10 17 0
19 -4 13 -22 -10 -32 -22 -38 -85 -38 -65 0 -69 5 -69 79 0 63 12 72 85 69 54
-3 60 -5 63 -25z m-58 -48 c10 -12 10 -15 -4 -15 -9 0 -16 7 -16 15 0 8 2 15
4 15 2 0 9 -7 16 -15z"/>
<path d="M2113 1422 c-18 -2 -33 -7 -33 -13 0 -12 67 -12 75 0 8 13 -5 17 -42
13z"/>
<path d="M2080 1355 c0 -11 11 -15 40 -15 29 0 40 4 40 15 0 11 -11 15 -40 15
-29 0 -40 -4 -40 -15z"/>
<path d="M1740 1415 c0 -8 5 -15 10 -15 6 0 10 7 10 15 0 8 -4 15 -10 15 -5 0
-10 -7 -10 -15z"/>
<path d="M1533 1395 c0 -44 2 -61 4 -37 2 23 2 59 0 80 -2 20 -4 1 -4 -43z"/>
<path d="M802 1425 c0 -16 2 -22 5 -12 2 9 2 23 0 30 -3 6 -5 -1 -5 -18z"/>
<path d="M1593 1435 c0 -8 4 -15 9 -15 4 0 8 7 8 15 0 8 -4 15 -8 15 -5 0 -9
-7 -9 -15z"/>
<path d="M1661 1434 c0 -11 3 -14 6 -6 3 7 2 16 -1 19 -3 4 -6 -2 -5 -13z"/>
<path d="M2470 1414 c0 -11 -6 -13 -19 -9 -11 3 -22 1 -26 -5 -4 -6 6 -10 24
-10 24 0 31 4 31 20 0 11 -2 20 -5 20 -3 0 -5 -7 -5 -16z"/>
<path d="M2230 1381 c0 -39 12 -53 38 -43 7 2 12 21 12 43 0 35 -3 39 -25 39
-22 0 -25 -4 -25 -39z"/>
<path d="M300 1388 c0 -5 13 -8 29 -8 16 0 36 -3 45 -6 9 -3 16 -2 16 4 0 5
-20 12 -45 14 -25 2 -45 0 -45 -4z"/>
<path d="M1662 1380 c0 -14 2 -19 5 -12 2 6 2 18 0 25 -3 6 -5 1 -5 -13z"/>
<path d="M400 1382 c0 -12 90 -21 96 -10 3 5 -7 8 -23 8 -15 0 -38 3 -50 6
-13 4 -23 2 -23 -4z"/>
<path d="M770 1335 c0 -43 1 -45 30 -45 29 0 30 2 30 45 0 43 -1 45 -30 45
-29 0 -30 -2 -30 -45z"/>
<path d="M300 1350 c0 -14 6 -20 23 -19 21 0 21 1 2 9 -17 7 -17 9 -2 9 24 1
22 21 -3 21 -13 0 -20 -7 -20 -20z"/>
<path d="M358 1353 c6 -2 18 -2 25 0 6 3 1 5 -13 5 -14 0 -19 -2 -12 -5z"/>
<path d="M400 1356 c0 -2 9 -6 20 -9 11 -3 20 -1 20 4 0 5 -9 9 -20 9 -11 0
-20 -2 -20 -4z"/>
<path d="M450 1350 c0 -5 12 -10 28 -9 24 0 25 1 7 9 -27 12 -35 12 -35 0z"/>
<path d="M350 1336 c0 -2 9 -6 20 -9 11 -3 20 -1 20 4 0 5 -9 9 -20 9 -11 0
-20 -2 -20 -4z"/>
<path d="M400 1329 c0 -5 9 -9 20 -9 11 0 20 2 20 4 0 2 -9 6 -20 9 -11 3 -20
1 -20 -4z"/>
<path d="M1562 1327 c-32 -40 -17 -103 26 -114 35 -9 76 38 67 76 -4 14 -11
31 -16 37 -12 15 -65 15 -77 1z m48 -27 c8 -14 8 -26 0 -41 -16 -28 -44 -20
-48 14 -3 22 1 27 20 28 22 0 22 1 3 9 -17 7 -17 9 -3 9 10 1 22 -8 28 -19z
m30 -44 c0 -2 -8 -10 -17 -17 -16 -13 -17 -12 -4 4 13 16 21 21 21 13z"/>
<path d="M1573 1265 c0 -8 4 -15 9 -15 4 0 8 7 8 15 0 8 -4 15 -8 15 -5 0 -9
-7 -9 -15z"/>
<path d="M450 1326 c0 -2 9 -6 20 -9 11 -3 20 -1 20 4 0 5 -9 9 -20 9 -11 0
-20 -2 -20 -4z"/>
<path d="M1061 1314 c-11 -13 -9 -31 15 -117 29 -109 47 -147 67 -147 25 0
190 75 200 92 14 21 -9 122 -32 142 -9 8 -62 21 -117 30 -121 19 -116 19 -133
0z m136 -25 c45 -6 89 -16 97 -23 18 -13 42 -97 34 -117 -7 -17 -164 -83 -182
-76 -13 5 -77 223 -68 232 3 3 13 3 21 1 9 -3 53 -10 98 -17z"/>
<path d="M1150 1243 c14 -3 31 -10 38 -15 7 -6 15 -8 19 -4 3 3 1 6 -6 6 -7 0
-9 5 -6 10 4 6 -9 9 -32 9 -28 -1 -31 -3 -13 -6z"/>
<path d="M1122 1210 c0 -14 2 -19 5 -12 2 6 2 18 0 25 -3 6 -5 1 -5 -13z"/>
<path d="M1240 1220 c0 -5 5 -10 11 -10 5 0 7 5 4 10 -3 6 -8 10 -11 10 -2 0
-4 -4 -4 -10z"/>
<path d="M1222 1200 c0 -14 2 -19 5 -12 2 6 2 18 0 25 -3 6 -5 1 -5 -13z"/>
<path d="M1160 1160 c0 -11 6 -20 13 -20 8 0 7 -4 -3 -10 -11 -7 -2 -10 31
-10 36 0 48 4 54 18 5 14 4 15 -6 5 -7 -7 -23 -13 -35 -13 -25 0 -50 25 -35
34 5 4 14 -2 20 -11 9 -16 10 -16 11 5 0 17 -6 22 -25 22 -18 0 -25 -5 -25
-20z"/>
<path d="M1290 1150 c-8 -5 -12 -11 -9 -14 2 -3 11 -1 19 4 8 5 12 11 9 14 -2
3 -11 1 -19 -4z"/>
<path d="M1147 1089 c7 -7 15 -10 18 -7 3 3 -2 9 -12 12 -14 6 -15 5 -6 -5z"/>
<path d="M300 1316 c0 -2 9 -6 20 -9 11 -3 20 -1 20 4 0 5 -9 9 -20 9 -11 0
-20 -2 -20 -4z"/>
<path d="M350 1309 c0 -5 9 -9 20 -9 11 0 20 2 20 4 0 2 -9 6 -20 9 -11 3 -20
1 -20 -4z"/>
<path d="M400 1306 c0 -2 9 -6 20 -9 11 -3 20 -1 20 4 0 5 -9 9 -20 9 -11 0
-20 -2 -20 -4z"/>
<path d="M450 1300 c0 -5 10 -10 23 -10 18 0 19 2 7 10 -19 13 -30 13 -30 0z"/>
<path d="M2254 1085 c0 -126 2 -177 3 -112 2 65 2 168 0 230 -1 62 -3 9 -3
-118z"/>
<path d="M300 1289 c0 -5 9 -9 20 -9 11 0 20 2 20 4 0 2 -9 6 -20 9 -11 3 -20
1 -20 -4z"/>
<path d="M350 1286 c0 -2 9 -6 20 -9 11 -3 20 -1 20 4 0 5 -9 9 -20 9 -11 0
-20 -2 -20 -4z"/>
<path d="M400 1279 c0 -5 9 -9 20 -9 11 0 20 2 20 4 0 2 -9 6 -20 9 -11 3 -20
1 -20 -4z"/>
<path d="M450 1276 c0 -2 9 -6 20 -9 11 -3 20 -1 20 4 0 5 -9 9 -20 9 -11 0
-20 -2 -20 -4z"/>
<path d="M801 1264 c0 -11 3 -14 6 -6 3 7 2 16 -1 19 -3 4 -6 -2 -5 -13z"/>
<path d="M308 1263 c6 -2 18 -2 25 0 6 3 1 5 -13 5 -14 0 -19 -2 -12 -5z"/>
<path d="M350 1260 c0 -5 10 -10 23 -10 18 0 19 2 7 10 -19 13 -30 13 -30 0z"/>
<path d="M408 1253 c6 -2 18 -2 25 0 6 3 1 5 -13 5 -14 0 -19 -2 -12 -5z"/>
<path d="M450 1250 c0 -5 10 -10 23 -10 18 0 19 2 7 10 -19 13 -30 13 -30 0z"/>
<path d="M300 1240 c0 -5 9 -10 21 -10 11 0 17 5 14 10 -3 6 -13 10 -21 10 -8
0 -14 -4 -14 -10z"/>
<path d="M358 1233 c6 -2 18 -2 25 0 6 3 1 5 -13 5 -14 0 -19 -2 -12 -5z"/>
<path d="M400 1230 c0 -5 9 -10 21 -10 11 0 17 5 14 10 -3 6 -13 10 -21 10 -8
0 -14 -4 -14 -10z"/>
<path d="M804 1105 c0 -77 2 -107 3 -67 2 40 2 103 0 140 -2 37 -3 4 -3 -73z"/>
<path d="M1533 1185 c0 -33 2 -45 4 -27 2 18 2 45 0 60 -2 15 -4 0 -4 -33z"/>
<path d="M1663 1185 c0 -33 2 -45 4 -27 2 18 2 45 0 60 -2 15 -4 0 -4 -33z"/>
<path d="M465 1220 c17 -7 17 -9 3 -9 -25 -1 -23 -21 2 -21 13 0 20 7 20 20 0
14 -6 20 -22 19 -22 0 -22 -1 -3 -9z"/>
<path d="M308 1213 c6 -2 18 -2 25 0 6 3 1 5 -13 5 -14 0 -19 -2 -12 -5z"/>
<path d="M350 1210 c0 -5 9 -10 21 -10 11 0 17 5 14 10 -3 6 -13 10 -21 10 -8
0 -14 -4 -14 -10z"/>
<path d="M408 1203 c6 -2 18 -2 25 0 6 3 1 5 -13 5 -14 0 -19 -2 -12 -5z"/>
<path d="M300 1180 c0 -14 6 -20 23 -19 21 0 21 1 2 9 -17 7 -17 9 -2 9 24 1
22 21 -3 21 -13 0 -20 -7 -20 -20z"/>
<path d="M358 1183 c6 -2 18 -2 25 0 6 3 1 5 -13 5 -14 0 -19 -2 -12 -5z"/>
<path d="M400 1180 c0 -5 10 -10 23 -10 18 0 19 2 7 10 -19 13 -30 13 -30 0z"/>
<path d="M458 1173 c6 -2 18 -2 25 0 6 3 1 5 -13 5 -14 0 -19 -2 -12 -5z"/>
<path d="M1562 1154 c-1 -14 2 -23 7 -20 5 4 8 13 7 21 -4 25 -12 25 -14 -1z"/>
<path d="M1590 1164 c0 -8 5 -12 10 -9 6 3 10 10 10 16 0 5 -4 9 -10 9 -5 0
-10 -7 -10 -16z"/>
<path d="M355 1160 c3 -5 13 -10 21 -10 8 0 14 5 14 10 0 6 -9 10 -21 10 -11
0 -17 -4 -14 -10z"/>
<path d="M408 1153 c6 -2 18 -2 25 0 6 3 1 5 -13 5 -14 0 -19 -2 -12 -5z"/>
<path d="M450 1150 c0 -5 9 -10 20 -10 11 0 20 5 20 10 0 6 -9 10 -20 10 -11
0 -20 -4 -20 -10z"/>
<path d="M1620 1139 c0 -14 -5 -19 -15 -16 -8 4 -17 2 -20 -3 -4 -6 3 -10 14
-10 31 0 25 -18 -6 -23 -27 -4 -27 -4 3 -6 30 -1 32 1 32 39 0 22 -1 40 -4 40
-2 0 -4 -9 -4 -21z"/>
<path d="M310 1140 c19 -13 30 -13 30 0 0 6 -10 10 -22 10 -19 0 -20 -2 -8
-10z"/>
<path d="M358 1133 c6 -2 18 -2 25 0 6 3 1 5 -13 5 -14 0 -19 -2 -12 -5z"/>
<path d="M405 1130 c3 -5 13 -10 21 -10 8 0 14 5 14 10 0 6 -9 10 -21 10 -11
0 -17 -4 -14 -10z"/>
<path d="M300 1119 c0 -5 9 -9 20 -9 11 0 20 2 20 4 0 2 -9 6 -20 9 -11 3 -20
1 -20 -4z"/>
<path d="M458 1123 c6 -2 18 -2 25 0 6 3 1 5 -13 5 -14 0 -19 -2 -12 -5z"/>
<path d="M1680 1066 l0 -63 53 4 c28 3 56 5 60 7 5 1 10 27 10 59 l2 57 -62 0
-63 0 0 -64z m65 34 c-3 -5 -13 -6 -22 -3 -11 4 -9 -1 6 -16 21 -21 21 -24 6
-35 -14 -10 -11 -12 20 -8 26 3 36 1 31 -7 -4 -6 -25 -11 -47 -11 l-39 0 0 45
c0 42 2 45 26 45 14 0 23 -4 19 -10z m35 -24 c0 -24 -17 -28 -23 -6 -3 13 0
20 9 20 8 0 14 -6 14 -14z"/>
<path d="M360 1110 c19 -13 30 -13 30 0 0 6 -10 10 -22 10 -19 0 -20 -2 -8
-10z"/>
<path d="M1397 1113 c-10 -10 -8 -111 2 -117 5 -3 36 -3 70 0 l61 7 0 58 0 59
-63 0 c-35 0 -67 -3 -70 -7z m102 -46 c-2 -18 0 -38 5 -45 5 -9 -6 -12 -46
-11 -29 1 -41 4 -27 6 21 3 25 8 21 28 -6 35 4 55 28 55 18 0 21 -5 19 -33z
m-69 -21 c-14 -14 -24 0 -16 21 6 15 8 15 16 3 6 -9 5 -19 0 -24z"/>
<path d="M408 1103 c6 -2 18 -2 25 0 6 3 1 5 -13 5 -14 0 -19 -2 -12 -5z"/>
<path d="M450 1100 c0 -5 9 -10 20 -10 11 0 20 5 20 10 0 6 -9 10 -20 10 -11
0 -20 -4 -20 -10z"/>
<path d="M300 1096 c0 -2 9 -6 20 -9 11 -3 20 -1 20 4 0 5 -9 9 -20 9 -11 0
-20 -2 -20 -4z"/>
<path d="M350 1089 c0 -5 9 -9 20 -9 11 0 20 2 20 4 0 2 -9 6 -20 9 -11 3 -20
1 -20 -4z"/>
<path d="M410 1080 c19 -13 30 -13 30 0 0 6 -10 10 -22 10 -19 0 -20 -2 -8
-10z"/>
<path d="M300 1070 c0 -5 10 -10 23 -10 18 0 19 2 7 10 -19 13 -30 13 -30 0z"/>
<path d="M458 1073 c6 -2 18 -2 25 0 6 3 1 5 -13 5 -14 0 -19 -2 -12 -5z"/>
<path d="M350 1066 c0 -2 9 -6 20 -9 11 -3 20 -1 20 4 0 5 -9 9 -20 9 -11 0
-20 -2 -20 -4z"/>
<path d="M400 1059 c0 -5 9 -9 20 -9 11 0 20 2 20 4 0 2 -9 6 -20 9 -11 3 -20
1 -20 -4z"/>
<path d="M455 1050 c3 -5 15 -10 26 -10 11 0 17 5 14 10 -3 6 -15 10 -26 10
-11 0 -17 -4 -14 -10z"/>
<path d="M308 1043 c6 -2 18 -2 25 0 6 3 1 5 -13 5 -14 0 -19 -2 -12 -5z"/>
<path d="M350 1039 c0 -5 9 -9 20 -9 11 0 20 2 20 4 0 2 -9 6 -20 9 -11 3 -20
1 -20 -4z"/>
<path d="M410 1030 c19 -13 30 -13 30 0 0 6 -10 10 -22 10 -19 0 -20 -2 -8
-10z"/>
<path d="M300 1020 c0 -5 9 -10 21 -10 11 0 17 5 14 10 -3 6 -13 10 -21 10 -8
0 -14 -4 -14 -10z"/>
<path d="M458 1023 c6 -2 18 -2 25 0 6 3 1 5 -13 5 -14 0 -19 -2 -12 -5z"/>
<path d="M350 1016 c0 -2 9 -6 20 -9 11 -3 20 -1 20 4 0 5 -9 9 -20 9 -11 0
-20 -2 -20 -4z"/>
<path d="M400 1009 c0 -5 9 -9 20 -9 11 0 20 2 20 4 0 2 -9 6 -20 9 -11 3 -20
1 -20 -4z"/>
<path d="M455 1000 c3 -5 13 -10 21 -10 8 0 14 5 14 10 0 6 -9 10 -21 10 -11
0 -17 -4 -14 -10z"/>
<path d="M308 993 c6 -2 18 -2 25 0 6 3 1 5 -13 5 -14 0 -19 -2 -12 -5z"/>
<path d="M350 990 c0 -5 10 -10 23 -10 18 0 19 2 7 10 -19 13 -30 13 -30 0z"/>
<path d="M1664 830 c0 -96 2 -136 3 -87 2 48 2 126 0 175 -1 48 -3 8 -3 -88z"/>
<path d="M400 986 c0 -2 9 -6 20 -9 11 -3 20 -1 20 4 0 5 -9 9 -20 9 -11 0
-20 -2 -20 -4z"/>
<path d="M1532 819 l-2 -176 -67 -6 c-38 -4 -120 -9 -183 -13 -83 -5 -120 -11
-133 -22 -13 -12 -20 -13 -29 -4 -14 14 -80 16 -94 3 -12 -11 -94 -19 -94 -9
0 10 -98 9 -170 -2 -44 -7 -37 -8 35 -4 l90 5 -3 -48 c-3 -39 0 -50 17 -60 18
-11 19 -10 18 32 -1 24 0 46 3 48 3 3 57 7 120 9 l115 3 12 -35 13 -35 -3 50
-2 50 178 11 c98 6 180 14 183 16 2 3 3 86 1 184 l-2 179 -3 -176z"/>
<path d="M310 970 c19 -13 30 -13 30 0 0 6 -10 10 -22 10 -19 0 -20 -2 -8 -10z"/>
<path d="M463 973 c9 -2 23 -2 30 0 6 3 -1 5 -18 5 -16 0 -22 -2 -12 -5z"/>
<path d="M358 963 c6 -2 18 -2 25 0 6 3 1 5 -13 5 -14 0 -19 -2 -12 -5z"/>
<path d="M400 959 c0 -5 9 -9 20 -9 11 0 20 2 20 4 0 2 -9 6 -20 9 -11 3 -20
1 -20 -4z"/>
<path d="M300 949 c0 -5 9 -9 20 -9 11 0 20 2 20 4 0 2 -9 6 -20 9 -11 3 -20
1 -20 -4z"/>
<path d="M460 950 c19 -13 30 -13 30 0 0 6 -10 10 -22 10 -19 0 -20 -2 -8 -10z"/>
<path d="M355 940 c3 -5 13 -10 21 -10 8 0 12 5 9 10 -3 6 -13 10 -21 10 -8 0
-12 -4 -9 -10z"/>
<path d="M400 936 c0 -2 9 -6 20 -9 11 -3 20 -1 20 4 0 5 -9 9 -20 9 -11 0
-20 -2 -20 -4z"/>
<path d="M450 929 c0 -5 11 -9 25 -9 14 0 25 2 25 4 0 2 -11 6 -25 8 -14 3
-25 1 -25 -3z"/>
<path d="M803 900 c0 -25 2 -35 4 -22 2 12 2 32 0 45 -2 12 -4 2 -4 -23z"/>
<path d="M300 926 c0 -2 9 -6 20 -9 11 -3 20 -1 20 4 0 5 -9 9 -20 9 -11 0
-20 -2 -20 -4z"/>
<path d="M358 913 c6 -2 18 -2 25 0 6 3 1 5 -13 5 -14 0 -19 -2 -12 -5z"/>
<path d="M400 910 c0 -5 10 -10 23 -10 18 0 19 2 7 10 -19 13 -30 13 -30 0z"/>
<path d="M300 900 c0 -8 81 -20 89 -13 8 6 -4 10 -46 16 -24 3 -43 1 -43 -3z"/>
<path d="M465 900 c28 -12 37 -12 30 0 -3 6 -16 10 -28 9 -21 0 -21 -1 -2 -9z"/>
<path d="M408 883 c6 -2 18 -2 25 0 6 3 1 5 -13 5 -14 0 -19 -2 -12 -5z"/>
<path d="M450 879 c0 -5 11 -9 25 -9 14 0 25 2 25 4 0 2 -11 6 -25 8 -14 3
-25 1 -25 -3z"/>
<path d="M300 876 c0 -2 9 -6 20 -9 11 -3 20 -1 20 4 0 5 -9 9 -20 9 -11 0
-20 -2 -20 -4z"/>
<path d="M350 869 c0 -5 9 -9 20 -9 11 0 20 2 20 4 0 2 -9 6 -20 9 -11 3 -20
1 -20 -4z"/>
<path d="M405 860 c3 -5 13 -10 21 -10 8 0 14 5 14 10 0 6 -9 10 -21 10 -11 0
-17 -4 -14 -10z"/>
<path d="M305 850 c3 -5 13 -10 21 -10 8 0 12 5 9 10 -3 6 -13 10 -21 10 -8 0
-12 -4 -9 -10z"/>
<path d="M450 856 c0 -2 9 -6 20 -9 11 -3 20 -1 20 4 0 5 -9 9 -20 9 -11 0
-20 -2 -20 -4z"/>
<path d="M350 846 c0 -2 9 -6 20 -9 11 -3 20 -1 20 4 0 5 -9 9 -20 9 -11 0
-20 -2 -20 -4z"/>
<path d="M2237 844 c-13 -13 -8 -82 6 -87 23 -9 35 6 39 48 2 34 0 40 -17 43
-12 2 -24 0 -28 -4z m30 -56 c-3 -7 -5 -2 -5 12 0 14 2 19 5 13 2 -7 2 -19 0
-25z"/>
<path d="M300 829 c0 -4 37 -12 83 -18 45 -7 90 -14 100 -17 9 -3 17 -1 17 4
0 4 -45 15 -100 23 -55 8 -100 12 -100 8z"/>
<path d="M408 833 c6 -2 18 -2 25 0 6 3 1 5 -13 5 -14 0 -19 -2 -12 -5z"/>
<path d="M450 830 c0 -5 12 -10 28 -9 24 0 25 1 7 9 -27 12 -35 12 -35 0z"/>
<path d="M801 804 c0 -11 3 -14 6 -6 3 7 2 16 -1 19 -3 4 -6 -2 -5 -13z"/>
<path d="M302 805 c11 -11 88 -24 88 -14 0 5 -6 9 -14 9 -7 0 -29 3 -47 6 -19
4 -31 3 -27 -1z"/>
<path d="M300 779 c0 -4 25 -10 57 -14 31 -4 62 -9 70 -12 7 -3 13 -1 13 4 0
5 -31 14 -70 19 -38 5 -70 7 -70 3z"/>
<path d="M425 780 c17 -4 41 -8 55 -8 23 -1 23 0 5 8 -11 5 -36 8 -55 8 l-35
0 30 -8z"/>
<path d="M787 763 c-14 -4 -17 -13 -15 -46 3 -43 15 -52 48 -36 11 5 15 19 12
48 -4 40 -8 44 -45 34z m24 -38 c7 19 8 19 8 -2 1 -14 -5 -23 -14 -23 -9 0
-15 9 -14 23 1 20 2 20 7 2 5 -20 5 -20 13 0z"/>
<path d="M300 756 c0 -2 9 -6 20 -9 11 -3 20 -1 20 4 0 5 -9 9 -20 9 -11 0
-20 -2 -20 -4z"/>
<path d="M465 750 c27 -12 35 -12 35 0 0 6 -12 10 -27 9 -25 0 -26 -1 -8 -9z"/>
<path d="M358 743 c6 -2 18 -2 25 0 6 3 1 5 -13 5 -14 0 -19 -2 -12 -5z"/>
<path d="M400 739 c0 -5 8 -9 19 -9 10 0 34 -3 52 -6 19 -4 31 -4 28 0 -10 10
-99 24 -99 15z"/>
<path d="M300 732 c0 -5 35 -15 78 -21 42 -7 87 -15 100 -18 12 -3 22 -1 22 4
0 5 -37 15 -82 22 -46 7 -91 15 -100 18 -10 2 -18 0 -18 -5z"/>
<path d="M2251 714 c0 -11 3 -14 6 -6 3 7 2 16 -1 19 -3 4 -6 -2 -5 -13z"/>
<path d="M2447 693 c18 -2 50 -2 70 0 21 2 7 4 -32 4 -38 0 -55 -2 -38 -4z"/>
<path d="M1985 669 c-132 -9 -260 -18 -285 -19 -25 -1 -36 -5 -26 -7 18 -5
386 17 641 37 l100 7 -95 0 c-52 -1 -203 -9 -335 -18z"/>
<path d="M915 671 c-78 -6 -80 -7 -83 -33 l-3 -28 73 0 c46 1 80 6 91 14 12
10 14 15 6 18 -7 2 -9 10 -5 16 12 20 26 13 26 -13 0 -25 2 -26 58 -23 54 3
57 4 60 31 l3 27 -73 -2 c-40 -1 -109 -4 -153 -7z m165 -16 c0 -8 8 -15 18
-14 10 0 12 3 5 6 -20 7 -15 23 6 23 13 0 18 -6 17 -17 -4 -23 -96 -33 -96
-10 0 19 10 27 32 27 10 0 18 -7 18 -15z m-200 -6 c0 -5 -4 -8 -9 -4 -5 3 -12
1 -16 -5 -3 -5 1 -10 10 -10 8 0 18 7 21 15 7 17 44 21 44 4 0 -8 6 -7 17 2
12 11 17 11 20 2 8 -22 -1 -27 -64 -30 -47 -2 -63 1 -63 10 0 8 3 17 7 20 10
11 33 8 33 -4z"/>
<path d="M1040 650 c0 -5 4 -10 9 -10 6 0 13 5 16 10 3 6 -1 10 -9 10 -9 0
-16 -4 -16 -10z"/>
<path d="M900 639 c0 -5 5 -7 10 -4 6 3 10 8 10 11 0 2 -4 4 -10 4 -5 0 -10
-5 -10 -11z"/>
<path d="M370 615 c160 -30 216 -38 210 -32 -7 7 -289 57 -315 56 -11 -1 36
-12 105 -24z"/>
<path d="M1558 633 c7 -3 16 -2 19 1 4 3 -2 6 -13 5 -11 0 -14 -3 -6 -6z"/>
<path d="M2543 593 c-7 -2 -13 -9 -13 -14 0 -6 5 -7 10 -4 10 6 14 -7 10 -34
-1 -7 4 -36 10 -63 7 -27 10 -51 8 -53 -2 -2 -26 -7 -53 -10 l-50 -5 -13 57
c-8 32 -16 68 -19 81 -5 20 -2 22 41 22 27 0 46 5 46 11 0 11 -109 8 -260 -7
l-56 -6 4 -69 c6 -107 2 -116 -60 -123 -199 -20 -192 -20 -183 0 4 11 10 51
12 89 l5 70 76 2 c41 1 86 4 99 7 22 6 23 4 24 -41 2 -84 17 -107 18 -28 0 39
-3 75 -7 82 -6 10 -53 9 -217 -2 -116 -8 -233 -17 -261 -20 l-51 -6 4 -57 c5
-82 13 -122 22 -122 12 0 31 80 31 129 l0 41 58 0 c31 1 76 5 99 9 27 5 46 4
53 -3 8 -8 13 -7 20 4 7 10 10 -8 10 -57 0 -40 -2 -73 -4 -73 -3 0 -10 27 -17
60 -9 48 -15 60 -30 60 -11 0 -19 -7 -19 -15 0 -8 7 -15 15 -15 18 0 18 -2 36
-88 l13 -63 70 7 c51 5 67 4 62 -5 -4 -6 -29 -11 -57 -11 -43 0 -49 -3 -49
-21 0 -19 1 -19 16 -5 9 9 32 16 54 16 22 0 40 5 43 13 3 10 9 10 26 0 11 -7
30 -13 41 -13 32 0 23 -15 -10 -18 -16 -1 -30 2 -30 8 0 5 -4 10 -10 10 -5 0
-10 -11 -10 -25 0 -14 -3 -25 -7 -26 -5 0 -16 -2 -25 -4 -9 -2 -33 1 -53 5
-27 6 -35 5 -35 -6 0 -8 -4 -14 -10 -14 -5 0 -10 8 -10 18 0 10 -3 13 -8 6 -4
-7 -54 -12 -137 -12 -71 -1 -161 -6 -200 -11 -38 -6 -120 -13 -182 -17 -109
-6 -112 -6 -106 15 7 27 51 40 145 43 42 1 74 6 72 10 -3 5 -55 8 -115 7 -85
-2 -109 -5 -105 -15 3 -8 1 -16 -4 -19 -6 -4 -10 -19 -10 -34 0 -32 -18 -41
-82 -41 -33 0 -38 3 -38 24 0 17 7 26 27 30 14 4 29 3 32 -2 3 -6 12 -4 19 5
12 12 7 14 -40 11 l-53 -3 3 -37 c3 -36 2 -38 -25 -33 -55 9 -242 13 -245 5
-2 -5 -39 -11 -83 -14 -44 -2 -120 -8 -170 -11 -74 -5 -102 -3 -159 14 -75 22
-93 32 -55 30 13 -1 60 2 104 7 93 10 245 10 295 0 29 -5 28 -4 -10 10 -51 18
-120 19 -418 9 -200 -7 -252 -16 -169 -29 23 -4 108 -23 189 -42 l147 -35 203
16 c112 10 272 17 357 16 119 -1 156 2 165 13 14 17 408 48 634 50 100 1 155
5 160 12 8 14 264 34 442 35 146 1 117 15 -46 22 -84 4 -172 15 -361 43 -18 3
-33 9 -33 15 0 6 4 8 8 5 4 -2 80 2 168 9 88 7 167 13 175 12 8 -1 42 2 75 7
60 7 62 8 73 45 6 21 11 66 11 100 0 60 0 61 -27 60 -16 0 -34 -3 -40 -6z m47
-63 c0 -27 -4 -50 -10 -50 -11 0 -14 83 -3 93 12 12 13 8 13 -43z m-200 -28
c6 -31 14 -67 17 -79 5 -21 1 -23 -32 -23 -32 0 -36 3 -30 18 5 9 10 47 13 84
2 37 8 66 12 63 5 -3 14 -31 20 -63z m30 -4 c7 -35 18 -66 24 -70 13 -9 1 -22
-13 -14 -5 3 -17 37 -25 76 -19 80 -19 83 -7 76 4 -3 14 -34 21 -68z m-110 11
c0 -26 5 -60 10 -75 6 -15 9 -28 8 -29 -2 -2 -22 -5 -46 -9 -24 -3 -48 -9 -54
-12 -7 -5 -8 8 -3 42 4 27 8 63 9 79 2 42 10 50 45 51 30 1 31 0 31 -47z m30
-11 c0 -45 -3 -59 -10 -48 -13 20 -13 110 0 110 6 0 10 -27 10 -62z m-648 -60
l-9 -63 -2 75 c-1 54 2 71 10 63 8 -8 8 -30 1 -75z"/>
<path d="M1126 548 c4 -7 8 -26 8 -42 1 -31 2 -31 54 -31 30 0 56 3 59 8 13
21 21 0 26 -65 3 -40 7 -82 9 -93 3 -18 -4 -20 -72 -25 -41 -3 -70 -8 -64 -12
6 -4 42 -4 81 -1 l70 6 11 56 c7 32 12 75 12 98 l0 40 104 9 c119 10 116 13
116 -78 0 -26 5 -50 10 -53 6 -4 8 -11 5 -16 -4 -5 -2 -9 3 -9 13 0 32 79 32
129 0 39 2 41 30 41 17 0 30 5 30 10 0 12 14 12 -172 0 -273 -18 -302 -21
-315 -32 -7 -6 -16 -8 -20 -4 -3 3 -1 6 5 6 18 0 15 57 -4 64 -23 9 -26 8 -18
-6z m440 -110 c-6 -85 -16 -84 -16 1 0 48 4 70 11 66 6 -4 8 -30 5 -67z m-266
-3 c0 -30 -4 -55 -10 -55 -5 0 -10 25 -10 55 0 30 5 55 10 55 6 0 10 -25 10
-55z"/>
<path d="M938 515 c2 -14 6 -25 8 -25 2 0 4 11 4 25 0 14 -4 25 -9 25 -4 0 -6
-11 -3 -25z"/>
<path d="M993 408 c3 -46 9 -92 13 -102 13 -32 32 38 33 119 1 90 -17 74 -22
-20 l-3 -70 -2 78 c-1 50 -6 77 -13 77 -8 0 -10 -24 -6 -82z"/>
<path d="M738 473 c-14 -2 -29 -11 -32 -19 -4 -11 -1 -14 14 -10 11 3 30 9 41
12 16 5 19 3 13 -7 -4 -8 -9 -31 -9 -52 -1 -21 -5 -41 -11 -45 -5 -4 -10 -24
-11 -44 l-2 -38 30 22 c20 15 26 25 19 32 -8 8 -14 6 -20 -4 -6 -10 -10 -11
-10 -3 0 7 11 20 24 28 28 19 40 61 19 69 -8 3 -12 10 -8 15 3 6 12 8 20 4 9
-3 15 1 15 11 0 12 18 25 20 14 1 -2 3 -37 6 -78 4 -41 10 -82 14 -89 12 -22
30 52 30 127 l0 62 -67 -1 c-38 -1 -80 -4 -95 -6z m145 -80 c-7 -91 -13 -93
-13 -5 0 40 4 72 9 72 5 0 7 -30 4 -67z m-90 -18 c-7 -21 -13 -19 -13 6 0 11
4 18 10 14 5 -3 7 -12 3 -20z"/>
<path d="M1918 355 c-6 -6 -44 -10 -200 -21 -151 -10 -183 -24 -43 -18 66 2
144 7 173 10 34 3 59 1 68 -7 11 -9 14 -7 14 15 0 26 -2 30 -12 21z"/>
<path d="M1946 322 c-2 -4 -1 -14 5 -22 7 -12 9 -10 9 8 0 23 -5 28 -14 14z"/>
<path d="M1085 290 c-22 -4 -96 -11 -164 -15 -70 -4 -118 -11 -111 -15 8 -5
43 -6 79 -2 36 3 99 6 139 6 39 1 72 5 72 10 0 6 7 1 15 -10 14 -18 14 -18 15
9 0 15 -1 26 -2 26 -2 -1 -21 -5 -43 -9z"/>
<path d="M1145 260 c-3 -5 -1 -10 4 -10 6 0 11 5 11 10 0 6 -2 10 -4 10 -3 0
-8 -4 -11 -10z"/>
</g>
</svg>
