<?xml version="1.0" standalone="no"?>
<!DOCTYPE svg PUBLIC "-//W3C//DTD SVG 20010904//EN"
 "http://www.w3.org/TR/2001/REC-SVG-20010904/DTD/svg10.dtd">
<svg version="1.0" xmlns="http://www.w3.org/2000/svg"
 width="300.000000pt" height="208.000000pt" viewBox="0 0 300.000000 208.000000"
 preserveAspectRatio="xMidYMid meet">
<metadata>
Created by potrace 1.10, written by Peter Selinger 2001-2011
</metadata>
<g transform="translate(0.000000,208.000000) scale(0.100000,-0.100000)"
fill="#fcb026" stroke="none">
<path d="M1180 1788 c-483 -116 -493 -118 -488 -123 1 -2 29 2 61 7 88 15 144
4 168 -35 10 -18 24 -48 29 -68 l10 -37 41 10 c43 11 76 5 171 -35 l47 -19 23
21 c51 48 82 37 239 -81 l82 -62 83 3 c45 1 84 -2 88 -7 5 -8 279 73 429 126
15 6 27 7 27 2 0 -8 -30 -24 -42 -22 -6 1 -104 -30 -138 -44 -8 -4 -22 -8 -30
-9 -22 -2 -123 -36 -135 -45 -5 -4 -27 -11 -49 -14 l-38 -7 71 -42 c39 -23 71
-45 71 -49 0 -4 -15 -4 -34 -1 -19 3 -49 0 -68 -6 -28 -9 -40 -8 -66 5 -18 8
-32 19 -32 23 0 5 -18 11 -41 15 -44 7 -126 -12 -193 -45 -31 -15 -42 -16 -53
-7 -11 9 -16 9 -24 -3 -12 -20 25 -24 72 -9 73 25 107 -31 49 -82 -26 -22 -30
-33 -30 -75 l0 -50 38 -1 c49 -2 82 -38 82 -92 0 -22 -7 -45 -16 -55 -15 -15
-15 -17 2 -30 25 -18 30 -13 44 43 9 41 9 55 -6 91 -9 23 -26 48 -37 56 -12 8
-16 15 -10 15 17 0 49 -37 64 -72 10 -24 10 -45 1 -92 -20 -114 -91 -401 -107
-435 -21 -44 -14 -49 18 -12 15 18 30 55 37 88 7 32 15 73 18 91 4 18 10 33
15 32 4 0 16 0 26 0 24 0 30 -16 42 -110 5 -41 11 -86 14 -98 3 -20 2 -22 -11
-11 -8 6 -12 14 -10 17 9 8 -35 62 -50 62 -11 0 -13 6 -9 19 3 11 1 22 -4 25
-6 4 -13 -10 -17 -31 -4 -21 -13 -50 -20 -65 -16 -30 -53 -60 -66 -52 -4 3 -8
-7 -8 -21 0 -20 4 -26 16 -21 8 3 12 2 9 -4 -12 -20 21 -9 64 20 24 17 48 30
52 30 4 0 1 16 -7 35 -17 41 -17 45 -4 45 6 0 10 -8 10 -18 0 -10 13 -39 30
-65 28 -45 26 -78 -3 -37 -12 18 -18 19 -42 10 -16 -6 -33 -17 -39 -24 -6 -7
-47 -27 -91 -45 -44 -18 -84 -39 -88 -47 -13 -24 -27 -16 -27 16 0 17 5 30 10
30 19 0 10 25 -19 58 -37 40 -42 40 -31 1 11 -36 1 -63 -12 -33 -5 13 -6 9 -2
-12 4 -23 1 -33 -11 -38 -24 -9 -42 5 -21 16 9 5 16 20 16 33 0 13 6 25 13 28
9 3 7 9 -5 24 -10 11 -18 26 -18 35 0 8 -9 23 -20 33 -11 10 -32 43 -46 74
-37 80 -83 150 -106 162 -30 16 -51 -10 -52 -66 -1 -41 3 -50 32 -76 18 -16
38 -29 45 -29 9 0 12 -25 10 -91 -1 -76 -5 -97 -22 -120 l-21 -29 95 -44 96
-45 110 39 c97 35 222 70 250 70 5 0 9 -18 9 -40 0 -22 -1 -40 -2 -40 -2 0
-36 9 -77 20 -40 10 -70 15 -65 11 5 -4 36 -15 68 -24 l60 -17 118 48 118 47
0 93 c0 91 -4 104 -28 80 -9 -9 -12 -8 -12 4 0 9 7 18 15 22 8 3 15 13 15 21
0 9 -7 23 -15 31 -17 17 -20 64 -5 64 6 0 10 -13 10 -30 0 -31 17 -39 37 -19
6 6 16 8 23 4 8 -5 7 -10 -3 -18 -18 -15 -30 -47 -17 -47 5 0 16 8 26 17 21
21 94 55 94 44 0 -12 48 -31 78 -31 15 0 61 16 101 35 76 37 84 36 96 -2 7
-25 -12 -33 -21 -9 -9 24 -59 4 -60 -25 -2 -40 -4 -45 -12 -31 -7 10 -18 10
-54 1 -37 -10 -55 -10 -88 0 -24 7 -46 9 -50 4 -11 -11 -19 -103 -10 -103 4 0
10 -10 14 -23 16 -67 166 -59 166 8 0 13 4 27 10 30 6 3 10 20 10 36 0 21 6
32 23 38 47 19 107 71 107 94 0 12 9 37 20 55 11 18 20 39 18 45 -1 7 1 37 6
67 6 47 12 60 41 83 50 40 75 95 75 164 0 57 -6 73 -44 128 -17 23 -18 33 -9
67 9 35 9 38 -6 32 -9 -3 -24 -9 -33 -11 -10 -3 -18 -12 -18 -20 0 -10 6 -13
16 -9 13 5 14 3 6 -6 -5 -7 -16 -57 -23 -111 -9 -69 -18 -102 -31 -113 -16
-15 -18 -15 -24 -1 -3 8 2 36 10 62 9 25 14 50 11 55 -3 5 0 10 6 12 12 4 27
118 16 118 -3 0 -39 -14 -80 -30 -42 -17 -81 -30 -87 -30 -9 0 -10 -13 -5 -46
4 -29 2 -50 -5 -59 -6 -7 -10 -19 -9 -27 4 -22 -13 -112 -23 -125 -28 -35 -42
3 -23 58 8 23 12 45 9 50 -3 5 2 16 10 25 10 10 16 33 16 65 0 46 -1 49 -19
39 -29 -15 -156 -60 -171 -60 -26 0 11 27 44 33 19 3 58 16 87 30 30 13 80 31
111 41 32 9 63 22 70 29 7 7 24 13 37 14 33 3 121 35 121 45 0 31 -63 139
-103 176 -26 23 -41 42 -33 42 24 0 112 -104 131 -155 10 -28 19 -51 20 -53 1
-1 27 7 58 19 l57 22 -6 56 c-8 69 -23 104 -72 160 l-38 44 -90 -29 c-57 -18
-88 -34 -86 -42 2 -10 -2 -10 -17 -2 -32 17 -36 12 -12 -14 13 -14 21 -28 18
-33 -3 -5 4 -10 15 -10 40 -3 119 -110 110 -150 -2 -7 3 -13 10 -13 24 -1 -24
-22 -59 -27 -19 -3 -61 -18 -92 -33 -32 -16 -68 -30 -82 -32 -13 -2 -44 -13
-69 -25 -63 -31 -100 -39 -100 -22 0 15 -178 189 -193 189 -18 0 43 41 63 43
11 1 20 4 20 8 0 4 18 6 40 5 22 0 41 3 43 8 4 11 74 36 122 42 22 3 48 13 57
21 15 14 20 14 34 2 13 -11 18 -11 21 -2 3 9 10 10 24 3 24 -13 27 11 4 30
-12 10 -18 10 -30 0 -9 -7 -18 -11 -20 -8 -3 3 1 11 9 17 13 11 11 18 -12 51
-28 41 -49 48 -84 29 -27 -14 -38 -1 -14 17 36 26 69 17 99 -27 15 -22 34 -42
41 -45 8 -3 62 10 121 28 128 41 131 35 -75 123 -74 31 -158 67 -187 79 -28
12 -58 27 -65 33 -23 18 -127 53 -159 53 -16 0 -53 -12 -81 -26 -38 -19 -53
-23 -56 -14 -14 40 -112 102 -112 70 0 -5 -15 -10 -32 -10 -18 0 -192 -38
-387 -86 -194 -47 -360 -84 -368 -82 -19 4 726 183 754 182 13 -1 20 2 17 7
-3 5 -13 9 -22 8 -9 0 -204 -46 -432 -101z m545 18 c10 -19 27 -37 38 -40 22
-5 68 10 79 27 10 16 108 13 141 -5 16 -9 25 -18 20 -21 -12 -7 -152 -46 -183
-51 -11 -2 -99 -30 -148 -47 -28 -10 -55 -19 -60 -19 -26 -2 -90 -21 -137 -40
-11 -5 -33 -11 -50 -13 -16 -3 -43 -11 -60 -18 -16 -6 -44 -12 -62 -13 -17 -1
-45 -11 -61 -23 -18 -14 -34 -18 -42 -13 -8 5 -18 6 -22 4 -4 -3 -8 -1 -8 4 0
6 -17 13 -37 17 -21 4 -44 11 -51 17 -7 6 -31 8 -58 4 -37 -5 -46 -3 -50 12
-3 9 -14 33 -25 53 l-18 36 57 11 c31 6 68 14 82 17 14 3 32 8 40 10 8 2 17 4
20 6 3 1 10 3 15 4 57 10 92 19 100 24 10 5 21 8 60 15 72 13 94 18 125 28 19
7 40 12 45 13 31 2 96 18 99 23 2 4 33 8 68 10 64 2 65 2 83 -32z m438 -93
c-6 -2 -25 3 -41 11 -28 14 -44 11 -381 -87 l-353 -102 29 -22 c15 -13 24 -23
20 -23 -11 0 -87 44 -87 50 0 7 480 150 670 198 75 20 75 20 115 -1 22 -11 35
-22 28 -24z m-15 -33 c3 -8 8 -8 17 0 11 9 113 -23 228 -73 30 -13 35 -26 12
-28 -17 -2 -24 -3 -45 -12 -8 -3 -32 -8 -52 -12 -39 -6 -58 6 -84 51 -6 10
-25 23 -43 28 -26 7 -37 5 -59 -11 -34 -25 -40 -58 -13 -72 13 -7 22 -8 26 -1
11 17 54 11 65 -9 16 -32 12 -37 -32 -37 -24 0 -63 -7 -88 -16 -53 -20 -210
-70 -225 -72 -5 -1 -14 -4 -20 -8 -20 -12 -91 -19 -113 -11 -12 5 -52 6 -89 3
-61 -5 -69 -4 -97 19 -17 14 -33 28 -36 32 -3 3 -15 11 -28 18 -39 21 -16 71
33 71 14 0 34 4 44 10 10 5 29 11 42 14 81 17 141 35 154 46 9 7 18 10 22 7 3
-4 12 -2 19 3 6 6 16 10 20 8 13 -3 77 13 89 22 6 4 31 11 58 14 26 4 45 11
43 15 -3 4 9 8 27 9 17 2 33 5 36 8 10 10 85 -4 89 -16z m380 -193 c34 -51 42
-71 42 -108 0 -39 -4 -47 -25 -57 -35 -16 -31 -18 -55 34 -11 26 -45 71 -75
100 l-54 53 34 7 c20 3 38 10 41 15 3 5 9 7 14 4 5 -3 11 -1 15 5 11 18 19 11
63 -53z m-864 -232 c19 -18 37 -24 64 -23 20 0 52 -2 71 -7 23 -5 36 -3 41 5
10 16 57 -14 65 -41 4 -11 11 -17 16 -14 5 4 9 -1 9 -9 0 -9 -8 -16 -19 -16
-11 0 -22 -4 -26 -9 -3 -6 9 -7 30 -4 31 5 35 3 35 -16 0 -11 4 -21 10 -21 16
0 0 -27 -23 -39 -21 -11 -4 -8 29 6 14 5 15 3 5 -15 -7 -12 -18 -22 -26 -22
-8 0 -15 -4 -15 -10 0 -5 19 -2 42 6 54 19 70 13 62 -23 -4 -16 -11 -33 -15
-39 -5 -6 -9 -22 -8 -35 2 -87 -35 -174 -54 -125 -7 18 12 86 30 107 7 8 13
23 13 33 0 9 5 27 11 38 10 18 9 20 -5 15 -9 -4 -16 -1 -16 6 0 8 -3 9 -8 1
-4 -6 -18 -17 -30 -23 -13 -7 -21 -15 -19 -18 3 -2 15 0 26 7 19 9 21 8 21
-14 0 -14 -4 -28 -10 -31 -5 -3 -10 -13 -10 -22 0 -8 -8 -25 -18 -37 -28 -36
-37 -12 -37 94 0 84 -3 102 -29 155 -16 33 -30 62 -32 64 -2 2 -29 12 -60 22
-39 13 -61 16 -73 9 -9 -5 -11 -10 -5 -10 6 0 29 -7 49 -16 l38 -16 -44 -19
c-24 -11 -51 -29 -60 -41 -15 -19 -16 -19 -16 -2 0 22 26 56 38 49 4 -3 10 -1
13 4 3 5 -6 12 -21 16 -16 3 -30 10 -33 14 -8 11 -92 43 -98 37 -2 -3 8 -10
23 -16 l29 -11 -32 -19 c-41 -25 -44 -25 -36 5 4 15 1 32 -6 40 -16 19 -16 19
40 38 25 8 45 16 46 16 1 1 13 -10 28 -24z m166 -15 c0 -5 -8 -10 -17 -10 -15
0 -16 2 -3 10 19 12 20 12 20 0z m120 -44 c0 -16 -28 15 -34 37 -5 21 -4 21
14 -3 11 -14 20 -29 20 -34z m58 -68 c-1 -38 -11 -35 -28 10 -8 20 -17 41 -19
46 -2 5 8 0 22 -10 17 -13 25 -28 25 -46z m346 9 c-23 -32 -37 -42 -58 -42
-15 -1 -31 -7 -35 -14 -6 -9 -11 -10 -15 -3 -8 13 24 32 53 32 12 0 21 4 21 9
0 14 52 73 58 66 3 -3 -8 -24 -24 -48z m-734 6 c-11 -17 -11 -17 -6 0 3 10 6
24 7 30 0 9 2 9 5 0 3 -7 0 -20 -6 -30z m54 31 c14 -5 14 -9 4 -22 -7 -8 -13
-31 -13 -50 0 -19 -6 -37 -12 -39 -8 -3 -13 4 -13 15 0 11 6 23 13 25 6 3 1 6
-12 6 -19 1 -22 -3 -18 -19 4 -15 0 -20 -14 -20 -10 0 -19 5 -19 10 0 6 5 10
12 10 6 0 9 2 6 5 -10 10 -39 -8 -34 -20 3 -8 -2 -16 -11 -19 -22 -9 -44 24
-37 54 7 31 24 51 24 28 0 -21 16 -32 26 -17 4 8 3 9 -4 5 -7 -4 -12 -1 -12 9
0 9 5 13 10 10 6 -3 10 -1 10 5 0 6 5 8 11 5 6 -4 8 -13 6 -19 -10 -26 25 -12
39 16 16 31 16 31 38 22z m776 -8 c0 -3 -4 -8 -10 -11 -5 -3 -10 -1 -10 4 0 6
5 11 10 11 6 0 10 -2 10 -4z m-592 -54 c37 -102 42 -125 35 -194 l-6 -70 -43
-21 c-46 -22 -54 -37 -54 -109 0 -27 -4 -48 -10 -48 -5 0 -10 11 -10 25 0 14
-4 25 -9 25 -5 0 -12 8 -15 18 -3 9 -4 5 -2 -10 2 -19 -1 -28 -10 -28 -10 0
-14 -14 -14 -44 0 -52 -19 -74 -22 -24 0 18 -1 39 -1 46 1 12 -11 11 -54 -5
-7 -3 -13 0 -13 6 0 6 12 13 28 17 15 3 34 8 43 10 9 3 23 22 32 44 14 36 14
40 -4 56 -10 9 -19 22 -19 27 0 6 10 1 23 -11 24 -23 37 -28 37 -14 0 4 -14
15 -31 25 -18 10 -29 20 -26 24 4 3 13 0 22 -7 13 -11 14 -10 9 4 -7 19 6 21
26 4 8 -7 7 -4 -3 8 -24 29 -22 46 6 39 25 -7 77 9 77 24 0 5 -17 3 -37 -4
-23 -8 -42 -10 -47 -4 -16 15 -22 11 -24 -18 -2 -31 0 -29 -34 -37 -24 -5 -28
-3 -28 14 0 23 10 26 29 8 9 -9 12 -9 7 -1 -3 6 0 13 6 16 10 4 11 7 1 18 -7
7 -13 21 -13 30 0 10 -6 20 -12 22 -7 3 -2 6 12 7 22 0 23 2 8 11 -22 12 -22
77 1 103 16 19 113 67 120 60 3 -3 11 -21 19 -42z m402 9 c0 -5 -7 -11 -15
-15 -15 -5 -20 5 -8 17 9 10 23 9 23 -2z m215 -35 c22 -34 22 -129 -1 -164
-26 -41 -67 -82 -81 -82 -7 0 -13 -4 -13 -8 0 -5 -11 -14 -24 -20 -51 -23
-143 -112 -157 -149 -14 -41 -72 -71 -124 -66 -22 3 -51 0 -65 -5 -20 -8 -35
-4 -78 19 -30 16 -58 27 -63 24 -5 -4 -9 0 -9 7 0 8 -9 21 -20 31 -15 12 -20
29 -20 62 0 40 4 47 33 65 42 26 61 25 81 -5 10 -15 26 -25 41 -25 32 0 55 44
62 119 3 31 10 64 15 75 9 17 12 16 44 -15 33 -32 34 -35 34 -114 0 -68 3 -85
22 -108 l21 -26 24 27 c32 37 40 89 20 123 -13 23 -13 30 -2 39 7 6 16 40 20
77 4 36 13 72 20 80 17 17 25 17 25 -1 0 -8 3 -16 8 -18 4 -1 18 -23 31 -48
29 -54 39 -62 63 -49 31 17 56 86 58 162 0 24 17 21 35 -7z m-326 -12 c-7 -9
-23 -20 -36 -25 -32 -12 -29 -34 8 -60 20 -14 27 -25 20 -32 -11 -11 -60 39
-61 63 0 8 17 29 37 47 39 32 56 36 32 7z m161 2 c0 -3 -4 -8 -10 -11 -5 -3
-10 -1 -10 4 0 6 5 11 10 11 6 0 10 -2 10 -4z m-626 -21 c-6 -16 -24 -21 -24
-7 0 11 11 22 21 22 5 0 6 -7 3 -15z m655 -9 c9 -10 8 -16 -4 -26 -9 -7 -15
-8 -15 -2 0 6 -3 17 -6 26 -8 20 9 21 25 2z m-279 0 c0 -3 -4 -8 -10 -11 -5
-3 -10 -1 -10 4 0 6 5 11 10 11 6 0 10 -2 10 -4z m2 -38 c-7 -7 -12 -8 -12 -2
0 14 12 26 19 19 2 -3 -1 -11 -7 -17z m88 18 c0 -2 -7 -9 -15 -16 -12 -10 -15
-10 -15 4 0 9 7 16 15 16 8 0 15 -2 15 -4z m-440 -116 c0 -5 -2 -10 -4 -10 -3
0 -8 5 -11 10 -3 6 -1 10 4 10 6 0 11 -4 11 -10z m488 -83 c2 -8 -2 -35 -9
-59 l-12 -43 -14 33 c-10 25 -11 38 -2 54 9 17 9 23 0 26 -6 2 -11 11 -11 19
0 14 2 14 23 1 12 -9 23 -22 25 -31z m-494 9 c-3 -7 4 -21 16 -31 20 -18 20
-18 -21 -37 -48 -21 -49 -21 -49 -8 0 6 7 10 15 10 9 0 18 7 21 15 4 8 11 12
16 9 6 -4 5 3 -1 15 -14 25 -23 28 -15 4 5 -15 4 -16 -5 -3 -16 23 -13 36 8
37 12 1 18 -3 15 -11z m-30 -41 c3 -8 1 -15 -4 -15 -6 0 -10 7 -10 15 0 8 2
15 4 15 2 0 6 -7 10 -15z m713 -12 c-8 -10 -17 -34 -19 -53 -3 -36 -5 -37 -50
-26 -23 5 -28 3 -28 -13 0 -11 5 -21 12 -23 27 -9 -6 -40 -78 -73 -73 -34
-146 -46 -158 -26 -3 5 13 7 37 4 54 -5 120 37 125 80 3 21 23 44 85 92 76 60
111 78 74 38z m-1217 -145 c24 -40 25 -71 4 -89 -13 -11 -14 -9 -9 13 8 31
-19 88 -40 88 -8 0 -15 5 -15 10 0 24 42 8 60 -22z m659 5 c-1 -16 31 -194 46
-265 7 -32 4 -33 -33 -14 -39 19 -85 29 -77 16 3 -5 18 -10 33 -11 18 0 22 -3
12 -7 -22 -10 -19 -34 5 -43 20 -8 20 -8 0 -8 -25 -1 -39 8 -52 34 -17 32 -43
160 -43 209 0 37 5 48 31 70 17 14 35 24 39 21 5 -3 11 -1 15 5 10 16 24 12
24 -7z m512 -10 c-12 -20 -14 -14 -5 12 4 9 9 14 11 11 3 -2 0 -13 -6 -23z
m-1202 -7 c10 -11 10 -20 0 -38 -11 -21 -11 -22 4 -9 18 14 22 5 8 -18 -11
-17 -31 -5 -31 19 0 10 -4 22 -10 25 -15 9 -12 35 4 35 7 0 19 -6 25 -14z
m773 -48 c-7 -7 -12 -8 -12 -2 0 14 12 26 19 19 2 -3 -1 -11 -7 -17z m-701
-100 c1 -24 1 -58 0 -75 -2 -18 2 -33 8 -33 6 0 8 6 5 14 -3 7 2 16 10 19 10
4 16 1 16 -8 0 -7 8 -15 18 -18 13 -3 10 -7 -12 -16 -16 -6 -35 -10 -43 -7 -7
3 -13 1 -13 -3 0 -5 -3 -16 -6 -25 -3 -9 -1 -16 5 -16 6 0 11 7 11 16 0 8 4
13 9 9 5 -3 12 -1 16 5 3 5 15 10 26 10 14 0 19 -7 19 -30 0 -30 -14 -41 -23
-17 -4 7 -8 3 -12 -10 -9 -27 -21 -29 -42 -7 -9 8 -21 13 -28 10 -7 -2 -4 10
7 32 15 29 19 53 16 115 -2 42 0 77 4 77 5 0 9 -19 9 -42z m989 -16 c0 -32
-30 -82 -54 -88 -51 -12 -86 19 -86 79 0 21 5 22 70 22 50 0 70 -4 70 -13z
m-920 -45 c0 -5 -9 -2 -20 8 -11 10 -20 25 -20 34 1 12 5 10 20 -8 11 -13 20
-28 20 -34z m335 13 c-3 -5 -14 -10 -23 -10 -15 0 -15 2 -2 10 20 13 33 13 25
0z m-35 -39 c0 -6 -4 -13 -10 -16 -5 -3 -10 1 -10 9 0 9 5 16 10 16 6 0 10 -4
10 -9z m87 -58 c-3 -5 -20 -10 -37 -11 -35 -3 -33 14 4 28 22 8 42 -2 33 -17z
m171 15 c-3 -7 -13 -15 -24 -17 -16 -3 -17 -1 -5 13 16 19 34 21 29 4z m-69
-55 c7 -8 2 -13 -16 -18 -14 -3 -26 -5 -27 -3 -30 49 -16 93 16 54 10 -12 22
-26 27 -33z m-428 -23 c21 0 39 -4 39 -10 0 -11 -69 -14 -94 -4 -9 3 -16 11
-16 16 0 6 7 7 16 4 9 -3 33 -6 55 -6z"/>
<path d="M1905 1110 c-8 -13 5 -13 25 0 13 8 13 10 -2 10 -9 0 -20 -4 -23 -10z"/>
<path d="M1647 1150 c-3 -11 -3 -20 -1 -20 2 0 8 9 14 20 6 11 7 20 2 20 -6 0
-12 -9 -15 -20z"/>
<path d="M1744 1086 c-10 -8 -16 -17 -13 -20 7 -7 69 16 69 26 0 13 -35 9 -56
-6z"/>
<path d="M1773 1060 c-24 -11 -43 -25 -43 -32 0 -10 2 -10 9 1 5 7 14 11 20 7
14 -9 73 22 66 34 -4 6 -7 10 -8 9 -1 0 -21 -9 -44 -19z"/>
<path d="M1793 1028 c-23 -11 -31 -28 -13 -28 16 0 60 23 60 32 0 11 -20 9
-47 -4z"/>
<path d="M1735 1000 c3 -5 11 -10 16 -10 6 0 7 5 4 10 -3 6 -11 10 -16 10 -6
0 -7 -4 -4 -10z"/>
<path d="M1800 995 c-26 -10 -31 -15 -19 -19 19 -8 69 9 69 24 0 12 -4 12 -50
-5z"/>
<path d="M1808 963 c-23 -4 -50 -33 -29 -33 19 0 71 23 71 31 0 5 -3 8 -7 8
-5 -1 -20 -4 -35 -6z"/>
<path d="M1807 889 c-9 -5 -22 -7 -29 -3 -7 4 -8 3 -4 -4 10 -17 41 -15 56 3
14 17 3 19 -23 4z"/>
<path d="M1790 840 c0 -5 5 -10 10 -10 6 0 10 5 10 10 0 6 -4 10 -10 10 -5 0
-10 -4 -10 -10z"/>
<path d="M2265 650 c-3 -5 -1 -10 4 -10 6 0 11 5 11 10 0 6 -2 10 -4 10 -3 0
-8 -4 -11 -10z"/>
<path d="M1771 631 c-10 -6 -10 -10 -1 -16 13 -8 24 -1 19 14 -3 6 -10 7 -18
2z"/>
<path d="M1776 590 c-21 -16 -40 -31 -42 -33 -9 -8 17 -112 31 -127 13 -14 85
-44 91 -37 2 2 -34 206 -39 219 -1 4 -19 -6 -41 -22z m42 -93 c3 -46 1 -57
-12 -57 -35 0 -65 100 -33 113 32 14 42 2 45 -56z"/>
<path d="M1125 610 c3 -5 8 -10 11 -10 2 0 4 5 4 10 0 6 -5 10 -11 10 -5 0 -7
-4 -4 -10z"/>
<path d="M865 1541 c-49 -15 -49 -16 -17 -19 17 -2 45 -2 61 0 25 3 28 5 18
19 -11 13 -17 14 -62 0z"/>
<path d="M679 1519 c-11 -22 1 -69 18 -69 5 0 8 -20 8 -45 0 -42 -2 -45 -27
-45 l-26 0 27 -28 c16 -16 35 -52 45 -84 19 -66 19 -68 6 -68 -5 0 -10 12 -10
28 l0 27 -13 -25 c-17 -33 -40 -36 -66 -9 -42 45 -35 138 10 126 10 -3 17 -1
13 4 -8 13 -38 11 -52 -3 -16 -16 -15 -73 2 -106 7 -15 39 -130 69 -257 79
-327 89 -372 84 -392 -4 -13 -5 -12 -6 5 0 13 -6 20 -11 17 -14 -8 -1 -82 21
-120 9 -16 22 -46 28 -66 26 -82 131 -189 185 -189 31 0 93 24 115 44 31 28
44 81 39 162 -4 61 -9 78 -33 106 -26 30 -28 31 -21 8 3 -14 9 -70 13 -125 5
-83 3 -106 -11 -133 -23 -44 -26 -40 -9 10 55 157 -93 416 -224 395 -30 -5
-33 -3 -32 16 5 61 -1 78 -31 88 -16 6 -30 15 -30 20 0 6 9 5 21 -1 34 -19 34
-2 0 17 -34 20 -42 38 -12 30 17 -4 18 -2 10 20 -5 13 -9 42 -9 65 0 25 -8 49
-20 65 -11 14 -20 31 -20 38 0 7 -8 15 -19 18 -14 3 -18 14 -18 47 0 25 -6 46
-14 51 -11 6 -8 9 8 9 16 0 21 -4 16 -16 -3 -8 4 -28 16 -44 11 -16 21 -38 21
-48 0 -11 9 -30 20 -43 20 -25 26 -20 11 9 -15 30 -22 72 -11 72 5 0 10 -9 10
-19 0 -11 3 -27 6 -36 11 -26 37 19 28 48 -4 12 -7 32 -5 44 1 12 -7 31 -18
42 -15 15 -17 21 -7 21 19 0 28 -16 35 -56 5 -28 9 -30 29 -23 33 12 30 61 -5
88 -28 21 -28 21 -3 12 32 -11 56 -52 45 -77 -4 -10 -7 -26 -6 -34 2 -13 1
-13 -8 0 -8 11 -11 11 -11 2 0 -7 -5 -10 -11 -6 -7 4 -10 1 -7 -6 2 -7 15 -14
29 -14 113 -5 203 -228 134 -330 -13 -20 -22 -36 -19 -36 2 0 26 11 52 24 54
27 72 57 72 118 l0 41 23 -20 c32 -30 55 -18 26 13 l-22 24 29 0 c16 0 56 15
89 34 l60 33 0 114 0 114 -35 17 c-34 17 -35 17 -42 -2 -11 -29 -21 -25 -14 5
9 35 -3 31 -15 -5 -8 -22 -17 -30 -35 -30 -31 0 -32 27 -1 33 19 4 18 4 -5 6
-19 1 -28 -4 -28 -14 0 -18 -31 -20 -48 -3 -19 19 -14 38 11 38 16 0 18 -3 8
-9 -18 -12 78 -1 102 11 10 5 24 5 35 -1 13 -7 22 -7 30 1 7 7 17 3 33 -16 20
-23 49 -35 49 -20 0 3 -40 58 -89 122 -80 105 -96 120 -153 149 -51 26 -71 31
-101 26 -23 -3 -37 -11 -37 -20 0 -10 -9 -13 -27 -11 -44 5 -37 -19 12 -41 36
-16 50 -29 65 -63 24 -52 26 -127 5 -154 -14 -18 -15 -17 -9 11 3 17 7 36 10
43 3 11 -63 49 -71 40 -2 -2 3 -20 10 -41 15 -43 43 -79 59 -74 6 2 40 -9 76
-24 l65 -28 3 -104 3 -105 -56 -31 c-30 -17 -61 -31 -69 -31 -19 0 -25 44 -26
184 0 116 -3 136 -17 123 -10 -11 -3 -140 9 -154 7 -9 7 -13 0 -13 -20 0 -32
37 -32 94 0 53 -1 56 -25 56 -26 0 -68 33 -77 61 -3 8 -18 14 -39 14 -31 0
-34 3 -31 27 1 16 -3 28 -13 32 -8 3 -15 1 -15 -4 0 -6 -4 -10 -8 -10 -5 0 -9
7 -9 15 0 8 3 12 6 11 3 -2 7 24 8 57 0 34 4 76 8 92 6 23 5 27 -4 19 -7 -6
-15 -45 -18 -87 -6 -83 -16 -108 -33 -91 -7 7 -8 39 -4 93 6 73 10 84 32 99
23 15 23 16 6 23 -38 15 -73 10 -85 -12z m371 -39 c0 -11 -7 -20 -15 -20 -8 0
-15 9 -15 20 0 11 7 20 15 20 8 0 15 -9 15 -20z m56 -13 c11 -7 37 -25 57 -42
35 -28 37 -33 37 -87 0 -32 -4 -58 -10 -58 -5 0 -7 21 -3 50 6 50 5 51 -37 88
-24 20 -55 42 -69 49 -14 6 -19 12 -11 12 8 0 24 -5 36 -12z m-4 -66 c-6 -3
-11 -15 -13 -25 -6 -32 -26 -29 -40 6 -7 18 -14 36 -16 39 -2 3 7 11 19 16 19
9 26 8 41 -9 10 -12 14 -24 9 -27z m20 -43 c-9 -9 -12 -7 -12 12 0 19 3 21 12
12 9 -9 9 -15 0 -24z m40 -33 c-3 -36 -8 -45 -23 -45 -25 0 -26 43 -1 69 25
28 28 26 24 -24z m-62 -9 c0 -19 -4 -37 -9 -40 -5 -3 -8 12 -7 34 1 49 16 54
16 6z m153 -1 c17 -23 11 -40 -9 -27 -12 8 -25 52 -16 52 4 0 15 -11 25 -25z
m-484 -44 c6 -10 7 -22 3 -26 -4 -3 -1 -5 7 -3 7 2 16 -3 18 -10 4 -10 -2 -13
-18 -10 -17 2 -25 12 -30 36 -7 35 4 43 20 13z m509 -166 l2 -100 -39 -22 -39
-23 -4 108 c-1 59 1 109 5 111 4 1 13 9 20 17 7 7 21 13 32 11 18 -2 20 -10
23 -102z m-508 34 c0 -12 -7 -19 -20 -19 -21 0 -24 8 -14 34 8 20 34 9 34 -15z
m145 20 c11 -17 -1 -21 -15 -4 -8 9 -8 15 -2 15 6 0 14 -5 17 -11z m50 -87
c-2 -2 -14 4 -27 14 l-24 18 20 24 21 24 6 -39 c4 -21 5 -40 4 -41z m-225
-146 c0 -27 -3 -46 -7 -42 -10 10 -31 115 -24 122 13 13 31 -34 31 -80z m333
-79 c3 -7 -1 -21 -9 -32 -13 -17 -14 -17 -14 13 0 32 14 43 23 19z m-289 -83
c3 -9 6 -27 6 -42 0 -14 8 -34 17 -44 15 -16 15 -21 3 -28 -8 -5 -17 -7 -21
-5 -8 5 -20 56 -26 103 -3 33 10 44 21 16z m152 -135 c40 -24 89 -91 109 -150
31 -86 12 -199 -35 -214 -104 -33 -246 177 -209 309 21 74 71 95 135 55z"/>
<path d="M836 598 c-10 -14 -16 -44 -16 -79 0 -144 149 -291 206 -204 40 61
-8 225 -82 281 -40 31 -88 32 -108 2z m100 -29 c3 -6 0 -18 -8 -26 -14 -13
-16 -12 -20 11 -5 27 14 37 28 15z m-21 -156 c28 -50 30 -57 15 -48 -33 21
-81 169 -63 197 5 8 10 -9 15 -46 4 -32 19 -79 33 -103z m63 120 c-21 -5 -31
-48 -17 -74 8 -16 14 -18 22 -10 9 9 8 17 -1 31 -15 24 -15 30 -2 30 17 0 33
-41 21 -53 -18 -18 -13 -30 10 -24 13 3 19 1 16 -6 -2 -7 -13 -13 -24 -15 -28
-4 -63 42 -63 83 0 37 6 45 34 44 16 -1 17 -2 4 -6z m32 -174 c0 -26 -27 -43
-52 -32 -19 8 -19 10 -4 25 20 21 20 28 -1 45 -10 7 -2 6 19 -4 21 -10 38 -25
38 -34z"/>
<path d="M813 1498 c-16 -25 -30 -78 -21 -78 5 0 4 -8 -2 -19 -16 -30 -12 -50
15 -76 31 -32 56 -33 27 -2 -38 40 -25 153 19 164 16 4 18 8 7 14 -19 12 -36
11 -45 -3z"/>
<path d="M872 1412 c-35 -29 -39 -50 -19 -90 8 -15 22 -45 33 -67 21 -44 61
-72 89 -62 16 7 15 9 -8 27 -14 11 -31 37 -38 58 -6 20 -16 42 -21 49 -10 12
8 48 46 91 l19 22 -34 0 c-22 0 -45 -10 -67 -28z m-1 -49 c-4 -28 -6 -32 -9
-15 -3 22 3 52 11 52 1 0 1 -17 -2 -37z"/>
<path d="M966 1404 c-11 -30 -6 -42 24 -53 35 -12 37 -4 15 39 -17 33 -30 38
-39 14z"/>
<path d="M1300 1334 c64 -80 80 -95 80 -73 0 12 -116 140 -134 148 -4 2 20
-32 54 -75z"/>
<path d="M629 1293 c-3 -51 18 -93 48 -93 16 0 33 39 25 60 -9 26 -34 50 -54
50 -10 0 -18 -8 -19 -17z m41 -44 c0 -28 -15 -23 -16 6 -1 14 2 22 7 19 5 -3
9 -14 9 -25z"/>
<path d="M1477 1214 c-17 -17 -6 -41 19 -41 20 0 24 4 22 21 -3 21 -28 33 -41
20z m33 -20 c0 -14 -3 -14 -15 -4 -8 7 -15 14 -15 16 0 2 7 4 15 4 8 0 15 -7
15 -16z"/>
<path d="M1349 1202 c-11 -2 -18 -16 -21 -38 -2 -18 -2 -34 0 -34 4 0 92 62
92 66 0 4 -56 9 -71 6z"/>
<path d="M1324 1055 c-2 -25 10 -33 20 -16 7 10 -3 41 -13 41 -3 0 -7 -11 -7
-25z"/>
<path d="M605 1050 c16 -10 37 -29 46 -42 17 -22 17 -21 6 20 -10 39 -13 42
-47 42 l-35 0 30 -20z"/>
<path d="M544 1045 c-4 -8 -3 -22 0 -30 5 -13 -1 -15 -32 -9 -20 3 -41 7 -46
8 -15 2 -38 -52 -31 -73 4 -13 19 -21 48 -26 23 -3 55 -11 71 -17 27 -11 28
-12 7 -19 -27 -11 -64 -70 -51 -83 13 -13 13 -29 0 -21 -5 3 -10 -1 -10 -11 0
-38 25 -97 57 -132 19 -20 32 -31 28 -24 -3 6 -1 12 4 12 6 0 11 -7 11 -15 0
-39 141 -19 148 21 4 18 3 18 -12 -1 -15 -19 -16 -19 -6 10 9 22 7 46 -6 100
-20 84 -30 105 -49 105 -11 0 -15 13 -15 50 0 66 -20 111 -62 144 -40 30 -47
31 -54 11z m31 -15 c3 -5 1 -10 -4 -10 -6 0 -11 5 -11 10 0 6 2 10 4 10 3 0 8
-4 11 -10z m33 -47 c14 -27 22 -92 12 -98 -5 -3 -17 3 -27 13 -20 20 -64 40
-103 45 -42 6 -31 33 12 29 23 -2 46 3 60 12 29 20 35 20 46 -1z m42 -118 c0
-8 -2 -15 -4 -15 -2 0 -6 7 -10 15 -3 8 -1 15 4 15 6 0 10 -7 10 -15z m-31
-21 c32 -23 71 -110 71 -159 0 -41 -22 -85 -43 -85 -8 0 -8 3 1 12 7 7 12 35
12 63 0 67 -34 134 -78 155 -17 8 -32 18 -32 23 0 13 45 7 69 -9z m-21 -49
c28 -23 30 -30 27 -83 -2 -46 -1 -49 4 -17 l7 40 8 -33 c6 -24 3 -39 -8 -57
-9 -14 -18 -25 -20 -25 -13 0 -60 31 -70 47 -15 22 -30 60 -20 50 4 -4 16 1
26 10 21 19 32 11 42 -32 l8 -30 -25 27 c-18 20 -27 23 -30 14 -7 -18 18 -52
42 -59 17 -4 20 2 23 58 2 48 0 61 -9 54 -8 -7 -12 -3 -15 13 -2 18 -9 23 -30
23 -29 -1 -37 10 -15 18 21 9 25 8 55 -18z m-23 -35 c3 -5 1 -10 -4 -10 -6 0
-11 5 -11 10 0 6 2 10 4 10 3 0 8 -4 11 -10z"/>
<path d="M571 714 c0 -11 3 -14 6 -6 3 7 2 16 -1 19 -3 4 -6 -2 -5 -13z"/>
<path d="M414 1012 c-28 -18 -27 -75 2 -86 11 -4 13 0 8 19 -4 16 0 35 10 50
17 25 6 34 -20 17z"/>
<path d="M840 1000 c-40 -40 -20 -155 35 -198 34 -27 49 -28 75 -2 40 40 15
164 -42 204 -30 21 -44 20 -68 -4z m74 -49 c35 -38 30 -121 -7 -121 -7 0 -7 4
1 12 18 18 14 63 -7 89 -17 21 -22 22 -41 11 -20 -12 -20 -11 -10 8 13 25 42
26 64 1z m-22 -46 c10 -21 9 -29 -5 -43 -12 -11 -17 -12 -17 -4 0 7 -4 11 -8
8 -4 -2 -8 4 -8 15 0 19 1 19 13 3 7 -10 13 -13 13 -7 0 7 -7 18 -15 26 -8 8
-11 17 -8 21 12 12 24 6 35 -19z"/>
<path d="M1454 985 c-86 -56 -397 -242 -436 -261 l-38 -17 35 -24 c19 -13 35
-29 35 -35 0 -6 -10 -2 -22 9 -30 27 -82 53 -107 53 -11 0 -33 12 -50 26 -34
28 -36 28 -21 -11 8 -20 15 -25 30 -20 11 3 20 2 20 -3 0 -6 11 -13 25 -16 32
-8 98 -73 124 -123 18 -33 20 -35 19 -13 0 14 -3 39 -7 55 -4 17 -3 45 2 63 7
27 5 37 -10 48 -17 14 -16 14 4 5 12 -6 33 -11 47 -11 38 0 55 -10 81 -47 l23
-35 4 57 c1 31 0 59 -4 62 -5 2 -8 -3 -8 -12 0 -9 -5 -13 -10 -10 -6 4 8 25
32 50 54 54 149 92 193 75 33 -12 43 -7 25 15 -10 12 -10 15 5 15 13 0 16 -6
12 -26 -3 -17 -1 -24 8 -20 7 2 25 -9 41 -25 15 -16 24 -29 19 -29 -5 0 0 -7
11 -16 10 -8 12 -13 4 -9 -8 4 -3 -3 13 -15 15 -12 27 -27 27 -33 0 -6 -7 -2
-15 9 -14 18 -14 17 -4 -9 7 -15 14 -25 16 -23 3 2 11 29 19 59 l14 56 -36 35
c-21 20 -41 36 -45 36 -29 0 -51 114 -27 138 19 19 6 13 -48 -23z m12 -68 c1
-17 -1 -26 -3 -19 -6 16 -21 15 -39 -3 -18 -17 -64 -20 -64 -4 0 5 15 16 34
24 19 8 37 19 41 25 13 21 30 9 31 -23z m75 -92 c10 -11 15 -24 12 -29 -3 -5
-12 3 -20 18 -7 14 -18 26 -22 26 -5 0 -12 7 -15 16 -6 15 -4 15 11 3 10 -8
25 -23 34 -34z m-301 5 c0 -5 -4 -10 -10 -10 -5 0 -10 5 -10 10 0 6 5 10 10
10 6 0 10 -4 10 -10z m-60 -55 c0 -8 -4 -15 -9 -15 -5 0 -11 7 -15 15 -3 9 0
15 9 15 8 0 15 -7 15 -15z m410 -23 c0 -15 -2 -15 -10 -2 -13 20 -13 33 0 25
6 -3 10 -14 10 -23z"/>
<path d="M1350 998 c0 -27 11 -48 26 -48 19 0 17 14 -6 41 -15 19 -19 21 -20
7z"/>
<path d="M1510 991 c-5 -11 -10 -28 -10 -39 0 -27 38 -72 61 -72 35 0 37 72 1
113 -20 22 -39 22 -52 -2z m40 -63 c0 -5 -4 -8 -10 -8 -5 0 -10 10 -10 23 0
18 2 19 10 7 5 -8 10 -18 10 -22z"/>
<path d="M678 880 c-3 -19 0 -30 7 -30 7 0 10 11 7 30 -2 17 -5 30 -7 30 -2 0
-5 -13 -7 -30z"/>
<path d="M1381 820 c78 -41 147 -146 154 -233 4 -51 4 -51 -4 -11 -38 172
-172 289 -260 228 -130 -92 19 -447 177 -420 27 5 33 4 22 -3 -8 -6 -26 -11
-40 -11 -22 0 -23 -1 -9 -16 13 -12 20 -13 43 -3 15 7 26 20 24 28 -1 9 7 30
18 48 11 18 31 76 43 130 l24 99 -22 42 c-45 89 -111 142 -173 142 l-33 -1 36
-19z m-78 -25 c-69 -48 -49 -220 36 -317 36 -41 98 -70 131 -61 16 4 21 3 16
-5 -4 -7 -27 -12 -52 -12 -38 0 -51 6 -90 42 -25 23 -58 65 -72 93 -23 43 -27
63 -27 137 0 78 2 89 24 112 14 14 31 26 40 26 11 0 10 -4 -6 -15z m24 -33
c-33 -35 -33 -37 -1 -67 15 -14 22 -25 15 -25 -17 0 -51 38 -51 57 0 19 38 63
54 63 5 0 -2 -13 -17 -28z m56 21 c4 -3 2 -12 -5 -20 -8 -10 -8 -20 1 -39 15
-33 14 -44 -3 -44 -21 0 -51 51 -36 60 6 4 12 11 12 16 1 28 17 42 31 27z m50
-40 c2 6 4 -13 3 -45 -1 -47 3 -61 23 -82 14 -14 30 -26 37 -26 7 0 16 -5 20
-12 4 -7 3 -8 -4 -4 -8 5 -12 -2 -12 -18 0 -14 -4 -26 -10 -26 -5 0 -10 11
-10 24 0 14 -13 38 -30 54 -23 24 -30 39 -30 70 0 26 -5 42 -15 46 -8 3 -15
10 -15 16 0 7 6 8 19 0 14 -7 21 -6 24 3z m57 -93 c0 -21 -25 -4 -28 20 -4 21
-2 22 12 7 9 -8 16 -21 16 -27z m-155 -119 l26 -46 -25 30 c-31 36 -61 119
-50 137 5 8 11 -3 16 -31 4 -23 19 -64 33 -90z m75 100 c13 -26 13 -58 -1 -67
-7 -4 -9 0 -5 14 8 23 -8 62 -25 62 -6 0 -4 -9 4 -21 18 -25 11 -61 -12 -57
-23 5 -38 53 -21 72 17 22 47 20 60 -3z m15 -107 c-13 -26 -11 -47 8 -71 6 -9
6 -13 -2 -13 -6 0 -15 8 -18 18 -4 9 -16 25 -28 35 -13 11 -14 15 -4 12 10 -4
19 3 27 20 6 14 16 25 21 25 5 0 4 -12 -4 -26z m70 -10 c18 6 19 -1 4 -43 -14
-40 -39 -38 -51 4 -11 40 -3 62 17 45 8 -7 22 -10 30 -6z"/>
<path d="M1350 613 c0 -5 4 -15 10 -23 11 -18 25 -7 17 15 -6 15 -27 21 -27 8z"/>
<path d="M1495 800 c10 -11 20 -20 23 -20 3 0 -3 9 -13 20 -10 11 -20 20 -23
20 -3 0 3 -9 13 -20z"/>
<path d="M1970 519 c-29 -16 -36 -26 -42 -62 -11 -67 -9 -157 3 -157 5 0 7 4
4 10 -9 14 13 50 31 50 12 0 10 -5 -7 -19 -17 -14 -21 -23 -13 -31 6 -6 18 -8
26 -5 12 5 18 33 25 118 5 62 9 113 9 113 -1 1 -17 -7 -36 -17z m0 -71 c0 -17
-3 -28 -7 -24 -11 10 -11 56 -1 56 4 0 8 -14 8 -32z m4 -123 c-4 -8 -8 -15
-10 -15 -2 0 -4 7 -4 15 0 8 4 15 10 15 5 0 7 -7 4 -15z"/>
<path d="M1461 330 c-24 -11 -41 -23 -38 -26 3 -3 27 6 54 20 57 30 46 34 -16
6z"/>
</g>
</svg>
