
<svg version="1.1" id="Site_Dumpers_Icon" xmlns="http://www.w3.org/2000/svg"
    xmlns:xlink="http://www.w3.org/1999/xlink" x="0px" y="0px" viewBox="0 0 200 200"
    style="enable-background:new 0 0 200 200;" xml:space="preserve">
    <style>
        .st1 {
            fill: none;
            stroke: #FCB026;
            stroke-width: 2.85;
            stroke-miterlimit: 5;
        }

        .product-range-component .container:hover figure:hover .st1 {
            fill: none;
            stroke: #DD970C;
        }
    </style>
    <defs>
    </defs>
    <g>
        <circle class="st1" cx="131" cy="129.7" r="12.7"></circle>
        <circle class="st1" cx="131" cy="129.7" r="6.1"></circle>
        <circle class="st1" cx="61.9" cy="129.7" r="6.1"></circle>
        <circle class="st1" cx="61.9" cy="129.7" r="12.7"></circle>
        <path class="st1" d="M51.4,122.2c0,0-1.2-4.8-8.5-4.8v-5.5l10.3-7.4l41.4-6v9.4l-5.8,13H71.1"></path>
        <polyline class="st1" points="74.5,128.2 95.7,128.2 95.7,113.4 92.1,113.4 	"></polyline>
        <line class="st1" x1="95.7" y1="125.4" x2="119" y2="125.4"></line>
        <polyline class="st1" points="143.2,126.2 148.8,126.2 157.1,123.2 157.1,117.6 155.1,115.7 155.1,100.9 148.8,98.5 137.1,98.5 	
        "></polyline>
        <path class="st1" d="M147.9,71.2c-15.3-0.2-35.1,1.1-35.1,1.1s-5.2,13-5.5,38.9h29.7V71.2"></path>
        <line class="st1" x1="108" y1="72.6" x2="112.8" y2="72.3"></line>
        <line class="st1" x1="126.9" y1="71.6" x2="126.9" y2="110.9"></line>
        <path class="st1" d="M100.9,125.4v-9.7c0,0,0-1.2,0-5.7c0-3.6,7.4-15.2,7.4-15.2"></path>
        <line class="st1" x1="95.7" y1="115.6" x2="100.9" y2="115.6"></line>
    </g>
</svg>
